<svg xmlns="http://www.w3.org/2000/svg" xmlns:xlink="http://www.w3.org/1999/xlink" width="160" zoomAndPan="magnify" viewBox="0 0 120 119.999999" height="160" preserveAspectRatio="xMidYMid meet" version="1.2"><defs><clipPath id="6dcf3e1a55"><path d="M 19 12 L 37 12 L 37 18 L 19 18 Z M 19 12 "/></clipPath><clipPath id="5097762062"><path d="M 14 79 L 120 79 L 120 112.5 L 14 112.5 Z M 14 79 "/></clipPath><clipPath id="af3e1d32e3"><path d="M 26.0625 62.136719 L 28.207031 62.136719 L 28.207031 63.9375 L 26.0625 63.9375 Z M 26.0625 62.136719 "/></clipPath><clipPath id="6c680e213c"><path d="M 28.199219 62.773438 C 27.226562 64.273438 26.324219 63.976562 26.175781 63.675781 C 25.949219 63.375 26.101562 62.476562 26.398438 62.25 C 26.699219 62.023438 27.898438 62.324219 27.898438 62.324219 "/></clipPath></defs><g id="23a7a2acdd"><path style=" stroke:none;fill-rule:evenodd;fill:#ffffff;fill-opacity:1;" d="M 35.335938 38.996094 L 45.816406 38.996094 L 41.316406 52.015625 L 35.335938 52.015625 Z M 9.632812 38.996094 L 20.109375 38.996094 L 20.109375 52.015625 L 14.136719 52.015625 Z M 22.9375 38.996094 L 32.519531 38.996094 L 32.519531 52.023438 L 22.9375 52.023438 Z M 0.597656 33.863281 L 8.628906 57.148438 L 14.082031 60.554688 L 14.082031 76.109375 L 41.367188 76.109375 L 41.367188 60.554688 L 46.8125 57.148438 L 54.855469 33.863281 Z M 0.597656 33.863281 "/><path style=" stroke:none;fill-rule:evenodd;fill:#ffffff;fill-opacity:1;" d="M 5.1875 20.703125 L 50.265625 20.703125 L 42.226562 30.808594 L 13.21875 30.808594 Z M 5.1875 20.703125 "/><g clip-rule="nonzero" clip-path="url(#6dcf3e1a55)"><path style=" stroke:none;fill-rule:evenodd;fill:#ffffff;fill-opacity:1;" d="M 19.378906 11.933594 L 36.066406 11.933594 L 36.066406 17.632812 L 19.378906 17.632812 Z M 19.378906 11.933594 "/></g><path style=" stroke:none;fill-rule:evenodd;fill:#ffffff;fill-opacity:1;" d="M 67.507812 55.996094 C 66.890625 56.355469 67.046875 56.992188 67.46875 57.472656 L 71.410156 62.636719 L 70.238281 63.316406 C 68.742188 64.1875 69.667969 65.71875 70.96875 65.84375 L 81.425781 65.851562 C 82.757812 65.855469 83.816406 65.648438 85.199219 64.855469 L 92.398438 60.695312 L 90.664062 71.914062 C 90.324219 72.753906 91.472656 73.664062 92.273438 73.199219 L 96.230469 70.917969 C 96.992188 70.476562 97.703125 70.015625 98.175781 69.203125 L 104.28125 54.886719 C 105.011719 53.636719 105.5625 53.085938 106.753906 52.40625 L 114.855469 47.722656 C 119.28125 45.167969 119.414062 43.113281 118.882812 42.203125 C 118.386719 41.335938 117.003906 40.972656 115.90625 40.972656 C 115.199219 40.972656 114.832031 40.878906 114.359375 40.636719 C 112.765625 39.804688 110.566406 40.03125 108.363281 41.296875 L 79.746094 57.824219 C 78.984375 58.269531 78.8125 58.324219 78.035156 58.050781 L 70.148438 55.289062 C 69.707031 55.132812 69.214844 55.007812 68.65625 55.328125 L 67.503906 55.988281 L 67.503906 55.996094 Z M 67.507812 55.996094 "/><path style=" stroke:none;fill-rule:evenodd;fill:#ffffff;fill-opacity:1;" d="M 85.703125 52.492188 L 77.570312 49.597656 C 76.675781 49.472656 76.464844 48.019531 77.265625 47.558594 L 81.21875 45.277344 C 82.621094 44.472656 82.960938 44.367188 83.683594 44.445312 L 97.066406 45.929688 Z M 85.703125 52.492188 "/><g clip-rule="nonzero" clip-path="url(#5097762062)"><path style=" stroke:none;fill-rule:evenodd;fill:#ffffff;fill-opacity:1;" d="M 95.136719 86.910156 L 111.355469 86.910156 L 111.355469 104.671875 L 95.136719 104.671875 Z M 70.703125 86.910156 L 86.914062 86.910156 L 86.914062 104.671875 L 70.703125 104.671875 Z M 46.261719 86.910156 L 62.472656 86.910156 L 62.472656 104.671875 L 46.261719 104.671875 Z M 21.820312 86.910156 L 38.035156 86.910156 L 38.035156 104.671875 L 21.820312 104.671875 Z M 14.082031 79.164062 L 14.082031 112.417969 L 119.105469 112.417969 L 119.105469 79.164062 Z M 14.082031 79.164062 "/></g><g clip-rule="nonzero" clip-path="url(#af3e1d32e3)"><g clip-rule="nonzero" clip-path="url(#6c680e213c)"><path style=" stroke:none;fill-rule:nonzero;fill:#ffffff;fill-opacity:1;" d="M 23.175781 59.25 L 31.28125 59.25 L 31.28125 67.199219 L 23.175781 67.199219 Z M 23.175781 59.25 "/></g></g></g></svg>
