<svg xmlns="http://www.w3.org/2000/svg" xmlns:xlink="http://www.w3.org/1999/xlink" width="16" zoomAndPan="magnify" viewBox="0 0 120 119.999999" height="16" preserveAspectRatio="xMidYMid meet" version="1.2"><defs><clipPath id="6ee0d5a79a"><path d="M 0 43 L 120 43 L 120 71 L 0 71 Z M 0 43 "/></clipPath><clipPath id="586fb3b21a"><path d="M 11.660156 21.667969 L 120.28125 47.925781 L 108.648438 96.039062 L 0.0273438 69.78125 Z M 11.660156 21.667969 "/></clipPath><clipPath id="cf878ada98"><path d="M 11.660156 21.667969 L 120.28125 47.925781 L 108.648438 96.039062 L 0.0273438 69.78125 Z M 11.660156 21.667969 "/></clipPath><clipPath id="37c30cdcb5"><path d="M 11.660156 21.667969 L 119.738281 47.796875 L 108.109375 95.90625 L 0.0273438 69.78125 Z M 11.660156 21.667969 "/></clipPath></defs><g id="cb9c9d2bc8"><g clip-rule="nonzero" clip-path="url(#6ee0d5a79a)"><g clip-rule="nonzero" clip-path="url(#586fb3b21a)"><g clip-rule="nonzero" clip-path="url(#cf878ada98)"><g clip-rule="nonzero" clip-path="url(#37c30cdcb5)"><path style=" stroke:none;fill-rule:nonzero;fill:#ffffff;fill-opacity:1;" d="M 119.628906 47.78125 C 119.390625 47.777344 117.109375 47.851562 117.109375 47.851562 C 117.109375 47.851562 116.953125 47.855469 116.859375 47.851562 C 116.769531 47.851562 112.652344 48.109375 112.652344 48.109375 C 112.652344 48.109375 112.234375 48.226562 111.726562 48.136719 C 111.214844 48.046875 108.636719 46.738281 104.355469 46.363281 C 100.074219 45.988281 97.390625 45.996094 96.273438 45.960938 C 95.15625 45.921875 92.96875 45.914062 91.488281 45.667969 C 90.007812 45.417969 86.757812 44.011719 85.21875 43.613281 C 83.679688 43.214844 80.761719 43.324219 77.855469 44.300781 C 76.710938 44.6875 75.867188 44.988281 75.203125 45.226562 C 74.179688 45.585938 73.578125 45.789062 72.957031 45.902344 C 71.929688 46.082031 70.394531 46.304688 70.394531 46.304688 L 70.105469 45.871094 L 69.84375 45.890625 C 69.84375 45.890625 69.722656 46.472656 69.21875 46.613281 C 68.710938 46.75 58.757812 48.835938 55.640625 49.625 L 53.425781 47.730469 L 53.230469 47.722656 L 55.1875 49.691406 C 55.1875 49.691406 47.4375 52.777344 43.222656 54.617188 C 39.003906 56.457031 37.148438 57.140625 37.148438 57.140625 L 30.769531 56.507812 L 13.292969 45.722656 C 13.292969 45.722656 12.628906 45.136719 12.171875 45.574219 C 11.714844 46.015625 11.027344 46.460938 11.027344 46.460938 C 11.027344 46.460938 10.65625 46.472656 10.292969 46.773438 C 9.929688 47.070312 7.875 48.507812 7.875 48.507812 C 7.875 48.507812 7.769531 48.703125 7.890625 48.972656 C 8.007812 49.246094 8.242188 50.230469 8.242188 50.230469 C 8.242188 50.230469 7.777344 50.367188 7.945312 50.515625 C 8.117188 50.660156 8.472656 50.597656 8.472656 50.597656 L 8.496094 50.996094 C 8.496094 50.996094 8.363281 51.09375 8.40625 51.164062 C 8.449219 51.230469 8.574219 51.28125 8.574219 51.28125 C 8.574219 51.28125 8.730469 51.441406 8.566406 51.460938 C 8.398438 51.480469 7.527344 51.789062 7.65625 51.945312 C 7.785156 52.101562 8.714844 51.917969 8.714844 51.917969 L 9.03125 52.796875 C 9.03125 52.796875 8.292969 52.984375 8.292969 53.109375 C 8.296875 53.230469 9.152344 53.207031 9.152344 53.207031 L 9.230469 53.507812 L 10.445312 53.253906 L 10.425781 53.515625 L 8.855469 53.90625 L 7.59375 54.160156 L 7.652344 54.226562 L 8.789062 54.042969 C 8.789062 54.042969 9.234375 55.726562 9.410156 56.546875 C 9.585938 57.367188 10.617188 61.675781 10.617188 61.675781 L 11.613281 61.855469 L 13.175781 61.5625 L 13.222656 61.753906 L 11.644531 62.007812 L 11.761719 65.640625 L 2.910156 68.1875 L 2.980469 68.308594 L 7.0625 67.480469 L 0.0585938 69.660156 L 0.199219 69.820312 C 0.199219 69.820312 4.097656 68.914062 4.910156 68.792969 C 5.71875 68.675781 12.1875 67.058594 12.1875 67.058594 C 12.1875 67.058594 12.5625 69.140625 12.78125 69.5625 L 13.21875 69.550781 C 13.21875 69.550781 13.285156 69.949219 13.699219 69.992188 C 14.117188 70.035156 17.324219 69.972656 18.132812 69.867188 C 18.941406 69.761719 20.449219 69.484375 21.371094 69.429688 C 22.292969 69.378906 28.351562 68.433594 28.726562 68.589844 C 29.105469 68.746094 29.835938 68.820312 31.269531 68.820312 C 32.699219 68.824219 43.476562 68.585938 44.042969 68.597656 C 44.605469 68.609375 49.671875 67.957031 51.960938 67.644531 C 54.253906 67.332031 57.457031 67.160156 59.882812 65.742188 C 62.308594 64.324219 62.386719 63.660156 62.386719 63.660156 C 62.386719 63.660156 65.652344 62.785156 67.144531 61.941406 C 67.144531 61.941406 71.488281 57.867188 72.285156 57.265625 C 73.082031 56.667969 73.394531 56.519531 73.394531 56.519531 C 73.394531 56.519531 79.492188 55.234375 82.042969 54.769531 C 84.589844 54.304688 84.882812 54.398438 84.882812 54.398438 L 85.101562 54.828125 C 85.101562 54.828125 85.433594 54.921875 85.449219 54.691406 C 85.460938 54.464844 85.539062 54.234375 85.539062 54.234375 L 89.015625 53.722656 L 89.148438 54.03125 L 89.269531 54.027344 L 89.261719 53.71875 C 89.261719 53.71875 91.03125 53.398438 92.285156 53.21875 C 93.539062 53.039062 94.371094 53.140625 95.132812 53.140625 C 95.898438 53.136719 96.433594 53.035156 96.433594 53.035156 L 96.4375 53.246094 L 96.605469 53.261719 L 96.597656 53.027344 C 96.597656 53.027344 98.578125 52.898438 99.066406 52.65625 C 99.554688 52.414062 99.859375 52.160156 100.394531 52.101562 C 100.929688 52.046875 105.148438 51.472656 107.863281 50.34375 C 110.578125 49.210938 111.921875 48.511719 112.539062 48.453125 C 113.15625 48.394531 117.085938 48.058594 117.085938 48.058594 C 117.085938 48.058594 117.113281 47.996094 117.660156 47.96875 C 118.207031 47.945312 119.632812 47.914062 119.632812 47.914062 C 119.632812 47.914062 119.863281 47.785156 119.628906 47.78125 Z M 83.992188 45.953125 C 83.664062 45.964844 83.550781 46.039062 83.550781 45.964844 C 83.546875 45.894531 83.585938 45.8125 83.453125 45.824219 C 83.316406 45.839844 83.425781 45.960938 83.066406 46.011719 C 82.703125 46.0625 82.40625 46.023438 82.269531 46.035156 C 82.136719 46.046875 82.125 45.957031 82.121094 45.925781 C 82.121094 45.894531 82.238281 45.609375 82.128906 45.46875 C 82.023438 45.328125 81.929688 45.257812 81.925781 45.195312 C 81.925781 45.132812 82.121094 44.796875 81.84375 44.496094 C 81.566406 44.195312 80.910156 43.902344 80.484375 44.234375 C 80.058594 44.566406 80.332031 45.367188 80.332031 45.367188 C 80.332031 45.367188 80.363281 45.5 80.367188 45.539062 C 80.367188 45.582031 80.417969 45.601562 80.410156 45.714844 C 80.40625 45.828125 80.25 45.851562 80.1875 45.855469 C 80.128906 45.855469 80.046875 45.527344 80.070312 45.371094 C 80.097656 45.21875 79.917969 44.34375 79.289062 44.320312 C 78.65625 44.296875 78.804688 44.4375 78.1875 44.496094 C 77.570312 44.554688 77.332031 44.84375 77.351562 44.914062 C 77.375 44.984375 77.476562 45.207031 77.375 45.292969 C 77.273438 45.378906 77.277344 45.203125 77.273438 45.378906 C 77.269531 45.554688 77.246094 45.84375 77.175781 45.898438 C 77.105469 45.953125 77.070312 46.292969 77.011719 46.296875 C 76.949219 46.296875 76.835938 46.394531 76.78125 46.300781 C 76.730469 46.210938 77.542969 45.773438 76.363281 45.765625 C 75.1875 45.757812 75.417969 45.949219 75.390625 45.949219 C 75.359375 45.949219 75.238281 45.777344 75.238281 45.777344 L 75.226562 45.332031 C 75.226562 45.332031 78.292969 44.203125 78.980469 44.0625 C 79.667969 43.917969 81.996094 43.324219 84.089844 43.515625 C 84.089844 43.515625 84.144531 43.5625 84.097656 43.8125 C 84.054688 44.0625 84.230469 45.566406 84.230469 45.636719 C 84.234375 45.710938 84.324219 45.945312 83.992188 45.953125 Z M 90.785156 45.773438 C 90.785156 45.773438 90.703125 45.890625 90.671875 45.890625 C 90.644531 45.890625 89.511719 45.714844 89.261719 45.652344 C 89.011719 45.585938 88.964844 45.660156 88.871094 45.660156 C 88.777344 45.664062 88.714844 45.582031 88.65625 45.460938 C 88.601562 45.339844 88.046875 45.394531 87.878906 45.371094 C 87.714844 45.34375 86.101562 45.285156 86 45.289062 C 85.894531 45.292969 85.609375 45.433594 85.609375 45.433594 C 85.609375 45.433594 85.625 45.257812 85.605469 45.21875 C 85.582031 45.175781 85.488281 45.097656 85.488281 45.097656 L 85.449219 43.796875 C 85.449219 43.796875 86.773438 44.113281 87.734375 44.546875 C 88.695312 44.980469 90.832031 45.574219 90.832031 45.574219 L 90.785156 45.773438 "/></g></g></g></g></g></svg>
