<svg xmlns="http://www.w3.org/2000/svg" xmlns:xlink="http://www.w3.org/1999/xlink" width="16" zoomAndPan="magnify" viewBox="0 0 120 119.999999" height="16" preserveAspectRatio="xMidYMid meet" version="1.2"><defs><clipPath id="c384069622"><path d="M 0 34.574219 L 120 34.574219 L 120 83.324219 L 0 83.324219 Z M 0 34.574219 "/></clipPath></defs><g id="c5482aaf9f"><g clip-rule="nonzero" clip-path="url(#c384069622)"><path style=" stroke:none;fill-rule:nonzero;fill:#000000;fill-opacity:1;" d="M 9.167969 65.34375 C 9.226562 65.367188 9.289062 65.382812 9.347656 65.394531 C 14.386719 66.78125 22.054688 68.132812 33.539062 68.675781 L 34.371094 69.378906 C 34.570312 69.546875 34.800781 69.625 35.0625 69.617188 L 38.085938 69.472656 L 44.203125 71.867188 C 44.304688 71.90625 44.40625 71.929688 44.515625 71.933594 L 62.828125 72.832031 C 62.367188 73.292969 61.972656 73.808594 61.644531 74.378906 C 61.496094 74.640625 61.425781 74.921875 61.429688 75.226562 C 61.433594 75.527344 61.515625 75.808594 61.675781 76.066406 C 62.699219 77.851562 67.195312 79.257812 72.027344 79.332031 L 72.425781 79.332031 C 75.355469 79.351562 78.277344 79.21875 81.191406 78.925781 C 82.054688 79.714844 84.277344 80.902344 89.863281 80.902344 C 90.601562 80.902344 91.398438 80.878906 92.257812 80.839844 L 96.304688 80.839844 C 97.199219 81.164062 98.121094 81.328125 99.074219 81.332031 L 109.675781 81.332031 L 111.371094 83.03125 C 111.5625 83.222656 111.792969 83.320312 112.066406 83.324219 L 112.558594 83.324219 C 112.707031 83.324219 112.847656 83.296875 112.984375 83.234375 C 113.121094 83.171875 113.238281 83.082031 113.332031 82.96875 C 113.429688 82.855469 113.496094 82.722656 113.53125 82.578125 C 113.570312 82.433594 113.574219 82.289062 113.542969 82.140625 L 113.234375 80.585938 C 113.453125 80.390625 113.5625 80.144531 113.5625 79.851562 L 113.5625 78.367188 C 113.5625 78.082031 113.457031 77.839844 113.246094 77.640625 L 113.542969 76.265625 C 113.546875 76.203125 113.546875 76.144531 113.542969 76.085938 L 114.035156 76.007812 C 114.25 75.972656 114.429688 75.878906 114.582031 75.726562 C 114.730469 75.574219 114.820312 75.390625 114.851562 75.175781 C 114.886719 74.964844 114.851562 74.761719 114.75 74.574219 C 114.652344 74.382812 114.503906 74.238281 114.3125 74.144531 L 99.15625 66.671875 L 113.007812 70.46875 C 113.152344 70.503906 113.296875 70.503906 113.445312 70.46875 L 119.0625 69.449219 C 119.277344 69.410156 119.460938 69.3125 119.609375 69.152344 C 119.757812 68.992188 119.84375 68.804688 119.871094 68.585938 C 119.894531 68.371094 119.851562 68.167969 119.742188 67.976562 C 119.632812 67.789062 119.476562 67.652344 119.273438 67.566406 L 104.984375 61.445312 L 111.832031 47.933594 C 111.910156 47.785156 111.945312 47.625 111.9375 47.460938 C 111.933594 47.292969 111.890625 47.136719 111.808594 46.992188 C 111.726562 46.847656 111.613281 46.734375 111.472656 46.644531 C 111.328125 46.558594 111.175781 46.511719 111.011719 46.5 L 105.464844 46.195312 C 105.199219 46.179688 104.96875 46.257812 104.765625 46.429688 L 99.773438 50.753906 L 99.742188 50.78125 L 99.703125 50.8125 L 93.332031 56.324219 L 90.183594 55.832031 C 89.6875 55.761719 89.253906 55.5625 88.875 55.238281 C 88.496094 54.914062 88.238281 54.511719 88.09375 54.03125 L 82.769531 35.835938 C 82.710938 35.640625 82.605469 35.480469 82.449219 35.351562 C 82.292969 35.222656 82.113281 35.148438 81.914062 35.128906 L 76.457031 34.636719 C 76.214844 34.613281 75.996094 34.671875 75.800781 34.808594 C 75.601562 34.949219 75.472656 35.132812 75.410156 35.367188 L 70.675781 53.410156 L 53.320312 48.652344 C 53.234375 48.628906 53.148438 48.621094 53.0625 48.621094 L 49.117188 48.621094 C 48.863281 48.617188 48.644531 48.703125 48.453125 48.871094 C 48.265625 49.039062 48.160156 49.25 48.132812 49.503906 L 47.746094 53.199219 L 40.960938 51.070312 L 40.882812 51.070312 L 37.878906 50.398438 C 36.726562 49.902344 26.59375 46.035156 18.054688 54.003906 C 17.066406 54.210938 13.617188 54.945312 9.964844 55.980469 C 6.210938 57.066406 2.234375 58.484375 0.476562 60.015625 C 0.375 60.105469 0.292969 60.210938 0.234375 60.335938 C 0.175781 60.457031 0.144531 60.589844 0.140625 60.726562 C 0.136719 60.863281 0.160156 60.992188 0.210938 61.121094 C 0.257812 61.246094 0.332031 61.359375 0.429688 61.457031 C 0.566406 61.59375 2.558594 63.496094 9.167969 65.34375 Z M 71.222656 77.332031 C 66.964844 77.125 64.011719 75.847656 63.445312 75.1875 C 63.792969 74.59375 64.246094 74.097656 64.804688 73.699219 C 65.367188 73.304688 65.984375 73.039062 66.660156 72.910156 C 66.777344 72.894531 66.886719 72.863281 66.992188 72.808594 C 67.410156 72.742188 67.820312 72.652344 68.226562 72.539062 C 68.609375 72.429688 69.074219 72.308594 69.605469 72.175781 C 69.667969 72.285156 69.746094 72.378906 69.84375 72.460938 C 69.84375 72.460938 71.726562 74.042969 71.222656 77.332031 Z M 81.222656 76.929688 C 78.558594 77.210938 75.882812 77.355469 73.203125 77.359375 C 73.363281 76.363281 73.320312 75.375 73.082031 74.398438 C 72.84375 73.417969 72.425781 72.523438 71.828125 71.710938 C 77.5 70.632812 83.132812 70.8125 88.722656 72.25 C 88.773438 72.261719 88.824219 72.269531 88.875 72.273438 L 89.640625 72.492188 L 89.753906 72.492188 L 97.386719 74.4375 C 95.070312 74.652344 92.203125 74.851562 89.277344 74.851562 C 83.859375 74.882812 81.921875 76.070312 81.226562 76.929688 Z M 94.199219 77.996094 L 94.117188 78.0625 C 93.851562 78.257812 93.722656 78.523438 93.722656 78.851562 L 92.183594 78.851562 C 86.699219 79.140625 84.207031 78.402344 83.148438 77.863281 C 83.804688 77.460938 85.425781 76.847656 89.261719 76.847656 C 93.753906 76.808594 98.226562 76.464844 102.671875 75.808594 L 103.164062 75.933594 L 102.738281 76.359375 L 99.078125 76.359375 C 97.273438 76.363281 95.648438 76.910156 94.203125 77.996094 Z M 111.296875 78.984375 C 111.332031 79.03125 111.371094 79.070312 111.414062 79.109375 C 111.375 79.144531 111.335938 79.183594 111.300781 79.226562 C 111.128906 79.441406 111.054688 79.683594 111.085938 79.957031 L 110.777344 79.652344 C 110.585938 79.460938 110.355469 79.363281 110.082031 79.359375 L 99.074219 79.359375 C 98.230469 79.363281 97.421875 79.199219 96.648438 78.867188 C 97.421875 78.535156 98.230469 78.371094 99.074219 78.375 L 103.144531 78.375 C 103.414062 78.371094 103.648438 78.273438 103.839844 78.082031 L 105.382812 76.535156 L 107.292969 77.03125 C 107.375 77.050781 107.453125 77.058594 107.535156 77.058594 L 107.691406 77.058594 L 111.476562 76.445312 L 111.105469 78.191406 C 111.054688 78.480469 111.121094 78.738281 111.300781 78.972656 Z M 36.152344 51.835938 C 35.339844 53.164062 34.226562 54.152344 32.808594 54.796875 C 29.785156 56.253906 25.496094 56.171875 20.359375 54.578125 C 26.710938 49.433594 33.601562 50.984375 36.152344 51.835938 Z M 12.320312 57.375 C 14.609375 56.765625 16.757812 56.269531 18.234375 55.964844 C 21.765625 57.21875 24.929688 57.847656 27.703125 57.847656 C 29.820312 57.890625 31.835938 57.464844 33.753906 56.566406 C 35.65625 55.671875 37.097656 54.296875 38.085938 52.441406 L 40.4375 52.972656 L 47.613281 55.21875 L 47.757812 55.410156 C 47.894531 55.585938 48.042969 55.753906 48.207031 55.90625 C 48.503906 56.167969 48.820312 56.398438 49.164062 56.601562 C 49.789062 56.964844 50.445312 57.261719 51.128906 57.492188 C 52.460938 57.921875 53.820312 58.214844 55.210938 58.378906 C 57.914062 58.683594 60.625 58.785156 63.339844 58.679688 C 64.691406 58.632812 66.042969 58.5625 67.382812 58.429688 L 71.386719 58.003906 C 72.710938 57.859375 74.039062 57.832031 75.367188 57.929688 C 76.699219 58.054688 78.015625 58.28125 79.308594 58.617188 C 78.019531 58.199219 76.707031 57.890625 75.367188 57.6875 C 74.027344 57.503906 72.679688 57.445312 71.324219 57.511719 L 67.308594 57.6875 C 65.976562 57.738281 64.644531 57.726562 63.316406 57.6875 C 60.667969 57.625 58.039062 57.363281 55.429688 56.90625 C 54.160156 56.679688 52.921875 56.332031 51.71875 55.859375 C 51.167969 55.632812 50.640625 55.351562 50.144531 55.019531 C 49.945312 54.886719 49.761719 54.734375 49.589844 54.570312 L 50.003906 50.589844 L 52.9375 50.589844 L 70.679688 55.449219 C 70.765625 55.472656 70.851562 55.484375 70.941406 55.484375 L 71.433594 55.484375 C 71.65625 55.484375 71.859375 55.414062 72.035156 55.277344 C 72.210938 55.140625 72.328125 54.964844 72.386719 54.75 L 72.511719 54.253906 L 77.117188 36.722656 L 81.058594 37.082031 L 86.183594 54.636719 C 86.308594 55.050781 86.484375 55.4375 86.71875 55.804688 C 86.949219 56.167969 87.226562 56.492188 87.554688 56.773438 C 87.878906 57.058594 88.234375 57.292969 88.625 57.476562 C 89.015625 57.65625 89.425781 57.78125 89.851562 57.847656 L 91.457031 58.089844 L 87.023438 62.449219 L 86.96875 62.503906 C 86.917969 62.554688 86.882812 62.617188 86.859375 62.683594 C 86.839844 62.753906 86.835938 62.824219 86.847656 62.894531 C 86.859375 62.964844 86.886719 63.03125 86.933594 63.089844 C 86.976562 63.144531 87.03125 63.1875 87.097656 63.21875 C 87.414062 63.355469 87.742188 63.453125 88.082031 63.511719 C 88.390625 63.570312 88.699219 63.613281 89.007812 63.640625 C 89.621094 63.6875 90.230469 63.6875 90.84375 63.640625 C 91.445312 63.59375 92.042969 63.515625 92.636719 63.40625 L 93.519531 63.226562 L 94.386719 63.007812 L 93.5 63.105469 L 92.613281 63.171875 C 92.023438 63.203125 91.433594 63.203125 90.84375 63.171875 C 90.261719 63.140625 89.6875 63.066406 89.117188 62.941406 C 88.839844 62.882812 88.566406 62.808594 88.300781 62.714844 L 93.828125 58.476562 L 93.929688 58.394531 L 100.941406 52.328125 L 100.972656 52.292969 L 101.011719 52.269531 L 105.703125 48.210938 L 109.339844 48.410156 L 102.695312 61.515625 C 102.632812 61.636719 102.597656 61.765625 102.589844 61.902344 C 102.582031 62.039062 102.601562 62.171875 102.648438 62.300781 C 102.695312 62.429688 102.765625 62.546875 102.859375 62.644531 C 102.953125 62.742188 103.0625 62.820312 103.1875 62.875 L 115.449219 68.113281 L 113.28125 68.507812 L 98.894531 64.558594 C 98.707031 64.503906 98.519531 64.503906 98.335938 64.558594 L 95.871094 65.359375 C 95.679688 65.421875 95.519531 65.53125 95.394531 65.6875 C 95.273438 65.847656 95.203125 66.027344 95.1875 66.226562 C 95.171875 66.429688 95.214844 66.617188 95.316406 66.789062 C 95.414062 66.964844 95.554688 67.097656 95.738281 67.1875 L 110.640625 74.535156 L 107.566406 75.03125 L 105.644531 74.535156 C 105.460938 74.417969 105.257812 74.367188 105.042969 74.382812 L 102.941406 73.847656 L 90.222656 70.605469 L 90.125 70.605469 L 89.347656 70.417969 C 89.304688 70.398438 89.261719 70.378906 89.214844 70.367188 C 88.511719 70.179688 87.816406 70.015625 87.125 69.871094 L 77.101562 67.402344 C 76.023438 67.140625 74.929688 66.859375 73.816406 66.628906 C 72.699219 66.394531 71.59375 66.199219 70.472656 66.039062 C 68.234375 65.71875 65.988281 65.539062 63.726562 65.5 C 62.601562 65.5 61.464844 65.5 60.355469 65.550781 L 57.003906 65.660156 C 54.777344 65.722656 52.527344 65.828125 50.316406 65.851562 C 48.089844 65.828125 45.894531 65.542969 43.734375 65.003906 C 42.65625 64.742188 41.597656 64.386719 40.527344 64.058594 L 37.324219 63.070312 L 40.488281 64.179688 C 41.542969 64.539062 42.59375 64.933594 43.671875 65.238281 C 45.84375 65.863281 48.058594 66.226562 50.316406 66.332031 C 52.566406 66.390625 54.789062 66.367188 57.027344 66.386719 L 60.378906 66.386719 C 61.503906 66.386719 62.597656 66.386719 63.707031 66.460938 C 65.917969 66.574219 68.113281 66.832031 70.289062 67.226562 C 71.378906 67.421875 72.457031 67.652344 73.527344 67.917969 C 74.597656 68.179688 75.65625 68.496094 76.738281 68.800781 L 77.679688 69.066406 C 74.292969 69.191406 70.964844 69.707031 67.699219 70.617188 C 66.800781 70.878906 65.882812 70.984375 64.949219 70.933594 L 44.769531 69.945312 L 38.605469 67.535156 C 38.476562 67.488281 38.339844 67.464844 38.199219 67.472656 L 35.355469 67.609375 L 34.578125 66.9375 C 34.40625 66.792969 34.207031 66.710938 33.980469 66.703125 C 24.023438 66.246094 17 65.179688 12.109375 64.03125 C 12.710938 63.324219 13.117188 62.519531 13.332031 61.613281 C 13.53125 60.867188 13.539062 60.121094 13.359375 59.367188 C 13.179688 58.617188 12.835938 57.953125 12.320312 57.375 Z M 10.105469 57.984375 C 10.691406 58.402344 11.84375 59.464844 11.410156 61.109375 C 10.945312 62.875 9.984375 63.292969 9.609375 63.394531 C 7.242188 62.796875 4.980469 61.921875 2.828125 60.765625 C 4.558594 59.785156 7.304688 58.824219 10.105469 57.984375 Z M 10.105469 57.984375 "/></g></g></svg>
