<svg xmlns="http://www.w3.org/2000/svg" xmlns:xlink="http://www.w3.org/1999/xlink" width="16" zoomAndPan="magnify" viewBox="0 0 120 119.999999" height="16" preserveAspectRatio="xMidYMid meet" version="1.2"><defs><clipPath id="d428e6b9ab"><path d="M 0 34.574219 L 120 34.574219 L 120 83.324219 L 0 83.324219 Z M 0 34.574219 "/></clipPath></defs><g id="d241f8a98e"><g clip-rule="nonzero" clip-path="url(#d428e6b9ab)"><path style=" stroke:none;fill-rule:nonzero;fill:#ffffff;fill-opacity:1;" d="M 9.167969 65.277344 C 9.226562 65.300781 9.289062 65.316406 9.347656 65.328125 C 14.386719 66.710938 22.054688 68.0625 33.539062 68.605469 L 34.371094 69.304688 C 34.570312 69.472656 34.800781 69.550781 35.0625 69.539062 L 38.085938 69.398438 L 44.203125 71.789062 C 44.304688 71.824219 44.40625 71.847656 44.515625 71.851562 L 62.828125 72.75 C 62.367188 73.210938 61.972656 73.726562 61.644531 74.292969 C 61.496094 74.554688 61.425781 74.835938 61.429688 75.136719 C 61.433594 75.441406 61.515625 75.71875 61.675781 75.976562 C 62.699219 77.757812 67.195312 79.160156 72.027344 79.234375 L 72.425781 79.234375 C 75.355469 79.253906 78.277344 79.121094 81.191406 78.832031 C 82.054688 79.617188 84.277344 80.800781 89.863281 80.800781 C 90.601562 80.800781 91.398438 80.78125 92.257812 80.738281 L 96.304688 80.738281 C 97.199219 81.0625 98.121094 81.230469 99.074219 81.230469 L 109.675781 81.230469 L 111.371094 82.925781 C 111.5625 83.117188 111.792969 83.214844 112.066406 83.21875 L 112.558594 83.21875 C 112.707031 83.21875 112.847656 83.191406 112.984375 83.128906 C 113.121094 83.066406 113.238281 82.976562 113.332031 82.863281 C 113.429688 82.75 113.496094 82.621094 113.53125 82.476562 C 113.570312 82.332031 113.574219 82.183594 113.542969 82.039062 L 113.234375 80.488281 C 113.453125 80.289062 113.5625 80.046875 113.5625 79.753906 L 113.5625 78.273438 C 113.5625 77.984375 113.457031 77.746094 113.246094 77.550781 L 113.542969 76.175781 C 113.546875 76.113281 113.546875 76.054688 113.542969 75.996094 L 114.035156 75.917969 C 114.25 75.882812 114.429688 75.789062 114.582031 75.636719 C 114.730469 75.484375 114.820312 75.300781 114.851562 75.089844 C 114.886719 74.878906 114.851562 74.675781 114.75 74.488281 C 114.652344 74.296875 114.503906 74.152344 114.3125 74.058594 L 99.15625 66.601562 L 113.007812 70.394531 C 113.152344 70.425781 113.296875 70.425781 113.445312 70.394531 L 119.0625 69.371094 C 119.277344 69.335938 119.460938 69.234375 119.609375 69.078125 C 119.757812 68.917969 119.84375 68.730469 119.871094 68.511719 C 119.894531 68.296875 119.851562 68.09375 119.742188 67.90625 C 119.632812 67.71875 119.476562 67.582031 119.273438 67.496094 L 104.984375 61.386719 L 111.832031 47.902344 C 111.910156 47.753906 111.945312 47.597656 111.9375 47.433594 C 111.933594 47.265625 111.890625 47.109375 111.808594 46.96875 C 111.726562 46.824219 111.613281 46.707031 111.472656 46.621094 C 111.328125 46.53125 111.175781 46.484375 111.011719 46.476562 L 105.464844 46.167969 C 105.199219 46.152344 104.96875 46.234375 104.765625 46.40625 L 99.773438 50.71875 L 99.742188 50.746094 L 99.703125 50.777344 L 93.332031 56.277344 L 90.183594 55.785156 C 89.6875 55.714844 89.253906 55.515625 88.875 55.191406 C 88.496094 54.867188 88.238281 54.46875 88.09375 53.992188 L 82.769531 35.835938 C 82.710938 35.640625 82.605469 35.476562 82.449219 35.347656 C 82.292969 35.222656 82.113281 35.148438 81.914062 35.128906 L 76.457031 34.636719 C 76.214844 34.613281 75.996094 34.671875 75.800781 34.808594 C 75.601562 34.949219 75.472656 35.132812 75.410156 35.367188 L 70.675781 53.371094 L 53.320312 48.625 C 53.234375 48.601562 53.148438 48.589844 53.0625 48.589844 L 49.117188 48.589844 C 48.863281 48.585938 48.644531 48.671875 48.453125 48.839844 C 48.265625 49.007812 48.160156 49.21875 48.132812 49.472656 L 47.746094 53.15625 L 40.960938 51.035156 L 40.882812 51.035156 L 37.878906 50.363281 C 36.726562 49.871094 26.59375 46.011719 18.054688 53.960938 C 17.066406 54.167969 13.617188 54.902344 9.964844 55.933594 C 6.210938 57.015625 2.234375 58.429688 0.476562 59.960938 C 0.375 60.050781 0.292969 60.15625 0.234375 60.277344 C 0.175781 60.402344 0.144531 60.53125 0.140625 60.667969 C 0.136719 60.804688 0.160156 60.9375 0.210938 61.0625 C 0.257812 61.191406 0.332031 61.300781 0.429688 61.398438 C 0.566406 61.535156 2.558594 63.433594 9.167969 65.277344 Z M 71.222656 77.238281 C 66.964844 77.03125 64.011719 75.761719 63.445312 75.101562 C 63.792969 74.507812 64.246094 74.011719 64.804688 73.617188 C 65.367188 73.21875 65.984375 72.957031 66.660156 72.828125 C 66.777344 72.8125 66.886719 72.777344 66.992188 72.722656 C 67.410156 72.660156 67.820312 72.570312 68.226562 72.457031 C 68.609375 72.347656 69.074219 72.226562 69.605469 72.09375 C 69.667969 72.203125 69.746094 72.300781 69.84375 72.378906 C 69.84375 72.378906 71.726562 73.957031 71.222656 77.238281 Z M 81.222656 76.839844 C 78.558594 77.121094 75.882812 77.261719 73.203125 77.269531 C 73.363281 76.273438 73.320312 75.289062 73.082031 74.3125 C 72.84375 73.332031 72.425781 72.441406 71.828125 71.628906 C 77.5 70.558594 83.132812 70.734375 88.722656 72.167969 C 88.773438 72.179688 88.824219 72.1875 88.875 72.191406 L 89.640625 72.410156 L 89.753906 72.410156 L 97.386719 74.351562 C 95.070312 74.566406 92.203125 74.765625 89.277344 74.765625 C 83.859375 74.792969 81.921875 75.980469 81.226562 76.839844 Z M 94.199219 77.902344 L 94.117188 77.96875 C 93.851562 78.164062 93.722656 78.429688 93.722656 78.757812 L 92.183594 78.757812 C 86.699219 79.042969 84.207031 78.308594 83.148438 77.769531 C 83.804688 77.367188 85.425781 76.753906 89.261719 76.753906 C 93.753906 76.71875 98.226562 76.375 102.671875 75.71875 L 103.164062 75.84375 L 102.738281 76.269531 L 99.078125 76.269531 C 97.273438 76.273438 95.648438 76.820312 94.203125 77.902344 Z M 111.296875 78.890625 C 111.332031 78.933594 111.371094 78.976562 111.414062 79.011719 C 111.375 79.050781 111.335938 79.089844 111.300781 79.132812 C 111.128906 79.34375 111.054688 79.585938 111.085938 79.859375 L 110.777344 79.554688 C 110.585938 79.363281 110.355469 79.265625 110.082031 79.265625 L 99.074219 79.265625 C 98.230469 79.265625 97.421875 79.101562 96.648438 78.769531 C 97.421875 78.441406 98.230469 78.277344 99.074219 78.277344 L 103.144531 78.277344 C 103.414062 78.277344 103.648438 78.179688 103.839844 77.988281 L 105.382812 76.445312 L 107.292969 76.9375 C 107.375 76.957031 107.453125 76.96875 107.535156 76.96875 L 107.691406 76.96875 L 111.476562 76.355469 L 111.105469 78.097656 C 111.054688 78.386719 111.121094 78.644531 111.300781 78.875 Z M 36.152344 51.796875 C 35.339844 53.125 34.226562 54.109375 32.808594 54.753906 C 29.785156 56.207031 25.496094 56.125 20.359375 54.53125 C 26.710938 49.402344 33.601562 50.949219 36.152344 51.796875 Z M 12.320312 57.328125 C 14.609375 56.714844 16.757812 56.222656 18.234375 55.917969 C 21.765625 57.167969 24.929688 57.796875 27.703125 57.796875 C 29.820312 57.839844 31.835938 57.414062 33.753906 56.519531 C 35.65625 55.628906 37.097656 54.253906 38.085938 52.402344 L 40.4375 52.929688 L 47.613281 55.171875 L 47.757812 55.367188 C 47.894531 55.542969 48.042969 55.707031 48.207031 55.859375 C 48.503906 56.121094 48.820312 56.351562 49.164062 56.554688 C 49.789062 56.914062 50.445312 57.210938 51.128906 57.441406 C 52.460938 57.871094 53.820312 58.164062 55.210938 58.328125 C 57.914062 58.632812 60.625 58.734375 63.339844 58.628906 C 64.691406 58.578125 66.042969 58.511719 67.382812 58.378906 L 71.386719 57.953125 C 72.710938 57.808594 74.039062 57.78125 75.367188 57.878906 C 76.699219 58.003906 78.015625 58.230469 79.308594 58.566406 C 78.019531 58.148438 76.707031 57.839844 75.367188 57.636719 C 74.027344 57.457031 72.679688 57.398438 71.324219 57.460938 L 67.308594 57.636719 C 65.976562 57.6875 64.644531 57.675781 63.316406 57.636719 C 60.667969 57.574219 58.039062 57.316406 55.429688 56.859375 C 54.160156 56.632812 52.921875 56.28125 51.71875 55.8125 C 51.167969 55.585938 50.640625 55.308594 50.144531 54.976562 C 49.945312 54.839844 49.761719 54.691406 49.589844 54.527344 L 50.003906 50.554688 L 52.9375 50.554688 L 70.679688 55.40625 C 70.765625 55.429688 70.851562 55.441406 70.941406 55.441406 L 71.433594 55.441406 C 71.65625 55.4375 71.859375 55.371094 72.035156 55.234375 C 72.210938 55.097656 72.328125 54.921875 72.386719 54.707031 L 72.511719 54.210938 L 77.117188 36.714844 L 81.058594 37.074219 L 86.183594 54.59375 C 86.308594 55.003906 86.484375 55.394531 86.71875 55.757812 C 86.949219 56.121094 87.226562 56.445312 87.554688 56.726562 C 87.878906 57.011719 88.234375 57.242188 88.625 57.425781 C 89.015625 57.605469 89.425781 57.730469 89.851562 57.796875 L 91.457031 58.039062 L 87.023438 62.390625 L 86.96875 62.441406 C 86.917969 62.496094 86.882812 62.554688 86.859375 62.625 C 86.839844 62.691406 86.835938 62.761719 86.847656 62.832031 C 86.859375 62.90625 86.886719 62.96875 86.933594 63.027344 C 86.976562 63.082031 87.03125 63.128906 87.097656 63.15625 C 87.414062 63.296875 87.742188 63.390625 88.082031 63.449219 C 88.390625 63.507812 88.699219 63.550781 89.007812 63.578125 C 89.621094 63.625 90.230469 63.625 90.84375 63.578125 C 91.445312 63.53125 92.042969 63.453125 92.636719 63.34375 L 93.519531 63.164062 L 94.386719 62.945312 L 93.5 63.042969 L 92.613281 63.109375 C 92.023438 63.140625 91.433594 63.140625 90.84375 63.109375 C 90.261719 63.078125 89.6875 63.003906 89.117188 62.882812 C 88.839844 62.820312 88.566406 62.746094 88.300781 62.65625 L 93.828125 58.425781 L 93.929688 58.34375 L 100.941406 52.289062 L 100.972656 52.257812 L 101.011719 52.230469 L 105.703125 48.179688 L 109.339844 48.382812 L 102.695312 61.457031 C 102.632812 61.578125 102.597656 61.707031 102.589844 61.84375 C 102.582031 61.980469 102.601562 62.113281 102.648438 62.242188 C 102.695312 62.371094 102.765625 62.484375 102.859375 62.582031 C 102.953125 62.683594 103.0625 62.757812 103.1875 62.8125 L 115.449219 68.042969 L 113.28125 68.4375 L 98.894531 64.492188 C 98.707031 64.4375 98.519531 64.4375 98.335938 64.492188 L 95.871094 65.292969 C 95.679688 65.351562 95.519531 65.464844 95.394531 65.621094 C 95.273438 65.777344 95.203125 65.957031 95.1875 66.160156 C 95.171875 66.359375 95.214844 66.546875 95.316406 66.722656 C 95.414062 66.894531 95.554688 67.027344 95.738281 67.117188 L 110.640625 74.449219 L 107.566406 74.941406 L 105.644531 74.449219 C 105.460938 74.332031 105.257812 74.28125 105.042969 74.296875 L 102.941406 73.765625 L 90.222656 70.527344 L 90.125 70.527344 L 89.347656 70.339844 C 89.304688 70.320312 89.261719 70.300781 89.214844 70.289062 C 88.511719 70.101562 87.816406 69.941406 87.125 69.796875 L 77.101562 67.332031 C 76.023438 67.070312 74.929688 66.789062 73.816406 66.558594 C 72.699219 66.328125 71.59375 66.128906 70.472656 65.972656 C 68.234375 65.652344 65.988281 65.472656 63.726562 65.433594 C 62.601562 65.433594 61.464844 65.433594 60.355469 65.484375 L 57.003906 65.59375 C 54.777344 65.65625 52.527344 65.761719 50.316406 65.785156 C 48.089844 65.757812 45.894531 65.476562 43.734375 64.9375 C 42.65625 64.675781 41.597656 64.320312 40.527344 63.996094 L 37.324219 63.011719 L 40.488281 64.113281 C 41.542969 64.472656 42.59375 64.867188 43.671875 65.171875 C 45.84375 65.796875 48.058594 66.160156 50.316406 66.261719 C 52.566406 66.320312 54.789062 66.296875 57.027344 66.316406 L 60.378906 66.316406 C 61.503906 66.316406 62.597656 66.316406 63.707031 66.390625 C 65.917969 66.507812 68.113281 66.761719 70.289062 67.15625 C 71.378906 67.351562 72.457031 67.582031 73.527344 67.84375 C 74.597656 68.105469 75.65625 68.421875 76.738281 68.726562 L 77.679688 68.992188 C 74.292969 69.117188 70.964844 69.632812 67.699219 70.539062 C 66.800781 70.796875 65.882812 70.902344 64.949219 70.855469 L 44.769531 69.871094 L 38.605469 67.464844 C 38.476562 67.417969 38.339844 67.394531 38.199219 67.402344 L 35.355469 67.539062 L 34.578125 66.867188 C 34.40625 66.722656 34.207031 66.644531 33.980469 66.632812 C 24.023438 66.179688 17 65.113281 12.109375 63.964844 C 12.710938 63.261719 13.117188 62.457031 13.332031 61.554688 C 13.53125 60.8125 13.539062 60.0625 13.359375 59.3125 C 13.179688 58.5625 12.835938 57.902344 12.320312 57.328125 Z M 10.105469 57.933594 C 10.691406 58.351562 11.84375 59.414062 11.410156 61.054688 C 10.945312 62.8125 9.984375 63.230469 9.609375 63.332031 C 7.242188 62.738281 4.980469 61.863281 2.828125 60.707031 C 4.558594 59.734375 7.304688 58.769531 10.105469 57.933594 Z M 10.105469 57.933594 "/></g></g></svg>
