<svg xmlns="http://www.w3.org/2000/svg" xmlns:xlink="http://www.w3.org/1999/xlink" width="16" zoomAndPan="magnify" viewBox="0 0 810 809.999993" height="16" preserveAspectRatio="xMidYMid meet" version="1.2"><defs><clipPath id="2945aa436e"><path d="M 1 116 L 669 116 L 669 293 L 1 293 Z M 1 116 "/></clipPath><clipPath id="c9d4159f84"><path d="M -13.378906 126.988281 L 655.449219 47.816406 L 679.167969 248.167969 L 10.335938 327.339844 Z M -13.378906 126.988281 "/></clipPath><clipPath id="1255d23a63"><path d="M -13.378906 126.988281 L 655.449219 47.816406 L 679.167969 248.167969 L 10.335938 327.339844 Z M -13.378906 126.988281 "/></clipPath><clipPath id="1d49f9277c"><path d="M 472 266 L 735 266 L 735 403 L 472 403 Z M 472 266 "/></clipPath><clipPath id="8e87f045f9"><path d="M 456.730469 356.429688 L 716.921875 259.953125 L 745.863281 338.011719 L 485.671875 434.484375 Z M 456.730469 356.429688 "/></clipPath><clipPath id="d7e7cd1cef"><path d="M 716.777344 260.007812 L 456.585938 356.480469 L 485.527344 434.539062 L 745.71875 338.066406 Z M 716.777344 260.007812 "/></clipPath><clipPath id="052a13a710"><path d="M 158 331 L 197 331 L 197 381 L 158 381 Z M 158 331 "/></clipPath><clipPath id="07855d17df"><path d="M 393.296875 402.550781 L 276.070312 607.664062 L 70.957031 490.433594 L 188.183594 285.320312 Z M 393.296875 402.550781 "/></clipPath><clipPath id="8eade5d15e"><path d="M 393.296875 402.550781 L 276.070312 607.664062 L 70.957031 490.433594 L 188.183594 285.320312 Z M 393.296875 402.550781 "/></clipPath><clipPath id="84959676d7"><path d="M 216 313 L 251 313 L 251 370 L 216 370 Z M 216 313 "/></clipPath><clipPath id="9f1d8dc55c"><path d="M 393.296875 402.550781 L 276.070312 607.664062 L 70.957031 490.433594 L 188.183594 285.320312 Z M 393.296875 402.550781 "/></clipPath><clipPath id="368e8be6dd"><path d="M 393.296875 402.550781 L 276.070312 607.664062 L 70.957031 490.433594 L 188.183594 285.320312 Z M 393.296875 402.550781 "/></clipPath><clipPath id="0061cee6a3"><path d="M 194 333 L 275 333 L 275 531 L 194 531 Z M 194 333 "/></clipPath><clipPath id="7d4dbc28dc"><path d="M 393.296875 402.550781 L 276.070312 607.664062 L 70.957031 490.433594 L 188.183594 285.320312 Z M 393.296875 402.550781 "/></clipPath><clipPath id="bf93f02774"><path d="M 393.296875 402.550781 L 276.070312 607.664062 L 70.957031 490.433594 L 188.183594 285.320312 Z M 393.296875 402.550781 "/></clipPath><clipPath id="4f0f280e6b"><path d="M 235 528 L 280 528 L 280 602 L 235 602 Z M 235 528 "/></clipPath><clipPath id="220e0f031c"><path d="M 393.296875 402.550781 L 276.070312 607.664062 L 70.957031 490.433594 L 188.183594 285.320312 Z M 393.296875 402.550781 "/></clipPath><clipPath id="ec7bed7684"><path d="M 393.296875 402.550781 L 276.070312 607.664062 L 70.957031 490.433594 L 188.183594 285.320312 Z M 393.296875 402.550781 "/></clipPath><clipPath id="40be9f7a1e"><path d="M 466 492 L 490 492 L 490 530 L 466 530 Z M 466 492 "/></clipPath><clipPath id="13fed5341c"><path d="M 578.492188 617.664062 L 437.050781 685.230469 L 369.484375 543.792969 L 510.925781 476.222656 Z M 578.492188 617.664062 "/></clipPath><clipPath id="40fc4809d5"><path d="M 578.492188 617.664062 L 437.050781 685.230469 L 369.484375 543.792969 L 510.925781 476.222656 Z M 578.492188 617.664062 "/></clipPath><clipPath id="6f8da03c99"><path d="M 501 507 L 528 507 L 528 540 L 501 540 Z M 501 507 "/></clipPath><clipPath id="0099558d26"><path d="M 578.492188 617.664062 L 437.050781 685.230469 L 369.484375 543.792969 L 510.925781 476.222656 Z M 578.492188 617.664062 "/></clipPath><clipPath id="f1a285f54b"><path d="M 578.492188 617.664062 L 437.050781 685.230469 L 369.484375 543.792969 L 510.925781 476.222656 Z M 578.492188 617.664062 "/></clipPath><clipPath id="bc85f10d6c"><path d="M 442 507 L 504 507 L 504 637 L 442 637 Z M 442 507 "/></clipPath><clipPath id="5da03a4141"><path d="M 578.492188 617.664062 L 437.050781 685.230469 L 369.484375 543.792969 L 510.925781 476.222656 Z M 578.492188 617.664062 "/></clipPath><clipPath id="6f7ab78334"><path d="M 578.492188 617.664062 L 437.050781 685.230469 L 369.484375 543.792969 L 510.925781 476.222656 Z M 578.492188 617.664062 "/></clipPath><clipPath id="17cdde3dde"><path d="M 435 632 L 468 632 L 468 682 L 435 682 Z M 435 632 "/></clipPath><clipPath id="dfb77609e3"><path d="M 578.492188 617.664062 L 437.050781 685.230469 L 369.484375 543.792969 L 510.925781 476.222656 Z M 578.492188 617.664062 "/></clipPath><clipPath id="46e0d0e670"><path d="M 578.492188 617.664062 L 437.050781 685.230469 L 369.484375 543.792969 L 510.925781 476.222656 Z M 578.492188 617.664062 "/></clipPath><clipPath id="cd7762c639"><path d="M 312 324 L 809 324 L 809 480 L 312 480 Z M 312 324 "/></clipPath><clipPath id="f60f4f9973"><path d="M 332.957031 252.4375 L 833.714844 385.953125 L 793.714844 535.964844 L 292.960938 402.445312 Z M 332.957031 252.4375 "/></clipPath><clipPath id="6bd6edb79c"><path d="M 834.0625 386.046875 L 333.308594 252.527344 L 293.3125 402.539062 L 794.066406 536.058594 Z M 834.0625 386.046875 "/></clipPath></defs><g id="eff6b1d505"><g clip-rule="nonzero" clip-path="url(#2945aa436e)"><g clip-rule="nonzero" clip-path="url(#c9d4159f84)"><g clip-rule="nonzero" clip-path="url(#1255d23a63)"><path style=" stroke:none;fill-rule:nonzero;fill:#ffffff;fill-opacity:1;" d="M 135.332031 256.667969 C 121.5625 256.601562 108.765625 255.421875 96.199219 252.078125 C 94.738281 251.683594 93.070312 251.808594 91.542969 252.003906 C 81.203125 253.242188 70.894531 253.867188 60.671875 251.179688 C 58.691406 250.65625 56.4375 250.121094 55.003906 248.820312 C 52.167969 246.269531 49.171875 246.488281 45.839844 246.914062 C 32.398438 248.609375 18.925781 250.203125 5.472656 251.8125 C 4.417969 251.9375 3.347656 251.957031 1.863281 251.242188 C 2.5625 250.742188 3.191406 250 3.96875 249.773438 C 14.265625 246.800781 24.570312 243.898438 34.875 240.984375 C 39.441406 239.683594 44.015625 238.414062 48.578125 237.085938 C 49.140625 236.929688 49.761719 236.621094 50.109375 236.191406 C 56.566406 228.316406 65.875 226.054688 75.082031 224.667969 C 86.625 222.929688 98.40625 222.902344 110 221.457031 C 116.3125 220.664062 122.53125 218.726562 128.671875 216.867188 C 163.394531 206.347656 198.066406 195.609375 232.792969 185.117188 C 261.238281 176.53125 289.726562 168.042969 318.265625 159.742188 C 346.328125 151.585938 374.363281 143.316406 402.613281 135.835938 C 424.042969 130.160156 445.664062 125.074219 467.417969 120.863281 C 477.480469 118.914062 488.109375 118.859375 498.394531 119.441406 C 511.648438 120.195312 523.355469 126.46875 534.785156 132.804688 C 538.722656 134.984375 542.183594 138.054688 546.1875 140.035156 C 548.746094 141.292969 551.933594 141.660156 554.871094 141.804688 C 580.242188 143.128906 605.523438 145.546875 629.503906 154.371094 C 640.265625 158.332031 650.902344 158.082031 661.8125 157.90625 C 663.03125 157.882812 664.257812 157.796875 665.464844 157.789062 C 666.296875 157.792969 667.128906 157.902344 668.03125 158.464844 C 661.101562 159.835938 654.117188 160.976562 647.273438 162.664062 C 642.84375 163.753906 638.3125 165.105469 634.339844 167.273438 C 613.839844 178.429688 592.125 186.117188 569.363281 190.996094 C 567.457031 191.398438 565.566406 191.90625 563.191406 192.484375 C 563.554688 195.535156 563.917969 198.601562 564.292969 201.769531 C 561.515625 202.097656 559.238281 202.367188 556.582031 202.683594 C 556.257812 199.9375 555.933594 197.226562 555.546875 193.941406 C 543.574219 196.101562 532.007812 198.183594 520.125 200.335938 C 520.242188 202.222656 520.351562 204.011719 520.46875 206.003906 C 518.835938 206.199219 517.339844 206.375 515.695312 206.570312 C 515.332031 204.886719 514.988281 203.261719 514.601562 201.480469 C 510.203125 202.207031 506.039062 202.910156 501.410156 203.679688 C 501.9375 208.125 502.445312 212.40625 502.980469 216.953125 C 497.824219 217.5625 493.140625 218.117188 487.953125 218.734375 C 487.5 214.875 487.03125 210.929688 486.507812 206.515625 C 482.644531 207.597656 478.914062 206.269531 476.128906 210.167969 C 475.132812 211.566406 471.570312 211.167969 469.152344 211.5 C 463.4375 212.308594 460.734375 215.128906 459.628906 220.910156 C 459.09375 223.679688 459.796875 225.21875 462.480469 226.253906 C 466.304688 227.734375 469.988281 229.53125 474.34375 231.46875 C 470.441406 235.738281 465.320312 233.996094 461.3125 235.882812 C 460.984375 239.28125 462.121094 241.214844 465.769531 242.3125 C 472.597656 244.375 476.714844 251.371094 475.851562 258.285156 C 474.921875 265.667969 468.683594 271.730469 461.511719 272.160156 C 454.191406 272.613281 447.398438 267.808594 445.484375 260.835938 C 443.589844 253.894531 446.726562 246.277344 452.859375 242.980469 C 453.601562 242.578125 454.339844 242.164062 455.136719 241.726562 C 454.964844 240.277344 454.796875 238.855469 454.597656 237.152344 C 452.304688 237.421875 450.175781 237.675781 447.148438 238.035156 C 448.207031 236.910156 448.683594 236.410156 449.347656 235.722656 C 445.007812 229.871094 440.707031 223.878906 436.152344 218.097656 C 435.328125 217.050781 433.289062 216.175781 431.984375 216.375 C 421.738281 218.019531 411.558594 219.96875 401.347656 221.785156 C 395.148438 222.890625 392.28125 224.214844 386.785156 228.863281 C 400.695312 229.121094 414.261719 229.09375 427.378906 232.699219 C 427.53125 233.097656 427.679688 233.480469 427.832031 233.878906 C 426.476562 235.128906 425.242188 236.539062 423.753906 237.574219 C 412.605469 245.410156 400.21875 250.742188 387.433594 255.230469 C 370.902344 261.023438 353.753906 264.257812 336.523438 267.058594 C 329.070312 268.265625 321.519531 268.894531 314.421875 269.734375 C 309.617188 286.394531 302.753906 292.828125 291.003906 292.464844 C 280.972656 292.148438 273.675781 284.847656 270.832031 272.15625 C 263.59375 271.019531 255.957031 271.316406 248.292969 267.460938 C 256.734375 259.519531 266.761719 255.890625 276.171875 251.105469 C 271.148438 251.699219 266.140625 252.292969 260.984375 252.902344 C 260.570312 251.910156 260.171875 250.929688 259.695312 249.8125 C 246.992188 253.964844 234.414062 258.054688 221.679688 262.210938 C 221.285156 261.273438 220.957031 260.527344 220.542969 259.546875 C 215.421875 260.691406 213.671875 267.8125 207.289062 266.976562 C 208.691406 264.609375 210.035156 262.367188 211.386719 260.066406 C 205.550781 258.09375 184.070312 256.308594 178.15625 257.308594 C 178.238281 259.261719 178.324219 261.246094 178.4375 263.699219 C 164.628906 265.335938 150.984375 266.949219 136.765625 268.632812 C 136.304688 264.863281 135.828125 260.832031 135.332031 256.667969 Z M 354.769531 206.300781 C 353.824219 206.113281 352.882812 205.824219 351.921875 205.757812 C 348.890625 205.566406 345.839844 205.335938 342.800781 205.351562 C 320.699219 205.46875 299.160156 209.746094 277.636719 214.152344 C 270.480469 215.609375 263.320312 217.007812 256.132812 218.332031 C 251.222656 219.242188 246.289062 219.988281 241.367188 220.792969 C 241.414062 221.058594 241.445312 221.335938 241.492188 221.597656 C 253.042969 221.035156 264.578125 220.457031 276.128906 219.890625 C 257.414062 224.992188 238.582031 229.363281 219.746094 233.808594 C 207.417969 236.726562 195.085938 239.644531 182.808594 242.761719 C 180.4375 243.371094 178.296875 244.902344 176.042969 246.003906 C 236.019531 234.128906 295.84375 222.613281 354.769531 206.300781 Z M 451.664062 127.933594 C 460.09375 142.773438 474.230469 145.460938 489.585938 146.453125 C 492.222656 138.777344 494.894531 131.027344 497.6875 122.917969 C 481.851562 122.25 466.660156 124.269531 451.664062 127.933594 Z M 496.136719 147.058594 C 510.597656 146.894531 524.21875 146.203125 536.878906 138.28125 C 526.085938 131.289062 514.960938 126.882812 503.023438 123.683594 C 500.714844 131.496094 498.539062 138.910156 496.136719 147.058594 Z M 275.671875 185.710938 C 275.753906 186.042969 275.855469 186.371094 275.941406 186.71875 C 313.976562 177.25 352.402344 169.933594 390.78125 165.75 C 390.171875 168.035156 388.972656 170.230469 389.160156 172.304688 C 389.925781 181.40625 391.058594 190.476562 392.132812 199.558594 C 392.78125 205.027344 396.457031 208.148438 401.714844 207.898438 C 408.613281 207.554688 412.351562 204.390625 412.191406 198.386719 C 411.972656 190.113281 411.21875 181.859375 410.921875 173.582031 C 410.644531 165.703125 408.453125 163.671875 400.601562 164.390625 C 397.84375 164.644531 395.050781 164.8125 392.289062 164.75 C 388.910156 164.675781 385.476562 163.714844 382.191406 164.148438 C 350.964844 168.246094 319.96875 173.507812 289.46875 181.472656 C 284.816406 182.679688 280.269531 184.289062 275.671875 185.710938 Z M 288.8125 190.164062 C 288.71875 189.59375 288.601562 189.011719 288.507812 188.445312 C 283.835938 188.996094 279.101562 189.273438 274.484375 190.164062 C 261.421875 192.660156 248.328125 195.058594 235.394531 198.136719 C 212.257812 203.628906 189.226562 209.519531 166.175781 215.359375 C 162.996094 216.164062 159.960938 217.59375 156.863281 218.734375 C 157.007812 219.195312 157.152344 219.652344 157.296875 220.113281 C 201.140625 210.117188 244.984375 200.140625 288.8125 190.164062 Z M 454.203125 235.964844 C 454.363281 229 453.753906 227.375 447.335938 219.226562 C 443.003906 213.71875 444.890625 213.925781 436.574219 215.890625 C 441.242188 222.210938 445.765625 228.472656 450.496094 234.589844 C 451.109375 235.378906 452.695312 235.429688 454.203125 235.964844 Z M 187.773438 222.898438 C 200.113281 225.738281 212.453125 228.558594 224.808594 231.394531 C 224.921875 230.863281 225.039062 230.34375 225.15625 229.808594 C 213.105469 225.640625 201.015625 221.660156 187.773438 222.898438 Z M 151.996094 260.40625 C 151.238281 261.164062 150.691406 261.703125 150.144531 262.257812 C 156.664062 261.21875 163.171875 261.074219 168.886719 258.019531 C 161.269531 258.355469 153.671875 258.691406 146.054688 259.027344 C 146.054688 259.144531 146.039062 259.28125 146.039062 259.398438 C 147.925781 259.726562 149.808594 260.039062 151.996094 260.40625 Z M 445.09375 213.871094 C 447.765625 217.4375 449.996094 220.414062 452.683594 223.992188 C 452.179688 219.753906 451.785156 216.425781 451.394531 213.125 C 449.339844 213.367188 447.664062 213.566406 445.09375 213.871094 Z M 470.980469 232.742188 C 471.105469 232.417969 471.214844 232.089844 471.339844 231.75 C 467.8125 230.261719 464.285156 228.777344 460.539062 227.199219 C 459.757812 232.675781 464.65625 228.511719 465.738281 230.867188 C 463.980469 231.492188 462.320312 232.074219 460.664062 232.65625 C 460.800781 233.070312 460.941406 233.488281 461.078125 233.902344 C 464.371094 233.527344 467.675781 233.136719 470.980469 232.742188 Z M 361.382812 236.617188 C 353.191406 238.386719 345.246094 240.101562 336.546875 241.980469 C 345.390625 240.933594 353.453125 239.976562 361.664062 239.007812 C 361.535156 237.890625 361.421875 236.953125 361.382812 236.617188 Z M 402.253906 141.621094 C 402.191406 141.226562 402.132812 140.847656 402.070312 140.453125 C 401.078125 140.125 400.007812 139.371094 399.136719 139.578125 C 398.210938 139.808594 397.476562 140.90625 396.667969 141.625 C 397.546875 142.238281 398.457031 143.378906 399.300781 143.339844 C 400.320312 143.292969 401.285156 142.242188 402.253906 141.621094 Z M 42.917969 136.027344 C 40.269531 136.550781 37.65625 137.128906 35.027344 137.574219 C 30.703125 138.308594 26.46875 138.390625 23.042969 134.988281 C 18.945312 130.953125 19.910156 126.273438 25.394531 124.777344 C 30.90625 123.277344 36.53125 121.984375 42.183594 121.167969 C 54.355469 119.402344 66.542969 117.570312 78.777344 116.597656 C 85.84375 116.03125 92.371094 118.960938 98.03125 123.363281 C 98.820312 123.984375 99.9375 125.367188 99.722656 125.824219 C 99.28125 126.738281 98.113281 127.5625 97.078125 127.890625 C 95.152344 128.476562 93.09375 128.691406 90.207031 129.242188 C 95.4375 132.917969 100.042969 136.195312 104.699219 139.410156 C 116.441406 147.507812 128.359375 155.347656 139.925781 163.703125 C 155.429688 174.914062 173.027344 180 191.679688 181.804688 C 200.613281 182.667969 209.660156 182.339844 218.664062 182.523438 C 220.351562 182.5625 222.03125 182.511719 223.777344 183.0625 C 212.320312 186.695312 200.804688 190.183594 189.417969 194.015625 C 167.515625 201.382812 145.476562 208.46875 123.921875 216.746094 C 117.382812 219.261719 111.40625 218.109375 105.167969 218.503906 C 99.34375 218.867188 93.464844 219.042969 87.691406 219.84375 C 84.894531 220.234375 83.5625 219.679688 82.375 217.203125 C 69.746094 191.0625 57.035156 164.964844 44.355469 138.863281 C 43.9375 137.976562 43.496094 137.136719 42.917969 136.027344 Z M 119.519531 183.59375 C 115.011719 184.128906 110.617188 184.648438 105.875 185.210938 C 107.835938 178.496094 109.695312 172.058594 111.570312 165.632812 C 112.695312 167.953125 112.941406 170.183594 113.222656 172.429688 C 113.832031 177.324219 113.832031 177.324219 116.515625 177.214844 C 115.851562 171.597656 115.1875 165.992188 114.523438 160.375 C 109.800781 161.261719 109.816406 161.261719 108.613281 165.566406 C 106.933594 171.519531 105.117188 177.433594 103.5625 183.417969 C 102.515625 187.40625 105.070312 190.242188 106.644531 193.359375 C 106.933594 193.265625 107.21875 193.171875 107.507812 193.09375 C 107.253906 191.589844 106.988281 190.105469 106.726562 188.5 C 111.148438 187.738281 115.425781 186.996094 119.816406 186.238281 C 120.148438 189.039062 120.453125 191.605469 120.773438 194.304688 C 118.523438 194.792969 116.53125 195.207031 114.554688 195.636719 C 114.90625 198.730469 118.792969 198.957031 124.078125 196.320312 C 123.296875 189.707031 122.511719 183.078125 121.730469 176.460938 C 119.277344 176.632812 119.277344 176.632812 119.519531 183.59375 Z M 97.761719 148.898438 C 91.738281 150.089844 85.972656 151.21875 80.253906 152.339844 C 80.609375 155.347656 80.910156 157.914062 81.25 160.761719 C 87.324219 159.609375 93.09375 158.523438 98.773438 157.449219 C 98.402344 154.296875 98.09375 151.703125 97.761719 148.898438 Z M 312.449219 150.242188 C 309.136719 146.796875 308.277344 146.707031 303.667969 149.304688 C 306.011719 152.253906 308.257812 155.246094 310.679688 158.066406 C 311.25 158.742188 312.554688 159.316406 313.355469 159.164062 C 315.085938 158.808594 316.710938 157.949219 318.890625 157.09375 C 316.570312 154.617188 314.535156 152.40625 312.449219 150.242188 Z M 393.015625 185.886719 C 393.460938 189.644531 393.902344 193.382812 394.347656 197.136719 C 394.390625 197.503906 394.433594 197.855469 394.476562 198.222656 C 395.128906 203.472656 397.394531 205.507812 402.265625 205.242188 C 406.835938 204.984375 409.859375 202.097656 409.6875 197.492188 C 409.351562 188.625 408.675781 179.75 408.21875 170.882812 C 408.074219 168.027344 406.433594 167.003906 403.90625 167.167969 C 400.863281 167.367188 397.855469 167.886719 394.8125 168.097656 C 391.933594 168.304688 391.074219 169.742188 391.460938 172.480469 C 392.089844 176.941406 392.546875 181.421875 393.078125 185.894531 C 393.0625 185.882812 393.03125 185.886719 393.015625 185.886719 Z M 96.589844 150.304688 C 91.40625 151.332031 86.488281 152.316406 81.570312 153.285156 C 81.828125 155.472656 82.039062 157.230469 82.222656 158.800781 C 87.320312 158.199219 92.210938 157.617188 97.382812 157.007812 C 97.085938 154.5 96.863281 152.621094 96.589844 150.304688 Z M 96.589844 150.304688 "/></g></g></g><g clip-rule="nonzero" clip-path="url(#1d49f9277c)"><g clip-rule="nonzero" clip-path="url(#8e87f045f9)"><g clip-rule="nonzero" clip-path="url(#d7e7cd1cef)"><path style=" stroke:none;fill-rule:nonzero;fill:#ffffff;fill-opacity:1;" d="M 686.609375 335.523438 C 691.644531 332.917969 696.117188 330.082031 700.09375 326.496094 C 700.558594 326.078125 701.191406 325.8125 701.789062 325.597656 C 705.8125 324.113281 709.707031 322.40625 712.949219 319.503906 C 713.578125 318.9375 714.304688 318.320312 714.585938 317.570312 C 715.144531 316.105469 716.285156 315.621094 717.585938 315.152344 C 722.832031 313.253906 728.070312 311.3125 733.300781 309.378906 C 733.714844 309.226562 734.109375 309.03125 734.519531 308.492188 C 734.167969 308.4375 733.800781 308.285156 733.472656 308.347656 C 729.140625 309.1875 724.816406 310.054688 720.492188 310.917969 C 718.574219 311.296875 716.660156 311.691406 714.738281 312.058594 C 714.5 312.105469 714.214844 312.109375 714.007812 312.015625 C 710.160156 310.335938 706.324219 311.253906 702.691406 312.472656 C 698.132812 314 693.808594 316.199219 689.285156 317.84375 C 686.824219 318.738281 684.179688 319.191406 681.578125 319.664062 C 666.875 322.316406 652.148438 324.878906 637.449219 327.542969 C 625.410156 329.726562 613.371094 331.953125 601.351562 334.261719 C 589.535156 336.53125 577.703125 338.753906 565.945312 341.308594 C 557.023438 343.246094 548.140625 345.433594 539.375 347.96875 C 535.320312 349.140625 531.414062 351.117188 527.753906 353.261719 C 523.035156 356.023438 519.921875 360.523438 516.921875 364.992188 C 515.890625 366.53125 515.195312 368.308594 514.101562 369.789062 C 513.398438 370.730469 512.300781 371.464844 511.25 372.066406 C 502.195312 377.3125 493.382812 382.945312 486.25 390.683594 C 483.046875 394.15625 479.101562 396.0625 475.070312 398.042969 C 474.617188 398.265625 474.152344 398.460938 473.710938 398.6875 C 473.40625 398.84375 473.121094 399.039062 472.894531 399.417969 C 475.691406 398.621094 478.46875 397.726562 481.292969 397.0625 C 483.121094 396.632812 485.035156 396.277344 486.898438 396.328125 C 496.511719 396.578125 505.914062 395.328125 515.175781 392.847656 C 515.949219 392.640625 516.734375 392.46875 517.714844 392.238281 C 518.15625 393.425781 518.597656 394.617188 519.054688 395.851562 C 520.132812 395.453125 521.019531 395.125 522.054688 394.742188 C 521.65625 393.671875 521.265625 392.617188 520.792969 391.335938 C 525.585938 389.882812 530.214844 388.480469 534.976562 387.039062 C 535.289062 387.753906 535.585938 388.429688 535.914062 389.183594 C 536.550781 388.949219 537.132812 388.734375 537.773438 388.496094 C 537.589844 387.8125 537.410156 387.148438 537.21875 386.421875 C 538.964844 385.863281 540.625 385.339844 542.464844 384.753906 C 543.105469 386.484375 543.726562 388.152344 544.382812 389.925781 C 546.386719 389.179688 548.207031 388.503906 550.222656 387.757812 C 549.667969 386.253906 549.097656 384.71875 548.460938 383 C 550.078125 382.671875 551.199219 381.484375 552.953125 382.394531 C 553.578125 382.71875 554.8125 381.90625 555.757812 381.574219 C 558.003906 380.800781 559.527344 381.328125 561.015625 383.242188 C 561.734375 384.160156 561.765625 384.855469 560.972656 385.738281 C 559.851562 387 558.835938 388.351562 557.605469 389.878906 C 559.835938 390.714844 561.386719 389.113281 563.210938 389.054688 C 563.96875 390.242188 563.914062 391.164062 562.785156 392.253906 C 560.667969 394.292969 560.472656 397.632812 562.089844 400.007812 C 563.8125 402.546875 567.238281 403.601562 569.949219 402.414062 C 572.71875 401.207031 574.308594 398.167969 573.699219 395.25 C 573.089844 392.34375 570.511719 390.136719 567.640625 390.074219 C 567.296875 390.066406 566.945312 390.054688 566.570312 390.042969 C 566.363281 389.480469 566.15625 388.925781 565.910156 388.261719 C 566.800781 387.933594 567.628906 387.625 568.808594 387.1875 C 568.207031 386.976562 567.9375 386.878906 567.566406 386.753906 C 568.058594 383.789062 568.511719 380.78125 569.09375 377.804688 C 569.199219 377.265625 569.785156 376.5625 570.300781 376.390625 C 574.363281 375.070312 578.460938 373.878906 582.546875 372.628906 C 585.027344 371.871094 586.324219 371.820312 589.214844 372.496094 C 584.164062 375.199219 579.183594 377.734375 575.054688 381.519531 C 575.070312 381.695312 575.089844 381.863281 575.109375 382.039062 C 575.839844 382.242188 576.558594 382.527344 577.296875 382.632812 C 582.855469 383.414062 588.398438 383.050781 593.925781 382.296875 C 601.074219 381.324219 607.96875 379.292969 614.808594 377.089844 C 617.769531 376.132812 620.65625 374.949219 623.414062 373.925781 C 628.304688 379.140625 632.027344 380.214844 636.265625 377.875 C 639.886719 375.878906 641.191406 371.828125 639.847656 366.636719 C 642.289062 364.859375 645.144531 363.535156 647.230469 360.683594 C 642.644531 359.351562 638.285156 359.898438 633.9375 359.90625 C 635.890625 359.183594 637.839844 358.460938 639.84375 357.71875 C 639.808594 357.277344 639.769531 356.84375 639.734375 356.34375 C 645.171875 355.484375 650.550781 354.625 656 353.761719 C 655.96875 353.34375 655.949219 353.007812 655.914062 352.570312 C 658.007812 352.027344 659.984375 354.316406 662.167969 352.8125 C 661.210938 352.207031 660.296875 351.632812 659.371094 351.042969 C 661.136719 349.226562 668.675781 344.539062 671.03125 343.796875 C 671.371094 344.527344 671.710938 345.273438 672.128906 346.195312 C 677.5 344.203125 682.804688 342.238281 688.332031 340.1875 C 687.792969 338.71875 687.210938 337.148438 686.609375 335.523438 Z M 596.710938 358.203125 C 597.023438 357.957031 597.316406 357.675781 597.65625 357.472656 C 598.730469 356.832031 599.804688 356.171875 600.921875 355.609375 C 609.046875 351.507812 617.746094 349.035156 626.460938 346.613281 C 629.359375 345.808594 632.246094 344.976562 635.128906 344.117188 C 637.101562 343.527344 639.050781 342.875 641.003906 342.25 C 641.039062 342.351562 641.078125 342.460938 641.109375 342.566406 C 636.769531 344.527344 632.433594 346.480469 628.09375 348.4375 C 635.910156 346.800781 643.636719 344.871094 651.375 342.96875 C 656.441406 341.726562 661.511719 340.484375 666.597656 339.328125 C 667.578125 339.105469 668.652344 339.265625 669.683594 339.246094 C 645.46875 346.140625 621.378906 353.136719 596.710938 358.203125 Z M 546.480469 347.609375 C 546.175781 354.640625 541.496094 358.277344 536.054688 361.523438 C 533.648438 359.203125 531.210938 356.855469 528.664062 354.402344 C 534.34375 351.1875 540.292969 349.078125 546.480469 347.609375 Z M 533.765625 362.976562 C 528.4375 365.628906 523.3125 367.929688 517.183594 367.398438 C 519.828125 362.804688 523.078125 359.097656 526.855469 355.683594 C 529.167969 358.121094 531.355469 360.433594 533.765625 362.976562 Z M 621.84375 335.804688 C 621.875 335.941406 621.898438 336.082031 621.933594 336.222656 C 606.210938 339.882812 590.753906 344.40625 575.898438 350.070312 C 576.550781 350.796875 577.402344 351.378906 577.722656 352.175781 C 579.152344 355.660156 580.4375 359.203125 581.75 362.738281 C 582.539062 364.867188 581.777344 366.703125 579.804688 367.597656 C 577.210938 368.769531 575.246094 368.308594 574.175781 366.074219 C 572.703125 362.992188 571.429688 359.820312 569.984375 356.726562 C 568.605469 353.78125 569.027344 352.625 572.042969 351.414062 C 573.101562 350.992188 574.15625 350.527344 575.15625 349.988281 C 576.382812 349.328125 577.460938 348.328125 578.746094 347.871094 C 590.960938 343.519531 603.3125 339.632812 615.988281 336.835938 C 617.921875 336.40625 619.890625 336.144531 621.84375 335.804688 Z M 617.859375 339.902344 C 617.789062 339.675781 617.722656 339.441406 617.652344 339.214844 C 619.464844 338.542969 621.253906 337.753906 623.113281 337.214844 C 628.371094 335.679688 633.621094 334.105469 638.941406 332.808594 C 648.453125 330.484375 658.003906 328.328125 667.546875 326.144531 C 668.867188 325.84375 670.246094 325.800781 671.59375 325.636719 C 671.628906 325.832031 671.664062 326.027344 671.695312 326.222656 C 653.746094 330.78125 635.800781 335.34375 617.859375 339.902344 Z M 565.832031 387.753906 C 564.464844 385.226562 564.386719 384.515625 565.207031 380.320312 C 565.761719 377.484375 565.109375 377.914062 568.527344 377.074219 C 568 380.269531 567.519531 383.417969 566.933594 386.550781 C 566.855469 386.957031 566.285156 387.273438 565.832031 387.753906 Z M 661.046875 332.964844 C 657.054688 336.324219 653.0625 339.675781 649.066406 343.035156 C 648.921875 342.859375 648.78125 342.691406 648.640625 342.515625 C 652.277344 338.726562 655.960938 334.996094 661.046875 332.964844 Z M 681.203125 340.023438 C 681.625 340.160156 681.925781 340.257812 682.230469 340.359375 C 679.644531 341.199219 677.234375 342.367188 674.566406 342.316406 C 677.417969 341.011719 680.269531 339.707031 683.125 338.402344 C 683.144531 338.445312 683.175781 338.492188 683.199219 338.539062 C 682.570312 339.011719 681.9375 339.480469 681.203125 340.023438 Z M 565.023438 377.929688 C 564.714844 379.742188 564.457031 381.253906 564.140625 383.070312 C 563.53125 381.421875 563.050781 380.125 562.574219 378.839844 C 563.371094 378.542969 564.023438 378.300781 565.023438 377.929688 Z M 559.078125 389.71875 C 558.96875 389.621094 558.867188 389.523438 558.757812 389.417969 C 559.773438 388.210938 560.789062 387.003906 561.863281 385.722656 C 563.179688 387.585938 560.601562 386.976562 560.648438 388.042969 C 561.410156 387.945312 562.125 387.847656 562.84375 387.75 C 562.871094 387.929688 562.898438 388.105469 562.925781 388.285156 C 561.648438 388.765625 560.363281 389.242188 559.078125 389.71875 Z M 599.980469 370.574219 C 603.316406 369.691406 606.550781 368.828125 610.09375 367.886719 C 606.652344 369.160156 603.519531 370.324219 600.324219 371.507812 C 600.164062 371.074219 600.03125 370.707031 599.980469 370.574219 Z M 567.160156 343.363281 C 567.109375 343.207031 567.058594 343.058594 567.007812 342.902344 C 567.3125 342.59375 567.5625 342.117188 567.921875 342.03125 C 568.300781 341.941406 568.777344 342.207031 569.210938 342.320312 C 569.003906 342.707031 568.882812 343.296875 568.566406 343.441406 C 568.183594 343.617188 567.632812 343.410156 567.160156 343.363281 Z M 697.835938 273.890625 C 698.90625 273.585938 699.972656 273.308594 701.019531 272.976562 C 702.742188 272.4375 704.308594 271.671875 704.925781 269.78125 C 705.671875 267.53125 704.4375 265.992188 702.148438 266.472656 C 699.84375 266.953125 697.539062 267.535156 695.316406 268.296875 C 690.523438 269.929688 685.710938 271.546875 681.042969 273.484375 C 678.34375 274.601562 676.503906 276.902344 675.253906 279.582031 C 675.082031 279.957031 674.933594 280.675781 675.097656 280.800781 C 675.429688 281.054688 676.011719 281.136719 676.453125 281.066406 C 677.269531 280.917969 678.066406 280.609375 679.226562 280.269531 C 678 282.605469 676.925781 284.671875 675.824219 286.722656 C 673.039062 291.898438 670.140625 297.015625 667.472656 302.253906 C 663.894531 309.277344 658.398438 314.445312 651.898438 318.609375 C 648.785156 320.601562 645.40625 322.179688 642.140625 323.9375 C 641.53125 324.265625 640.90625 324.5625 640.367188 325.09375 C 645.25 324.277344 650.128906 323.398438 655.019531 322.667969 C 664.433594 321.265625 673.84375 319.730469 683.296875 318.726562 C 686.167969 318.421875 688.140625 316.878906 690.503906 315.851562 C 692.707031 314.894531 694.894531 313.855469 697.160156 313.066406 C 698.261719 312.683594 698.644531 312.230469 698.613281 311.097656 C 698.335938 299.132812 698.09375 287.164062 697.84375 275.199219 C 697.828125 274.796875 697.832031 274.40625 697.835938 273.890625 Z M 678.6875 305.726562 C 680.441406 305.078125 682.148438 304.445312 683.992188 303.761719 C 682.011719 301.664062 680.121094 299.648438 678.230469 297.640625 C 678.253906 298.703125 678.582031 299.570312 678.898438 300.445312 C 679.59375 302.359375 679.59375 302.359375 678.589844 302.820312 C 677.777344 300.632812 676.96875 298.453125 676.160156 296.265625 C 678.054688 295.703125 678.050781 295.707031 679.300781 297.0625 C 681.035156 298.933594 682.808594 300.761719 684.503906 302.667969 C 685.636719 303.9375 685.234375 305.457031 685.238281 306.898438 C 685.117188 306.917969 684.996094 306.9375 684.875 306.960938 C 684.683594 306.363281 684.503906 305.769531 684.296875 305.128906 C 682.535156 305.679688 680.828125 306.207031 679.074219 306.753906 C 679.476562 307.84375 679.847656 308.84375 680.238281 309.894531 C 681.15625 309.652344 681.964844 309.429688 682.769531 309.21875 C 683.21875 310.421875 681.839844 311.230469 679.40625 311.257812 C 678.449219 308.679688 677.492188 306.101562 676.539062 303.523438 C 677.46875 303.125 677.46875 303.125 678.6875 305.726562 Z M 680.148438 288.90625 C 682.582031 288.214844 684.90625 287.546875 687.214844 286.886719 C 687.648438 288.054688 688.019531 289.054688 688.429688 290.164062 C 685.984375 290.878906 683.667969 291.566406 681.382812 292.238281 C 680.925781 291.007812 680.550781 289.996094 680.148438 288.90625 Z M 601.703125 329.679688 C 602.269531 327.792969 602.566406 327.597656 604.742188 327.6875 C 604.4375 329.210938 604.175781 330.730469 603.820312 332.222656 C 603.738281 332.578125 603.367188 333.03125 603.042969 333.125 C 602.34375 333.320312 601.585938 333.308594 600.625 333.40625 C 601.011719 332.0625 601.34375 330.867188 601.703125 329.679688 Z M 578.859375 357.886719 C 579.402344 359.347656 579.941406 360.804688 580.484375 362.265625 C 580.535156 362.410156 580.585938 362.546875 580.640625 362.6875 C 581.386719 364.738281 580.9375 365.910156 579.105469 366.726562 C 577.378906 367.488281 575.730469 366.996094 574.925781 365.273438 C 573.386719 361.957031 571.96875 358.570312 570.46875 355.226562 C 569.984375 354.152344 570.394531 353.46875 571.351562 353.054688 C 572.503906 352.554688 573.703125 352.183594 574.859375 351.691406 C 575.953125 351.226562 576.539062 351.59375 576.914062 352.667969 C 577.519531 354.425781 578.191406 356.15625 578.839844 357.898438 C 578.84375 357.890625 578.855469 357.886719 578.859375 357.886719 Z M 680.84375 289.203125 C 682.933594 288.609375 684.921875 288.046875 686.90625 287.480469 C 687.222656 288.332031 687.476562 289.015625 687.703125 289.625 C 685.722656 290.363281 683.820312 291.066406 681.808594 291.8125 C 681.449219 290.835938 681.175781 290.105469 680.84375 289.203125 Z M 680.84375 289.203125 "/></g></g></g><g clip-rule="nonzero" clip-path="url(#052a13a710)"><g clip-rule="nonzero" clip-path="url(#07855d17df)"><g clip-rule="nonzero" clip-path="url(#8eade5d15e)"><path style=" stroke:none;fill-rule:nonzero;fill:#ffffff;fill-opacity:1;" d="M 159.707031 335.621094 C 161.785156 331.988281 166.152344 330.550781 171.117188 331.886719 L 179.644531 334.039062 C 184.179688 334.992188 187.890625 339.285156 189.648438 345.765625 L 195.929688 368.796875 C 196.984375 372.722656 196.175781 375.339844 195.3125 376.847656 C 194.550781 378.183594 191.5 382.359375 184.195312 380.066406 L 175.453125 377.519531 C 168.582031 375.378906 164.601562 371.128906 163.1875 364.496094 L 158.804688 341.90625 C 158.355469 339.621094 158.667969 337.441406 159.707031 335.621094 Z M 159.707031 335.621094 "/></g></g></g><g clip-rule="nonzero" clip-path="url(#84959676d7)"><g clip-rule="nonzero" clip-path="url(#9f1d8dc55c)"><g clip-rule="nonzero" clip-path="url(#368e8be6dd)"><path style=" stroke:none;fill-rule:nonzero;fill:#ffffff;fill-opacity:1;" d="M 218.445312 325.660156 C 218.992188 324.703125 219.671875 323.847656 220.464844 323.121094 L 226.105469 316.96875 C 229.039062 313.96875 232.492188 312.71875 235.691406 313.421875 C 238.554688 314.054688 240.8125 316.179688 241.890625 319.25 L 249.546875 340.847656 C 251.757812 347.429688 250.613281 352.878906 245.683594 358.320312 L 239.855469 365.128906 C 235.957031 369.410156 232.355469 369.308594 230.542969 368.875 C 228.714844 368.4375 225.433594 366.894531 223.941406 361.46875 L 217.660156 338.421875 C 216.699219 334.910156 216.054688 329.839844 218.445312 325.660156 Z M 218.445312 325.660156 "/></g></g></g><g clip-rule="nonzero" clip-path="url(#0061cee6a3)"><g clip-rule="nonzero" clip-path="url(#7d4dbc28dc)"><g clip-rule="nonzero" clip-path="url(#bf93f02774)"><path style=" stroke:none;fill-rule:nonzero;fill:#ffffff;fill-opacity:1;" d="M 274.019531 519.40625 L 235.480469 378.050781 C 232.40625 378.628906 229.832031 378.289062 228.371094 377.9375 C 225.292969 377.199219 217.820312 374.355469 214.953125 363.921875 L 208.679688 340.894531 C 208.019531 338.496094 207.664062 336.167969 207.539062 333.910156 L 196.203125 337.007812 C 197.191406 338.9375 198.03125 341.039062 198.644531 343.3125 L 204.9375 366.371094 C 206.816406 373.359375 205.144531 378.4375 203.410156 381.472656 C 201.628906 384.589844 198.429688 387.566406 194.109375 389.0625 L 232.71875 530.664062 Z M 274.019531 519.40625 "/></g></g></g><g clip-rule="nonzero" clip-path="url(#4f0f280e6b)"><g clip-rule="nonzero" clip-path="url(#220e0f031c)"><g clip-rule="nonzero" clip-path="url(#ec7bed7684)"><path style=" stroke:none;fill-rule:nonzero;fill:#ffffff;fill-opacity:1;" d="M 274.261719 601.671875 C 277.378906 600.828125 280.078125 600.105469 279.558594 568.070312 C 279.457031 561.761719 278.921875 541.898438 276.28125 528.445312 L 235.351562 539.609375 C 239.90625 552.542969 249.523438 569.921875 252.640625 575.414062 C 268.449219 603.257812 271.144531 602.523438 274.261719 601.671875 Z M 274.261719 601.671875 "/></g></g></g><g clip-rule="nonzero" clip-path="url(#40be9f7a1e)"><g clip-rule="nonzero" clip-path="url(#13fed5341c)"><g clip-rule="nonzero" clip-path="url(#40fc4809d5)"><path style=" stroke:none;fill-rule:nonzero;fill:#ffffff;fill-opacity:1;" d="M 476.386719 492.898438 C 478.894531 491.699219 481.820312 492.566406 484.023438 495.171875 L 487.859375 499.566406 C 489.972656 501.800781 490.371094 505.542969 488.882812 509.742188 L 483.605469 524.675781 C 482.699219 527.214844 481.269531 528.335938 480.226562 528.835938 C 479.308594 529.273438 476.066406 530.398438 472.945312 526.390625 L 469.140625 521.695312 C 466.203125 517.933594 465.640625 514.113281 467.375 509.957031 L 473.519531 495.984375 C 474.140625 494.566406 475.132812 493.496094 476.386719 492.898438 Z M 476.386719 492.898438 "/></g></g></g><g clip-rule="nonzero" clip-path="url(#6f8da03c99)"><g clip-rule="nonzero" clip-path="url(#0099558d26)"><g clip-rule="nonzero" clip-path="url(#f1a285f54b)"><path style=" stroke:none;fill-rule:nonzero;fill:#ffffff;fill-opacity:1;" d="M 512.1875 509.65625 C 512.84375 509.34375 513.539062 509.132812 514.246094 509.035156 L 519.648438 507.8125 C 522.382812 507.285156 524.738281 507.90625 526.214844 509.5 C 527.539062 510.929688 527.96875 512.941406 527.394531 515.023438 L 523.410156 529.691406 C 522.128906 534.117188 519.445312 536.65625 514.699219 537.761719 L 508.949219 539.273438 C 505.207031 540.136719 503.277344 538.71875 502.453125 537.796875 C 501.621094 536.871094 500.414062 534.789062 501.652344 531.265625 L 506.933594 516.324219 C 507.738281 514.042969 509.300781 511.035156 512.1875 509.65625 Z M 512.1875 509.65625 "/></g></g></g><g clip-rule="nonzero" clip-path="url(#bc85f10d6c)"><g clip-rule="nonzero" clip-path="url(#5da03a4141)"><g clip-rule="nonzero" clip-path="url(#6f7ab78334)"><path style=" stroke:none;fill-rule:nonzero;fill:#ffffff;fill-opacity:1;" d="M 469.285156 636.324219 L 501.679688 544.667969 C 499.785156 543.824219 498.507812 542.664062 497.84375 541.917969 C 496.445312 540.355469 493.445312 535.980469 495.824219 529.207031 L 501.101562 514.277344 C 501.648438 512.71875 502.335938 511.3125 503.121094 510.039062 L 495.765625 507.441406 C 495.578125 508.867188 495.238281 510.332031 494.714844 511.804688 L 489.433594 526.757812 C 487.820312 531.28125 484.988281 533.417969 482.898438 534.414062 C 480.746094 535.441406 477.878906 535.859375 474.953125 535.039062 L 442.503906 626.859375 Z M 469.285156 636.324219 "/></g></g></g><g clip-rule="nonzero" clip-path="url(#17cdde3dde)"><g clip-rule="nonzero" clip-path="url(#dfb77609e3)"><g clip-rule="nonzero" clip-path="url(#46e0d0e670)"><path style=" stroke:none;fill-rule:nonzero;fill:#ffffff;fill-opacity:1;" d="M 438.332031 681.28125 C 440.347656 681.996094 442.09375 682.625 453.914062 664.957031 C 456.242188 661.476562 463.457031 650.441406 467.101562 642.109375 L 440.5625 632.730469 C 438.160156 641.507812 436.835938 654.617188 436.460938 658.789062 C 434.558594 679.949219 436.308594 680.566406 438.332031 681.28125 Z M 438.332031 681.28125 "/></g></g></g><g clip-rule="nonzero" clip-path="url(#cd7762c639)"><g clip-rule="nonzero" clip-path="url(#f60f4f9973)"><g clip-rule="nonzero" clip-path="url(#6bd6edb79c)"><path style=" stroke:none;fill-rule:nonzero;fill:#ffffff;fill-opacity:1;" d="M 706.730469 468.578125 C 717.214844 470.03125 727.078125 470.535156 737 469.355469 C 738.15625 469.21875 739.410156 469.492188 740.550781 469.808594 C 748.277344 471.882812 756.050781 473.484375 764.121094 472.554688 C 765.6875 472.371094 767.457031 472.207031 768.691406 471.375 C 771.128906 469.742188 773.382812 470.234375 775.871094 470.921875 C 785.910156 473.683594 795.980469 476.367188 806.035156 479.058594 C 806.824219 479.269531 807.636719 479.40625 808.84375 479.019531 C 808.367188 478.5625 807.972656 477.929688 807.40625 477.671875 C 799.898438 474.28125 792.378906 470.949219 784.859375 467.601562 C 781.527344 466.113281 778.191406 464.648438 774.863281 463.136719 C 774.453125 462.957031 774.015625 462.652344 773.796875 462.289062 C 769.75 455.585938 762.917969 452.847656 756.066406 450.785156 C 747.476562 448.203125 738.519531 446.894531 729.859375 444.527344 C 725.144531 443.234375 720.628906 441.078125 716.160156 438.992188 C 690.902344 427.191406 665.710938 415.226562 640.445312 403.445312 C 619.75 393.796875 599.015625 384.222656 578.21875 374.785156 C 557.765625 365.507812 537.351562 356.148438 516.683594 347.367188 C 501.003906 340.703125 485.117188 334.46875 469.035156 328.886719 C 461.59375 326.304688 453.515625 325.101562 445.628906 324.421875 C 435.464844 323.546875 425.875 327.046875 416.484375 330.625 C 413.253906 331.855469 410.285156 333.816406 407.023438 334.890625 C 404.933594 335.566406 402.472656 335.5 400.222656 335.289062 C 380.777344 333.527344 361.285156 332.609375 342.078125 336.710938 C 333.460938 338.550781 325.398438 337.203125 317.117188 335.875 C 316.191406 335.726562 315.269531 335.527344 314.355469 335.386719 C 313.71875 335.300781 313.074219 335.292969 312.328125 335.621094 C 317.445312 337.421875 322.632812 339.054688 327.65625 341.085938 C 330.90625 342.398438 334.203125 343.925781 336.988281 346.007812 C 351.355469 356.746094 367.03125 364.96875 383.808594 371.171875 C 385.210938 371.6875 386.59375 372.28125 388.335938 372.980469 C 387.726562 375.265625 387.117188 377.558594 386.484375 379.933594 C 388.558594 380.484375 390.261719 380.9375 392.25 381.46875 C 392.796875 379.414062 393.339844 377.382812 393.996094 374.925781 C 402.863281 377.878906 411.433594 380.726562 420.234375 383.660156 C 419.9375 385.089844 419.660156 386.4375 419.351562 387.941406 C 420.570312 388.269531 421.691406 388.566406 422.921875 388.894531 C 423.382812 387.652344 423.820312 386.453125 424.3125 385.136719 C 427.578125 386.171875 430.664062 387.160156 434.101562 388.253906 C 433.214844 391.582031 432.359375 394.789062 431.453125 398.191406 C 435.308594 399.21875 438.808594 400.152344 442.6875 401.1875 C 443.457031 398.296875 444.246094 395.34375 445.125 392.039062 C 447.945312 393.285156 450.929688 392.679688 452.621094 395.953125 C 453.226562 397.128906 455.980469 397.214844 457.78125 397.730469 C 462.039062 398.972656 463.785156 401.414062 463.992188 405.9375 C 464.097656 408.105469 463.390625 409.203125 461.238281 409.695312 C 458.164062 410.40625 455.167969 411.371094 451.644531 412.375 C 454.144531 416.050781 458.230469 415.28125 461.070312 417.15625 C 460.949219 419.78125 459.871094 421.128906 456.976562 421.570312 C 451.558594 422.394531 447.660156 427.273438 447.558594 432.632812 C 447.457031 438.355469 451.535156 443.65625 456.945312 444.769531 C 462.460938 445.910156 468.15625 442.996094 470.375 437.894531 C 472.578125 432.8125 471.027344 426.667969 466.722656 423.488281 C 466.203125 423.101562 465.683594 422.703125 465.125 422.285156 C 465.417969 421.199219 465.699219 420.132812 466.039062 418.859375 C 467.753906 419.316406 469.34375 419.738281 471.609375 420.34375 C 470.925781 419.371094 470.617188 418.9375 470.1875 418.339844 C 474.132812 414.359375 478.058594 410.265625 482.160156 406.359375 C 482.898438 405.652344 484.546875 405.207031 485.515625 405.503906 C 493.128906 407.875 500.660156 410.46875 508.226562 412.96875 C 512.820312 414.488281 514.855469 415.808594 518.527344 419.949219 C 507.917969 418.625 497.601562 417.125 487.230469 418.4375 C 487.070312 418.726562 486.914062 419.003906 486.757812 419.289062 C 487.652344 420.386719 488.433594 421.59375 489.453125 422.546875 C 497.074219 429.734375 505.910156 435.148438 515.144531 439.960938 C 527.082031 446.179688 539.769531 450.515625 552.570312 454.527344 C 558.105469 456.261719 563.78125 457.5625 569.085938 458.976562 C 570.914062 472.191406 575.429688 477.84375 584.40625 478.847656 C 592.070312 479.703125 598.421875 474.941406 601.976562 465.582031 C 607.605469 465.507812 613.382812 466.566406 619.632812 464.46875 C 614.082031 457.496094 606.855469 453.640625 600.21875 448.964844 C 603.976562 449.96875 607.71875 450.964844 611.574219 451.992188 C 612 451.285156 612.410156 450.582031 612.894531 449.78125 C 622.101562 454.328125 631.21875 458.820312 640.449219 463.375 C 640.851562 462.707031 641.183594 462.171875 641.605469 461.472656 C 645.375 462.898438 645.925781 468.515625 650.875 468.578125 C 650.066406 466.621094 649.289062 464.765625 648.515625 462.867188 C 653.167969 462 669.703125 462.988281 674.089844 464.390625 C 673.8125 465.871094 673.53125 467.371094 673.175781 469.230469 C 683.5 471.984375 693.703125 474.703125 704.332031 477.539062 C 705.09375 474.71875 705.902344 471.699219 706.730469 468.578125 Z M 545.347656 406.257812 C 546.089844 406.21875 546.835938 406.101562 547.574219 406.160156 C 549.902344 406.34375 552.25 406.5 554.554688 406.84375 C 571.355469 409.347656 587.269531 414.953125 603.15625 420.660156 C 608.4375 422.550781 613.734375 424.398438 619.054688 426.191406 C 622.691406 427.421875 626.359375 428.527344 630.015625 429.679688 C 629.953125 429.875 629.894531 430.082031 629.832031 430.277344 C 621.109375 428.585938 612.398438 426.890625 603.675781 425.199219 C 617.351562 431.125 631.195312 436.511719 645.035156 441.953125 C 654.089844 445.523438 663.148438 449.089844 672.144531 452.804688 C 673.882812 453.527344 675.34375 454.929688 676.9375 456.011719 C 632.621094 440.421875 588.382812 425.121094 545.347656 406.257812 Z M 480.242188 335.992188 C 472.203125 346.375 461.15625 346.875 449.367188 345.957031 C 448.203125 339.824219 447.019531 333.625 445.785156 327.144531 C 457.902344 328.367188 469.238281 331.5625 480.242188 335.992188 Z M 444.316406 345.703125 C 433.339844 344 423.054688 341.988281 414.292969 334.570312 C 423.269531 330.421875 432.214844 328.277344 441.644531 327.148438 C 442.542969 333.351562 443.386719 339.234375 444.316406 345.703125 Z M 607.769531 399.210938 C 607.667969 399.457031 607.558594 399.695312 607.453125 399.953125 C 579.5625 388.585938 551.136719 378.820312 522.402344 371.441406 C 522.617188 373.25 523.289062 375.050781 522.917969 376.613281 C 521.339844 383.460938 519.484375 390.246094 517.671875 397.042969 C 516.578125 401.140625 513.441406 403.113281 509.46875 402.351562 C 504.257812 401.335938 501.761719 398.519531 502.542969 393.960938 C 503.617188 387.6875 505.09375 381.480469 506.226562 375.207031 C 507.300781 369.238281 509.191406 367.929688 515.085938 369.335938 C 517.152344 369.828125 519.261719 370.261719 521.367188 370.515625 C 523.945312 370.828125 526.660156 370.46875 529.113281 371.160156 C 552.414062 377.691406 575.414062 385.082031 597.738281 394.480469 C 601.144531 395.90625 604.425781 397.628906 607.769531 399.210938 Z M 597.285156 401.167969 C 597.421875 400.746094 597.570312 400.316406 597.707031 399.894531 C 601.199219 400.824219 604.769531 401.554688 608.183594 402.734375 C 617.84375 406.0625 627.539062 409.320312 637.042969 413.074219 C 654.039062 419.78125 670.910156 426.785156 687.800781 433.75 C 690.132812 434.710938 692.28125 436.132812 694.511719 437.339844 C 694.351562 437.671875 694.195312 438.007812 694.035156 438.339844 C 661.78125 425.941406 629.527344 413.554688 597.285156 401.167969 Z M 466.46875 417.996094 C 467.113281 412.675781 467.753906 411.503906 473.527344 406 C 477.425781 402.273438 475.96875 402.226562 482.078125 404.632812 C 477.835938 408.9375 473.710938 413.210938 469.441406 417.355469 C 468.886719 417.886719 467.675781 417.753906 466.46875 417.996094 Z M 670.546875 437.136719 C 660.851562 437.949219 651.15625 438.753906 641.449219 439.5625 C 641.417969 439.144531 641.386719 438.734375 641.355469 438.316406 C 650.980469 436.457031 660.613281 434.746094 670.546875 437.136719 Z M 693.648438 469.609375 C 694.144531 470.269531 694.5 470.738281 694.851562 471.222656 C 690.007812 469.71875 685.074219 468.898438 681.0625 465.945312 C 686.820312 467.035156 692.5625 468.117188 698.320312 469.207031 C 698.308594 469.296875 698.300781 469.402344 698.289062 469.492188 C 696.820312 469.535156 695.351562 469.566406 693.648438 469.609375 Z M 475.820312 402.164062 C 473.398438 404.589844 471.375 406.613281 468.9375 409.046875 C 469.785156 405.871094 470.449219 403.378906 471.109375 400.90625 C 472.644531 401.316406 473.898438 401.652344 475.820312 402.164062 Z M 454.0625 413.710938 C 454.003906 413.449219 453.953125 413.1875 453.898438 412.914062 C 456.742188 412.167969 459.589844 411.421875 462.613281 410.628906 C 462.605469 414.882812 459.335938 411.179688 458.253906 412.855469 C 459.523438 413.523438 460.722656 414.148438 461.917969 414.773438 C 461.769531 415.074219 461.617188 415.375 461.464844 415.675781 C 459.003906 415.03125 456.53125 414.371094 454.0625 413.710938 Z M 536.996094 428.625 C 543.03125 430.871094 548.886719 433.042969 555.296875 435.425781 C 548.6875 433.660156 542.660156 432.054688 536.519531 430.417969 C 536.742188 429.582031 536.929688 428.878906 536.996094 428.625 Z M 516.324219 351.8125 C 516.414062 351.515625 516.5 351.234375 516.589844 350.941406 C 517.378906 350.800781 518.277344 350.34375 518.917969 350.597656 C 519.59375 350.871094 520.035156 351.789062 520.570312 352.425781 C 519.835938 352.792969 519.019531 353.566406 518.382812 353.441406 C 517.609375 353.292969 516.992188 352.390625 516.324219 351.8125 Z M 790.246094 386.785156 C 792.203125 387.472656 794.128906 388.195312 796.078125 388.824219 C 799.285156 389.855469 802.496094 390.382812 805.476562 388.164062 C 809.035156 385.539062 808.8125 381.867188 804.808594 380.128906 C 800.777344 378.382812 796.640625 376.785156 792.429688 375.546875 C 783.371094 372.871094 774.296875 370.148438 765.101562 368.070312 C 759.789062 366.867188 754.5 368.386719 749.714844 371.121094 C 749.046875 371.507812 748.046875 372.441406 748.15625 372.8125 C 748.394531 373.554688 749.195312 374.308594 749.941406 374.675781 C 751.34375 375.332031 752.886719 375.71875 755.019531 376.453125 C 750.640625 378.683594 746.777344 380.675781 742.886719 382.613281 C 733.066406 387.5 723.140625 392.171875 713.429688 397.273438 C 700.40625 404.117188 686.464844 406.070312 672.078125 405.410156 C 665.191406 405.089844 658.34375 403.851562 651.476562 403.007812 C 650.1875 402.855469 648.917969 402.632812 647.527344 402.863281 C 655.84375 406.878906 664.222656 410.792969 672.464844 414.957031 C 688.3125 422.957031 704.300781 430.761719 719.789062 439.417969 C 724.484375 442.046875 729.15625 441.824219 733.859375 442.808594 C 738.25 443.71875 742.699219 444.492188 747.003906 445.734375 C 749.089844 446.339844 750.164062 446.058594 751.339844 444.304688 C 763.808594 425.773438 776.335938 407.28125 788.84375 388.785156 C 789.257812 388.15625 789.6875 387.566406 790.246094 386.785156 Z M 726.769531 414.652344 C 730.140625 415.550781 733.421875 416.425781 736.972656 417.371094 C 736.214844 412.042969 735.507812 406.9375 734.785156 401.839844 C 733.675781 403.484375 733.242188 405.15625 732.78125 406.832031 C 731.78125 410.496094 731.78125 410.496094 729.753906 410.117188 C 730.875 405.914062 731.992188 401.71875 733.113281 397.511719 C 736.609375 398.703125 736.597656 398.699219 737.039062 402.109375 C 737.664062 406.828125 738.398438 411.53125 738.925781 416.257812 C 739.285156 419.410156 737.03125 421.292969 735.492188 423.492188 C 735.285156 423.390625 735.074219 423.289062 734.863281 423.195312 C 735.222656 422.082031 735.585938 420.976562 735.960938 419.785156 C 732.683594 418.722656 729.511719 417.6875 726.253906 416.628906 C 725.695312 418.726562 725.179688 420.648438 724.640625 422.671875 C 726.300781 423.289062 727.769531 423.820312 729.226562 424.363281 C 728.617188 426.683594 725.640625 426.429688 721.90625 423.847656 C 723.226562 418.894531 724.550781 413.929688 725.871094 408.976562 C 727.714844 409.375 727.714844 409.375 726.769531 414.652344 Z M 747.121094 390.601562 C 751.574219 392.164062 755.832031 393.652344 760.0625 395.132812 C 759.460938 397.386719 758.949219 399.308594 758.378906 401.4375 C 753.886719 399.898438 749.617188 398.441406 745.414062 397.003906 C 746.042969 394.640625 746.5625 392.699219 747.121094 390.601562 Z M 583.683594 368.183594 C 586.582031 365.921875 587.246094 365.945312 590.464844 368.425781 C 588.359375 370.417969 586.320312 372.449219 584.171875 374.335938 C 583.664062 374.789062 582.609375 375.082031 582.015625 374.878906 C 580.738281 374.421875 579.597656 373.585938 578.035156 372.699219 C 580.070312 371.066406 581.859375 369.601562 583.683594 368.183594 Z M 518.496094 386.535156 C 517.746094 389.347656 517 392.148438 516.25 394.960938 C 516.175781 395.234375 516.105469 395.496094 516.035156 395.773438 C 514.964844 399.699219 513.015625 401 509.339844 400.269531 C 505.894531 399.574219 503.910156 397.042969 504.542969 393.554688 C 505.773438 386.835938 507.261719 380.152344 508.578125 373.445312 C 509 371.289062 510.359375 370.6875 512.265625 371.089844 C 514.558594 371.570312 516.789062 372.296875 519.082031 372.789062 C 521.246094 373.261719 521.742188 374.453125 521.152344 376.492188 C 520.179688 379.824219 519.34375 383.1875 518.449219 386.535156 C 518.464844 386.527344 518.484375 386.535156 518.496094 386.535156 Z M 747.859375 391.796875 C 751.6875 393.148438 755.320312 394.433594 758.957031 395.710938 C 758.519531 397.34375 758.167969 398.664062 757.855469 399.839844 C 754.042969 398.820312 750.386719 397.847656 746.519531 396.816406 C 747.023438 394.9375 747.398438 393.53125 747.859375 391.796875 Z M 747.859375 391.796875 "/></g></g></g></g></svg>
