<svg xmlns="http://www.w3.org/2000/svg" xmlns:xlink="http://www.w3.org/1999/xlink" width="24" zoomAndPan="magnify" viewBox="0 0 810 809.999993" height="24" preserveAspectRatio="xMidYMid meet" version="1.2"><defs><clipPath id="3ceb5d5763"><path d="M 493.414062 216.296875 L 708.664062 216.296875 L 708.664062 304 L 493.414062 304 Z M 493.414062 216.296875 "/></clipPath><clipPath id="bf5087381f"><path d="M 13 173 L 612 173 L 612 332 L 13 332 Z M 13 173 "/></clipPath><clipPath id="9514c75853"><path d="M 0 182.933594 L 600.308594 111.875 L 621.644531 292.113281 L 21.335938 363.175781 Z M 0 182.933594 "/></clipPath><clipPath id="5bf1b8a6cf"><path d="M 0 182.933594 L 600.308594 111.875 L 621.644531 292.113281 L 21.335938 363.175781 Z M 0 182.933594 "/></clipPath><clipPath id="2ca3ef81cc"><path d="M 472 266 L 735 266 L 735 403 L 472 403 Z M 472 266 "/></clipPath><clipPath id="727ca84f59"><path d="M 456.730469 356.429688 L 716.921875 259.953125 L 745.863281 338.011719 L 485.671875 434.484375 Z M 456.730469 356.429688 "/></clipPath><clipPath id="e94f75dfca"><path d="M 716.777344 260.007812 L 456.585938 356.480469 L 485.527344 434.539062 L 745.71875 338.066406 Z M 716.777344 260.007812 "/></clipPath><clipPath id="24f6770c8b"><path d="M 217 435 L 249 435 L 249 479 L 217 479 Z M 217 435 "/></clipPath><clipPath id="4bd8dbdaed"><path d="M 413.679688 506.253906 L 305.289062 674.632812 L 136.910156 566.242188 L 245.296875 397.863281 Z M 413.679688 506.253906 "/></clipPath><clipPath id="1c0ba2fda5"><path d="M 413.679688 506.253906 L 305.289062 674.632812 L 136.910156 566.242188 L 245.296875 397.863281 Z M 413.679688 506.253906 "/></clipPath><clipPath id="d593e5a613"><path d="M 267 423 L 296 423 L 296 471 L 267 471 Z M 267 423 "/></clipPath><clipPath id="41aec316e7"><path d="M 413.679688 506.253906 L 305.289062 674.632812 L 136.910156 566.242188 L 245.296875 397.863281 Z M 413.679688 506.253906 "/></clipPath><clipPath id="9ca44d1f77"><path d="M 413.679688 506.253906 L 305.289062 674.632812 L 136.910156 566.242188 L 245.296875 397.863281 Z M 413.679688 506.253906 "/></clipPath><clipPath id="ccb91cea15"><path d="M 245 439 L 308 439 L 308 608 L 245 608 Z M 245 439 "/></clipPath><clipPath id="6ebae73678"><path d="M 413.679688 506.253906 L 305.289062 674.632812 L 136.910156 566.242188 L 245.296875 397.863281 Z M 413.679688 506.253906 "/></clipPath><clipPath id="a3076f1f12"><path d="M 413.679688 506.253906 L 305.289062 674.632812 L 136.910156 566.242188 L 245.296875 397.863281 Z M 413.679688 506.253906 "/></clipPath><clipPath id="41580e3346"><path d="M 273 607 L 311 607 L 311 670 L 273 670 Z M 273 607 "/></clipPath><clipPath id="c777d1aed7"><path d="M 413.679688 506.253906 L 305.289062 674.632812 L 136.910156 566.242188 L 245.296875 397.863281 Z M 413.679688 506.253906 "/></clipPath><clipPath id="2185c5411b"><path d="M 413.679688 506.253906 L 305.289062 674.632812 L 136.910156 566.242188 L 245.296875 397.863281 Z M 413.679688 506.253906 "/></clipPath><clipPath id="6ae9a4a1dc"><path d="M 586 434 L 599 434 L 599 455 L 586 455 Z M 586 434 "/></clipPath><clipPath id="7bb1c7c997"><path d="M 645.511719 500.792969 L 571.070312 536.355469 L 535.507812 461.914062 L 609.953125 426.351562 Z M 645.511719 500.792969 "/></clipPath><clipPath id="82c917146d"><path d="M 645.511719 500.792969 L 571.070312 536.355469 L 535.507812 461.914062 L 609.953125 426.351562 Z M 645.511719 500.792969 "/></clipPath><clipPath id="79145e3af9"><path d="M 604 442 L 619 442 L 619 460 L 604 460 Z M 604 442 "/></clipPath><clipPath id="beaeb46c9d"><path d="M 645.511719 500.792969 L 571.070312 536.355469 L 535.507812 461.914062 L 609.953125 426.351562 Z M 645.511719 500.792969 "/></clipPath><clipPath id="1dfe958763"><path d="M 645.511719 500.792969 L 571.070312 536.355469 L 535.507812 461.914062 L 609.953125 426.351562 Z M 645.511719 500.792969 "/></clipPath><clipPath id="62f147e750"><path d="M 574 442 L 606 442 L 606 511 L 574 511 Z M 574 442 "/></clipPath><clipPath id="377babc477"><path d="M 645.511719 500.792969 L 571.070312 536.355469 L 535.507812 461.914062 L 609.953125 426.351562 Z M 645.511719 500.792969 "/></clipPath><clipPath id="e113a4edbc"><path d="M 645.511719 500.792969 L 571.070312 536.355469 L 535.507812 461.914062 L 609.953125 426.351562 Z M 645.511719 500.792969 "/></clipPath><clipPath id="e981b22b8c"><path d="M 570 508 L 587 508 L 587 535 L 570 535 Z M 570 508 "/></clipPath><clipPath id="9dba791c11"><path d="M 645.511719 500.792969 L 571.070312 536.355469 L 535.507812 461.914062 L 609.953125 426.351562 Z M 645.511719 500.792969 "/></clipPath><clipPath id="2289292167"><path d="M 645.511719 500.792969 L 571.070312 536.355469 L 535.507812 461.914062 L 609.953125 426.351562 Z M 645.511719 500.792969 "/></clipPath></defs><g id="b8e52c1859"><g clip-rule="nonzero" clip-path="url(#3ceb5d5763)"><path style=" stroke:none;fill-rule:nonzero;fill:#ffffff;fill-opacity:1;" d="M 509.851562 271.375 C 509.957031 271.417969 510.066406 271.445312 510.175781 271.464844 C 519.210938 273.949219 532.96875 276.371094 553.570312 277.34375 L 555.0625 278.601562 C 555.421875 278.902344 555.835938 279.042969 556.300781 279.023438 L 561.730469 278.769531 L 572.703125 283.054688 C 572.882812 283.125 573.066406 283.164062 573.257812 283.171875 L 606.113281 284.78125 C 605.285156 285.609375 604.578125 286.53125 603.992188 287.546875 C 603.722656 288.019531 603.59375 288.523438 603.601562 289.066406 C 603.613281 289.609375 603.757812 290.109375 604.042969 290.570312 C 605.882812 293.761719 613.945312 296.28125 622.609375 296.414062 L 623.328125 296.414062 C 628.582031 296.453125 633.824219 296.210938 639.054688 295.691406 C 640.601562 297.105469 644.589844 299.226562 654.605469 299.226562 C 655.933594 299.226562 657.367188 299.1875 658.902344 299.113281 L 666.164062 299.113281 C 667.765625 299.695312 669.421875 299.992188 671.132812 299.996094 L 690.148438 299.996094 L 693.191406 303.035156 C 693.535156 303.382812 693.949219 303.554688 694.4375 303.558594 L 695.320312 303.558594 C 695.589844 303.5625 695.84375 303.511719 696.089844 303.398438 C 696.332031 303.289062 696.539062 303.128906 696.710938 302.925781 C 696.882812 302.71875 697.003906 302.488281 697.066406 302.226562 C 697.132812 301.96875 697.140625 301.707031 697.089844 301.445312 L 696.53125 298.660156 C 696.925781 298.308594 697.125 297.871094 697.125 297.34375 L 697.125 294.691406 C 697.125 294.175781 696.9375 293.742188 696.558594 293.390625 L 697.089844 290.925781 C 697.097656 290.820312 697.097656 290.710938 697.089844 290.605469 L 697.972656 290.464844 C 698.351562 290.402344 698.679688 290.234375 698.949219 289.960938 C 699.21875 289.6875 699.382812 289.359375 699.4375 288.980469 C 699.496094 288.597656 699.433594 288.238281 699.253906 287.898438 C 699.078125 287.554688 698.8125 287.300781 698.46875 287.132812 L 671.28125 273.753906 L 696.125 280.554688 C 696.386719 280.613281 696.648438 280.613281 696.914062 280.554688 L 706.992188 278.722656 C 707.375 278.65625 707.703125 278.476562 707.96875 278.191406 C 708.238281 277.90625 708.394531 277.570312 708.4375 277.179688 C 708.480469 276.792969 708.40625 276.429688 708.207031 276.089844 C 708.011719 275.753906 707.730469 275.507812 707.371094 275.355469 L 681.730469 264.402344 L 694.019531 240.210938 C 694.085938 240.082031 694.136719 239.941406 694.167969 239.800781 C 694.203125 239.65625 694.214844 239.511719 694.210938 239.363281 C 694.207031 239.21875 694.183594 239.074219 694.144531 238.933594 C 694.105469 238.792969 694.050781 238.65625 693.976562 238.53125 C 693.902344 238.402344 693.816406 238.285156 693.714844 238.179688 C 693.609375 238.074219 693.496094 237.984375 693.371094 237.90625 C 693.246094 237.832031 693.113281 237.769531 692.976562 237.726562 C 692.835938 237.683594 692.691406 237.65625 692.542969 237.648438 L 682.597656 237.097656 C 682.121094 237.070312 681.703125 237.210938 681.34375 237.523438 L 672.386719 245.257812 L 672.332031 245.3125 L 672.261719 245.367188 L 660.832031 255.234375 L 655.183594 254.347656 C 654.75 254.285156 654.332031 254.164062 653.933594 253.984375 C 653.535156 253.804688 653.167969 253.570312 652.835938 253.285156 C 652.503906 253 652.21875 252.675781 651.980469 252.308594 C 651.742188 251.941406 651.558594 251.550781 651.433594 251.128906 L 641.882812 218.558594 C 641.78125 218.210938 641.589844 217.921875 641.308594 217.691406 C 641.03125 217.460938 640.707031 217.328125 640.347656 217.292969 L 630.558594 216.410156 C 630.351562 216.390625 630.144531 216.40625 629.941406 216.460938 C 629.742188 216.515625 629.554688 216.601562 629.382812 216.722656 C 629.210938 216.839844 629.066406 216.988281 628.945312 217.160156 C 628.824219 217.328125 628.738281 217.515625 628.683594 217.71875 L 620.1875 250.015625 L 589.058594 241.503906 C 588.90625 241.460938 588.75 241.441406 588.589844 241.441406 L 581.515625 241.441406 C 581.296875 241.4375 581.085938 241.476562 580.878906 241.554688 C 580.675781 241.632812 580.492188 241.746094 580.328125 241.890625 C 580.164062 242.035156 580.03125 242.207031 579.933594 242.402344 C 579.832031 242.597656 579.773438 242.804688 579.75 243.023438 L 579.058594 249.636719 L 566.882812 245.824219 L 566.742188 245.824219 L 561.359375 244.621094 C 559.289062 243.738281 541.113281 236.816406 525.789062 251.078125 C 524.023438 251.449219 517.832031 252.765625 511.28125 254.613281 C 504.546875 256.558594 497.410156 259.097656 494.261719 261.835938 C 494.078125 261.996094 493.933594 262.1875 493.828125 262.410156 C 493.722656 262.632812 493.667969 262.863281 493.660156 263.109375 C 493.648438 263.351562 493.691406 263.589844 493.78125 263.816406 C 493.871094 264.042969 494 264.246094 494.175781 264.417969 C 494.421875 264.667969 497.992188 268.070312 509.851562 271.375 Z M 621.167969 292.835938 C 613.53125 292.460938 608.234375 290.183594 607.21875 288.996094 C 607.839844 287.933594 608.65625 287.046875 609.660156 286.335938 C 610.664062 285.625 611.773438 285.152344 612.984375 284.921875 C 613.195312 284.894531 613.394531 284.832031 613.582031 284.734375 C 614.332031 284.621094 615.066406 284.460938 615.792969 284.257812 C 616.484375 284.0625 617.316406 283.84375 618.269531 283.605469 C 618.378906 283.800781 618.519531 283.972656 618.695312 284.117188 C 618.695312 284.117188 622.070312 286.945312 621.167969 292.835938 Z M 639.109375 292.117188 C 634.328125 292.621094 629.53125 292.878906 624.722656 292.886719 C 625.007812 291.105469 624.933594 289.335938 624.507812 287.582031 C 624.078125 285.828125 623.328125 284.226562 622.257812 282.773438 C 627.28125 281.820312 632.351562 281.425781 637.464844 281.589844 C 642.578125 281.753906 647.609375 282.46875 652.566406 283.738281 C 652.65625 283.757812 652.746094 283.773438 652.839844 283.78125 L 654.210938 284.167969 L 654.414062 284.167969 L 668.109375 287.652344 C 663.953125 288.042969 658.808594 288.394531 653.554688 288.394531 C 643.839844 288.449219 640.363281 290.578125 639.117188 292.117188 Z M 662.386719 294.027344 L 662.238281 294.144531 C 661.765625 294.496094 661.53125 294.96875 661.53125 295.558594 L 658.769531 295.558594 C 648.929688 296.070312 644.464844 294.753906 642.566406 293.789062 C 643.742188 293.0625 646.648438 291.96875 653.527344 291.96875 C 661.589844 291.902344 669.609375 291.28125 677.585938 290.109375 L 678.46875 290.332031 L 677.710938 291.09375 L 671.140625 291.09375 C 669.5625 291.097656 668.027344 291.351562 666.53125 291.855469 C 665.035156 292.355469 663.65625 293.082031 662.394531 294.027344 Z M 693.058594 295.796875 C 693.121094 295.875 693.191406 295.949219 693.269531 296.015625 C 693.195312 296.082031 693.128906 296.152344 693.066406 296.230469 C 692.753906 296.609375 692.625 297.046875 692.675781 297.539062 L 692.128906 296.988281 C 691.785156 296.644531 691.371094 296.46875 690.882812 296.46875 L 671.132812 296.46875 C 669.621094 296.46875 668.171875 296.175781 666.78125 295.582031 C 668.171875 294.992188 669.621094 294.699219 671.132812 294.699219 L 678.433594 294.699219 C 678.921875 294.699219 679.335938 294.523438 679.679688 294.179688 L 682.449219 291.410156 L 685.878906 292.292969 C 686.019531 292.332031 686.164062 292.347656 686.3125 292.347656 L 686.59375 292.347656 L 693.386719 291.25 L 692.714844 294.371094 C 692.621094 294.890625 692.742188 295.355469 693.066406 295.769531 Z M 558.253906 247.195312 C 556.800781 249.578125 554.800781 251.34375 552.261719 252.5 C 546.832031 255.109375 539.140625 254.957031 529.929688 252.101562 C 541.324219 242.898438 553.683594 245.675781 558.253906 247.195312 Z M 515.507812 257.117188 C 519.609375 256.019531 523.464844 255.136719 526.117188 254.585938 C 532.449219 256.832031 538.125 257.957031 543.101562 257.957031 C 546.898438 258.035156 550.515625 257.269531 553.957031 255.664062 C 555.617188 254.886719 557.113281 253.867188 558.441406 252.601562 C 559.769531 251.339844 560.867188 249.902344 561.730469 248.285156 L 565.949219 249.230469 L 578.820312 253.253906 L 579.078125 253.597656 C 579.320312 253.914062 579.589844 254.207031 579.882812 254.480469 C 580.414062 254.949219 580.984375 255.367188 581.597656 255.726562 C 582.71875 256.375 583.894531 256.90625 585.125 257.320312 C 587.511719 258.089844 589.953125 258.617188 592.445312 258.910156 C 597.292969 259.457031 602.15625 259.636719 607.03125 259.449219 C 609.457031 259.359375 611.878906 259.238281 614.28125 259 L 621.460938 258.238281 C 623.839844 257.976562 626.21875 257.933594 628.605469 258.105469 C 630.996094 258.328125 633.351562 258.738281 635.679688 259.335938 C 633.363281 258.589844 631.007812 258.039062 628.605469 257.671875 C 626.199219 257.347656 623.78125 257.238281 621.355469 257.355469 L 614.148438 257.671875 C 611.761719 257.761719 609.367188 257.742188 606.988281 257.671875 C 602.238281 257.558594 597.523438 257.09375 592.84375 256.277344 C 590.5625 255.867188 588.34375 255.242188 586.183594 254.402344 C 585.191406 253.996094 584.25 253.492188 583.355469 252.898438 C 583.003906 252.65625 582.675781 252.386719 582.367188 252.09375 L 583.109375 244.96875 L 588.367188 244.96875 L 620.195312 253.667969 C 620.351562 253.710938 620.507812 253.730469 620.664062 253.730469 L 621.550781 253.730469 C 621.949219 253.730469 622.308594 253.605469 622.628906 253.359375 C 622.945312 253.117188 623.152344 252.800781 623.257812 252.414062 L 623.484375 251.527344 L 631.742188 220.140625 L 638.816406 220.785156 L 648.011719 252.207031 C 648.230469 252.949219 648.546875 253.648438 648.964844 254.296875 C 649.382812 254.949219 649.882812 255.53125 650.464844 256.039062 C 651.046875 256.546875 651.6875 256.964844 652.390625 257.289062 C 653.09375 257.617188 653.824219 257.839844 654.589844 257.957031 L 657.472656 258.390625 L 649.515625 266.195312 L 649.417969 266.292969 C 649.324219 266.386719 649.261719 266.492188 649.222656 266.617188 C 649.183594 266.742188 649.175781 266.867188 649.199219 266.992188 C 649.222656 267.121094 649.273438 267.234375 649.351562 267.339844 C 649.429688 267.441406 649.53125 267.519531 649.648438 267.574219 C 650.214844 267.820312 650.804688 267.996094 651.414062 268.097656 C 651.964844 268.203125 652.519531 268.28125 653.078125 268.328125 C 654.175781 268.414062 655.269531 268.414062 656.367188 268.328125 C 657.445312 268.242188 658.519531 268.105469 659.585938 267.910156 L 661.167969 267.582031 L 662.722656 267.195312 L 661.132812 267.371094 L 659.539062 267.488281 C 658.484375 267.542969 657.425781 267.542969 656.367188 267.488281 C 655.324219 267.433594 654.292969 267.296875 653.273438 267.078125 C 652.773438 266.972656 652.285156 266.835938 651.804688 266.671875 L 661.722656 259.085938 L 661.902344 258.9375 L 674.480469 248.078125 L 674.535156 248.019531 L 674.605469 247.972656 L 683.023438 240.707031 L 689.546875 241.070312 L 677.628906 264.523438 C 677.519531 264.742188 677.453125 264.976562 677.441406 265.21875 C 677.425781 265.464844 677.460938 265.703125 677.542969 265.933594 C 677.625 266.164062 677.753906 266.367188 677.921875 266.546875 C 678.089844 266.722656 678.289062 266.859375 678.515625 266.957031 L 700.511719 276.335938 L 696.621094 277.042969 L 670.8125 269.972656 C 670.476562 269.871094 670.140625 269.871094 669.804688 269.972656 L 665.382812 271.402344 C 665.042969 271.511719 664.757812 271.710938 664.535156 271.992188 C 664.3125 272.277344 664.1875 272.597656 664.160156 272.957031 C 664.136719 273.316406 664.210938 273.652344 664.390625 273.96875 C 664.570312 274.28125 664.820312 274.515625 665.144531 274.675781 L 691.882812 287.828125 L 686.363281 288.714844 L 682.917969 287.828125 C 682.585938 287.621094 682.226562 287.527344 681.839844 287.554688 L 678.070312 286.601562 L 655.253906 280.792969 L 655.074219 280.792969 L 653.6875 280.457031 C 653.609375 280.421875 653.53125 280.390625 653.449219 280.367188 C 652.183594 280.03125 650.9375 279.742188 649.699219 279.484375 L 631.71875 275.0625 C 629.78125 274.59375 627.816406 274.089844 625.820312 273.675781 C 623.820312 273.257812 621.832031 272.90625 619.824219 272.625 C 615.8125 272.046875 611.777344 271.726562 607.722656 271.660156 C 605.707031 271.660156 603.664062 271.660156 601.675781 271.746094 L 595.664062 271.941406 C 591.667969 272.058594 587.636719 272.242188 583.664062 272.289062 C 579.671875 272.242188 575.738281 271.734375 571.863281 270.765625 C 569.925781 270.296875 568.023438 269.660156 566.105469 269.078125 L 560.359375 267.308594 L 566.035156 269.289062 C 567.929688 269.933594 569.8125 270.644531 571.746094 271.191406 C 575.644531 272.308594 579.617188 272.960938 583.664062 273.144531 C 587.707031 273.25 591.691406 273.207031 595.707031 273.242188 L 601.71875 273.242188 C 603.734375 273.242188 605.699219 273.242188 607.6875 273.375 C 611.652344 273.582031 615.589844 274.039062 619.5 274.746094 C 621.449219 275.097656 623.386719 275.511719 625.308594 275.984375 C 627.226562 276.453125 629.125 277.015625 631.0625 277.566406 L 632.75 278.042969 C 626.675781 278.265625 620.707031 279.191406 614.847656 280.820312 C 613.234375 281.28125 611.589844 281.46875 609.914062 281.386719 L 573.71875 279.617188 L 562.660156 275.300781 C 562.425781 275.214844 562.183594 275.175781 561.933594 275.1875 L 556.832031 275.433594 L 555.433594 274.230469 C 555.128906 273.96875 554.769531 273.828125 554.367188 273.808594 C 536.496094 272.996094 523.898438 271.085938 515.128906 269.023438 C 516.207031 267.757812 516.9375 266.316406 517.320312 264.703125 C 517.496094 264.042969 517.585938 263.375 517.597656 262.695312 C 517.605469 262.011719 517.53125 261.339844 517.371094 260.679688 C 517.214844 260.019531 516.976562 259.386719 516.660156 258.78125 C 516.347656 258.179688 515.960938 257.625 515.507812 257.117188 Z M 511.53125 258.203125 C 512.582031 258.953125 514.652344 260.855469 513.871094 263.800781 C 513.042969 266.957031 511.316406 267.707031 510.644531 267.882812 C 506.394531 266.820312 502.339844 265.25 498.480469 263.179688 C 501.582031 261.429688 506.507812 259.707031 511.53125 258.203125 Z M 511.53125 258.203125 "/></g><g clip-rule="nonzero" clip-path="url(#bf5087381f)"><g clip-rule="nonzero" clip-path="url(#9514c75853)"><g clip-rule="nonzero" clip-path="url(#5bf1b8a6cf)"><path style=" stroke:none;fill-rule:nonzero;fill:#ffffff;fill-opacity:1;" d="M 133.464844 299.488281 C 121.105469 299.429688 109.621094 298.367188 98.34375 295.359375 C 97.035156 295.007812 95.535156 295.117188 94.167969 295.292969 C 84.890625 296.40625 75.640625 296.964844 66.46875 294.550781 C 64.6875 294.078125 62.664062 293.59375 61.378906 292.425781 C 58.835938 290.132812 56.144531 290.332031 53.15625 290.710938 C 41.09375 292.234375 29.007812 293.664062 16.9375 295.105469 C 15.988281 295.21875 15.027344 295.238281 13.695312 294.59375 C 14.324219 294.144531 14.886719 293.476562 15.582031 293.273438 C 24.824219 290.605469 34.070312 288 43.316406 285.382812 C 47.414062 284.214844 51.515625 283.074219 55.613281 281.878906 C 56.117188 281.742188 56.671875 281.460938 56.988281 281.078125 C 62.777344 274.003906 71.132812 271.972656 79.390625 270.726562 C 89.75 269.164062 100.320312 269.144531 110.726562 267.84375 C 116.390625 267.136719 121.96875 265.390625 127.480469 263.722656 C 158.636719 254.277344 189.746094 244.632812 220.90625 235.210938 C 246.429688 227.496094 271.988281 219.875 297.597656 212.417969 C 322.777344 205.09375 347.933594 197.667969 373.28125 190.949219 C 392.511719 185.855469 411.910156 181.285156 431.433594 177.503906 C 440.460938 175.753906 449.996094 175.707031 459.226562 176.234375 C 471.121094 176.910156 481.625 182.550781 491.882812 188.246094 C 495.417969 190.207031 498.523438 192.964844 502.117188 194.746094 C 504.414062 195.875 507.273438 196.207031 509.910156 196.335938 C 532.675781 197.53125 555.359375 199.710938 576.882812 207.640625 C 586.539062 211.203125 596.082031 210.980469 605.875 210.824219 C 606.96875 210.800781 608.066406 210.726562 609.148438 210.71875 C 609.898438 210.722656 610.644531 210.820312 611.453125 211.328125 C 605.238281 212.558594 598.96875 213.578125 592.828125 215.09375 C 588.851562 216.074219 584.789062 217.289062 581.222656 219.234375 C 562.828125 229.257812 543.34375 236.160156 522.917969 240.542969 C 521.210938 240.90625 519.515625 241.363281 517.382812 241.882812 C 517.710938 244.621094 518.035156 247.378906 518.371094 250.222656 C 515.882812 250.519531 513.839844 250.761719 511.453125 251.042969 C 511.160156 248.578125 510.871094 246.140625 510.523438 243.1875 C 499.78125 245.128906 489.402344 246.996094 478.738281 248.929688 C 478.847656 250.625 478.941406 252.230469 479.046875 254.023438 C 477.585938 254.195312 476.238281 254.355469 474.765625 254.53125 C 474.4375 253.019531 474.132812 251.558594 473.78125 249.957031 C 469.835938 250.609375 466.101562 251.238281 461.945312 251.929688 C 462.417969 255.925781 462.875 259.773438 463.359375 263.859375 C 458.730469 264.40625 454.527344 264.90625 449.875 265.457031 C 449.464844 261.988281 449.046875 258.445312 448.574219 254.476562 C 445.109375 255.449219 441.757812 254.253906 439.261719 257.757812 C 438.367188 259.011719 435.171875 258.65625 433 258.953125 C 427.875 259.679688 425.449219 262.214844 424.457031 267.410156 C 423.976562 269.898438 424.609375 271.28125 427.019531 272.210938 C 430.449219 273.542969 433.753906 275.15625 437.664062 276.898438 C 434.160156 280.734375 429.566406 279.167969 425.972656 280.863281 C 425.675781 283.917969 426.699219 285.652344 429.96875 286.644531 C 436.097656 288.496094 439.792969 294.78125 439.019531 300.996094 C 438.1875 307.628906 432.589844 313.078125 426.15625 313.464844 C 419.585938 313.867188 413.488281 309.550781 411.773438 303.285156 C 410.070312 297.042969 412.882812 290.203125 418.386719 287.238281 C 419.050781 286.878906 419.714844 286.507812 420.429688 286.117188 C 420.277344 284.808594 420.125 283.53125 419.945312 282.003906 C 417.886719 282.246094 415.976562 282.472656 413.261719 282.792969 C 414.210938 281.785156 414.640625 281.335938 415.234375 280.714844 C 411.339844 275.457031 407.480469 270.074219 403.390625 264.878906 C 402.648438 263.9375 400.820312 263.148438 399.652344 263.328125 C 390.457031 264.804688 381.320312 266.554688 372.160156 268.1875 C 366.597656 269.179688 364.023438 270.367188 359.09375 274.542969 C 371.578125 274.777344 383.75 274.753906 395.519531 277.996094 C 395.65625 278.355469 395.789062 278.699219 395.925781 279.058594 C 394.710938 280.179688 393.601562 281.445312 392.269531 282.378906 C 382.265625 289.417969 371.148438 294.207031 359.679688 298.238281 C 344.84375 303.441406 329.457031 306.347656 313.996094 308.859375 C 307.308594 309.945312 300.535156 310.503906 294.167969 311.257812 C 289.859375 326.230469 283.699219 332.011719 273.15625 331.683594 C 264.15625 331.398438 257.605469 324.835938 255.050781 313.429688 C 248.554688 312.40625 241.703125 312.671875 234.824219 309.207031 C 242.398438 302.070312 251.398438 298.8125 259.84375 294.511719 C 255.335938 295.046875 250.839844 295.578125 246.214844 296.125 C 245.839844 295.234375 245.484375 294.355469 245.054688 293.347656 C 233.65625 297.078125 222.371094 300.753906 210.945312 304.484375 C 210.589844 303.644531 210.296875 302.96875 209.925781 302.09375 C 205.328125 303.117188 203.761719 309.519531 198.03125 308.765625 C 199.289062 306.640625 200.496094 304.625 201.707031 302.558594 C 196.472656 300.785156 177.195312 299.175781 171.890625 300.074219 C 171.964844 301.828125 172.042969 303.609375 172.140625 305.816406 C 159.753906 307.28125 147.507812 308.730469 134.75 310.242188 C 134.335938 306.855469 133.90625 303.230469 133.464844 299.488281 Z M 330.363281 254.261719 C 329.515625 254.097656 328.667969 253.835938 327.804688 253.777344 C 325.085938 253.605469 322.347656 253.394531 319.625 253.410156 C 299.789062 253.511719 280.460938 257.347656 261.152344 261.304688 C 254.730469 262.613281 248.300781 263.871094 241.855469 265.058594 C 237.445312 265.875 233.023438 266.546875 228.605469 267.269531 C 228.644531 267.507812 228.675781 267.757812 228.714844 267.992188 C 239.082031 267.488281 249.429688 266.96875 259.796875 266.464844 C 243.003906 271.046875 226.109375 274.96875 209.207031 278.960938 C 198.140625 281.582031 187.078125 284.203125 176.0625 287.003906 C 173.9375 287.546875 172.015625 288.925781 169.992188 289.914062 C 223.808594 279.253906 277.488281 268.914062 330.363281 254.261719 Z M 417.292969 183.855469 C 424.859375 197.195312 437.550781 199.609375 451.328125 200.503906 C 453.691406 193.609375 456.089844 186.640625 458.59375 179.355469 C 444.382812 178.753906 430.75 180.566406 417.292969 183.855469 Z M 457.207031 201.050781 C 470.179688 200.90625 482.402344 200.285156 493.761719 193.167969 C 484.078125 186.882812 474.09375 182.921875 463.378906 180.046875 C 461.3125 187.066406 459.359375 193.726562 457.207031 201.050781 Z M 259.382812 235.746094 C 259.457031 236.046875 259.546875 236.34375 259.621094 236.65625 C 293.753906 228.152344 328.230469 221.582031 362.671875 217.828125 C 362.125 219.882812 361.046875 221.855469 361.214844 223.71875 C 361.902344 231.898438 362.921875 240.050781 363.886719 248.210938 C 364.46875 253.125 367.769531 255.929688 372.488281 255.703125 C 378.679688 255.398438 382.03125 252.558594 381.886719 247.160156 C 381.6875 239.726562 381.011719 232.308594 380.746094 224.871094 C 380.496094 217.789062 378.527344 215.964844 371.480469 216.609375 C 369.007812 216.835938 366.5 216.988281 364.019531 216.933594 C 360.992188 216.863281 357.910156 216 354.960938 216.386719 C 326.941406 220.066406 299.128906 224.789062 271.761719 231.945312 C 267.585938 233.027344 263.507812 234.472656 259.382812 235.746094 Z M 271.175781 239.75 C 271.089844 239.242188 270.984375 238.71875 270.898438 238.207031 C 266.707031 238.703125 262.460938 238.953125 258.316406 239.75 C 246.59375 241.992188 234.847656 244.144531 223.242188 246.910156 C 202.480469 251.839844 181.816406 257.132812 161.132812 262.375 C 158.277344 263.097656 155.554688 264.382812 152.777344 265.40625 C 152.90625 265.820312 153.035156 266.230469 153.164062 266.644531 C 192.503906 257.671875 231.847656 248.710938 271.175781 239.75 Z M 419.589844 280.9375 C 419.734375 274.675781 419.1875 273.21875 413.425781 265.894531 C 409.539062 260.941406 411.230469 261.128906 403.769531 262.894531 C 407.957031 268.574219 412.019531 274.199219 416.265625 279.699219 C 416.816406 280.410156 418.238281 280.453125 419.589844 280.9375 Z M 180.511719 269.152344 C 191.585938 271.707031 202.660156 274.246094 213.746094 276.792969 C 213.851562 276.3125 213.957031 275.847656 214.058594 275.367188 C 203.246094 271.621094 192.394531 268.042969 180.511719 269.152344 Z M 148.414062 302.851562 C 147.734375 303.535156 147.246094 304.019531 146.753906 304.519531 C 152.605469 303.585938 158.445312 303.453125 163.570312 300.710938 C 156.738281 301.011719 149.917969 301.308594 143.082031 301.609375 C 143.082031 301.71875 143.070312 301.839844 143.070312 301.945312 C 144.761719 302.242188 146.453125 302.523438 148.414062 302.851562 Z M 411.414062 261.082031 C 413.8125 264.285156 415.8125 266.960938 418.222656 270.179688 C 417.773438 266.367188 417.417969 263.378906 417.066406 260.410156 C 415.222656 260.628906 413.71875 260.808594 411.414062 261.082031 Z M 434.644531 278.042969 C 434.757812 277.75 434.855469 277.457031 434.96875 277.152344 C 431.800781 275.816406 428.636719 274.480469 425.273438 273.058594 C 424.574219 277.980469 428.96875 274.238281 429.941406 276.355469 C 428.363281 276.917969 426.875 277.441406 425.386719 277.964844 C 425.511719 278.335938 425.636719 278.710938 425.761719 279.082031 C 428.714844 278.746094 431.679688 278.394531 434.644531 278.042969 Z M 336.300781 281.507812 C 328.953125 283.097656 321.824219 284.636719 314.015625 286.324219 C 321.953125 285.382812 329.1875 284.527344 336.554688 283.65625 C 336.4375 282.652344 336.335938 281.808594 336.300781 281.507812 Z M 372.960938 196.148438 C 372.90625 195.792969 372.851562 195.453125 372.796875 195.097656 C 371.90625 194.800781 370.945312 194.128906 370.164062 194.3125 C 369.332031 194.519531 368.675781 195.503906 367.949219 196.152344 C 368.738281 196.703125 369.554688 197.726562 370.308594 197.691406 C 371.226562 197.648438 372.089844 196.703125 372.960938 196.148438 Z M 50.515625 191.066406 C 48.140625 191.535156 45.792969 192.054688 43.4375 192.453125 C 39.558594 193.113281 35.757812 193.1875 32.683594 190.128906 C 29.007812 186.503906 29.871094 182.296875 34.789062 180.953125 C 39.738281 179.605469 44.785156 178.445312 49.859375 177.714844 C 60.777344 176.125 71.714844 174.484375 82.691406 173.613281 C 89.03125 173.101562 94.890625 175.738281 99.96875 179.691406 C 100.679688 180.25 101.679688 181.496094 101.488281 181.90625 C 101.089844 182.726562 100.042969 183.46875 99.117188 183.765625 C 97.386719 184.289062 95.539062 184.480469 92.949219 184.976562 C 97.644531 188.28125 101.777344 191.226562 105.953125 194.113281 C 116.492188 201.394531 127.191406 208.441406 137.566406 215.953125 C 151.484375 226.027344 167.273438 230.597656 184.011719 232.226562 C 192.03125 233 200.148438 232.707031 208.226562 232.875 C 209.742188 232.910156 211.246094 232.867188 212.816406 233.359375 C 202.535156 236.621094 192.203125 239.757812 181.984375 243.199219 C 162.332031 249.816406 142.558594 256.179688 123.214844 263.613281 C 117.347656 265.871094 111.988281 264.835938 106.390625 265.191406 C 101.160156 265.515625 95.886719 265.671875 90.707031 266.394531 C 88.195312 266.742188 87 266.242188 85.933594 264.015625 C 74.601562 240.527344 63.191406 217.070312 51.804688 193.613281 C 51.429688 192.816406 51.035156 192.0625 50.515625 191.066406 Z M 119.261719 233.824219 C 115.214844 234.300781 111.273438 234.769531 107.015625 235.273438 C 108.773438 229.238281 110.441406 223.453125 112.125 217.679688 C 113.132812 219.765625 113.359375 221.773438 113.609375 223.789062 C 114.15625 228.1875 114.15625 228.1875 116.566406 228.089844 C 115.96875 223.039062 115.371094 218.003906 114.773438 212.957031 C 110.539062 213.753906 110.550781 213.75 109.472656 217.621094 C 107.964844 222.972656 106.335938 228.285156 104.941406 233.660156 C 104.003906 237.246094 106.296875 239.796875 107.710938 242.59375 C 107.96875 242.511719 108.226562 242.425781 108.484375 242.355469 C 108.257812 241.007812 108.019531 239.671875 107.78125 238.230469 C 111.75 237.546875 115.585938 236.878906 119.53125 236.199219 C 119.828125 238.714844 120.101562 241.023438 120.386719 243.445312 C 118.367188 243.886719 116.582031 244.257812 114.808594 244.640625 C 115.125 247.425781 118.609375 247.625 123.355469 245.261719 C 122.652344 239.316406 121.945312 233.359375 121.242188 227.414062 C 119.042969 227.566406 119.042969 227.566406 119.261719 233.824219 Z M 99.734375 202.640625 C 94.328125 203.710938 89.152344 204.722656 84.019531 205.730469 C 84.339844 208.433594 84.613281 210.742188 84.917969 213.296875 C 90.367188 212.265625 95.542969 211.289062 100.644531 210.328125 C 100.308594 207.492188 100.03125 205.160156 99.734375 202.640625 Z M 292.375 203.882812 C 289.402344 200.785156 288.632812 200.703125 284.5 203.039062 C 286.601562 205.6875 288.617188 208.375 290.789062 210.914062 C 291.300781 211.519531 292.472656 212.035156 293.191406 211.898438 C 294.746094 211.582031 296.203125 210.808594 298.15625 210.039062 C 296.078125 207.816406 294.25 205.824219 292.375 203.882812 Z M 364.679688 235.925781 C 365.078125 239.300781 365.476562 242.660156 365.875 246.035156 C 365.914062 246.367188 365.953125 246.683594 365.992188 247.011719 C 366.574219 251.726562 368.609375 253.558594 372.980469 253.320312 C 377.082031 253.089844 379.796875 250.496094 379.640625 246.359375 C 379.335938 238.386719 378.726562 230.414062 378.320312 222.445312 C 378.1875 219.878906 376.71875 218.957031 374.449219 219.105469 C 371.71875 219.28125 369.019531 219.75 366.289062 219.9375 C 363.703125 220.125 362.933594 221.417969 363.28125 223.875 C 363.847656 227.886719 364.257812 231.914062 364.734375 235.933594 C 364.71875 235.921875 364.691406 235.925781 364.679688 235.925781 Z M 98.679688 203.902344 C 94.03125 204.828125 89.617188 205.710938 85.203125 206.582031 C 85.4375 208.542969 85.625 210.125 85.789062 211.535156 C 90.363281 210.996094 94.753906 210.476562 99.390625 209.925781 C 99.125 207.671875 98.925781 205.984375 98.679688 203.902344 Z M 98.679688 203.902344 "/></g></g></g><g clip-rule="nonzero" clip-path="url(#2ca3ef81cc)"><g clip-rule="nonzero" clip-path="url(#727ca84f59)"><g clip-rule="nonzero" clip-path="url(#e94f75dfca)"><path style=" stroke:none;fill-rule:nonzero;fill:#ffffff;fill-opacity:1;" d="M 686.609375 335.523438 C 691.644531 332.917969 696.117188 330.082031 700.09375 326.496094 C 700.558594 326.078125 701.191406 325.8125 701.789062 325.597656 C 705.8125 324.113281 709.707031 322.40625 712.949219 319.503906 C 713.578125 318.9375 714.304688 318.320312 714.585938 317.570312 C 715.144531 316.105469 716.285156 315.621094 717.585938 315.152344 C 722.832031 313.253906 728.070312 311.3125 733.300781 309.378906 C 733.714844 309.226562 734.109375 309.03125 734.519531 308.492188 C 734.167969 308.4375 733.800781 308.285156 733.472656 308.347656 C 729.140625 309.1875 724.816406 310.054688 720.492188 310.917969 C 718.574219 311.296875 716.660156 311.691406 714.738281 312.058594 C 714.5 312.105469 714.214844 312.109375 714.007812 312.015625 C 710.160156 310.335938 706.324219 311.253906 702.691406 312.472656 C 698.132812 314 693.808594 316.199219 689.285156 317.84375 C 686.824219 318.738281 684.179688 319.191406 681.578125 319.664062 C 666.875 322.316406 652.148438 324.878906 637.449219 327.542969 C 625.410156 329.726562 613.371094 331.953125 601.351562 334.261719 C 589.535156 336.53125 577.703125 338.753906 565.945312 341.308594 C 557.023438 343.246094 548.140625 345.433594 539.375 347.96875 C 535.320312 349.140625 531.414062 351.117188 527.753906 353.261719 C 523.035156 356.023438 519.921875 360.523438 516.921875 364.992188 C 515.890625 366.53125 515.195312 368.308594 514.101562 369.789062 C 513.398438 370.730469 512.300781 371.464844 511.25 372.066406 C 502.195312 377.3125 493.382812 382.945312 486.25 390.683594 C 483.046875 394.15625 479.101562 396.0625 475.070312 398.042969 C 474.617188 398.265625 474.152344 398.460938 473.710938 398.6875 C 473.40625 398.84375 473.121094 399.039062 472.894531 399.417969 C 475.691406 398.621094 478.46875 397.726562 481.292969 397.0625 C 483.121094 396.632812 485.035156 396.277344 486.898438 396.328125 C 496.511719 396.578125 505.914062 395.328125 515.175781 392.847656 C 515.949219 392.640625 516.734375 392.46875 517.714844 392.238281 C 518.15625 393.425781 518.597656 394.617188 519.054688 395.851562 C 520.132812 395.453125 521.019531 395.125 522.054688 394.742188 C 521.65625 393.671875 521.265625 392.617188 520.792969 391.335938 C 525.585938 389.882812 530.214844 388.480469 534.976562 387.039062 C 535.289062 387.753906 535.585938 388.429688 535.914062 389.183594 C 536.550781 388.949219 537.132812 388.734375 537.773438 388.496094 C 537.589844 387.8125 537.410156 387.148438 537.21875 386.421875 C 538.964844 385.863281 540.625 385.339844 542.464844 384.753906 C 543.105469 386.484375 543.726562 388.152344 544.382812 389.925781 C 546.386719 389.179688 548.207031 388.503906 550.222656 387.757812 C 549.667969 386.253906 549.097656 384.71875 548.460938 383 C 550.078125 382.671875 551.199219 381.484375 552.953125 382.394531 C 553.578125 382.71875 554.8125 381.90625 555.757812 381.574219 C 558.003906 380.800781 559.527344 381.328125 561.015625 383.242188 C 561.734375 384.160156 561.765625 384.855469 560.972656 385.738281 C 559.851562 387 558.835938 388.351562 557.605469 389.878906 C 559.835938 390.714844 561.386719 389.113281 563.210938 389.054688 C 563.96875 390.242188 563.914062 391.164062 562.785156 392.253906 C 560.667969 394.292969 560.472656 397.632812 562.089844 400.007812 C 563.8125 402.546875 567.238281 403.601562 569.949219 402.414062 C 572.71875 401.207031 574.308594 398.167969 573.699219 395.25 C 573.089844 392.34375 570.511719 390.136719 567.640625 390.074219 C 567.296875 390.066406 566.945312 390.054688 566.570312 390.042969 C 566.363281 389.480469 566.15625 388.925781 565.910156 388.261719 C 566.800781 387.933594 567.628906 387.625 568.808594 387.1875 C 568.207031 386.976562 567.9375 386.878906 567.566406 386.753906 C 568.058594 383.789062 568.511719 380.78125 569.09375 377.804688 C 569.199219 377.265625 569.785156 376.5625 570.300781 376.390625 C 574.363281 375.070312 578.460938 373.878906 582.546875 372.628906 C 585.027344 371.871094 586.324219 371.820312 589.214844 372.496094 C 584.164062 375.199219 579.183594 377.734375 575.054688 381.519531 C 575.070312 381.695312 575.089844 381.863281 575.109375 382.039062 C 575.839844 382.242188 576.558594 382.527344 577.296875 382.632812 C 582.855469 383.414062 588.398438 383.050781 593.925781 382.296875 C 601.074219 381.324219 607.96875 379.292969 614.808594 377.089844 C 617.769531 376.132812 620.65625 374.949219 623.414062 373.925781 C 628.304688 379.140625 632.027344 380.214844 636.265625 377.875 C 639.886719 375.878906 641.191406 371.828125 639.847656 366.636719 C 642.289062 364.859375 645.144531 363.535156 647.230469 360.683594 C 642.644531 359.351562 638.285156 359.898438 633.9375 359.90625 C 635.890625 359.183594 637.839844 358.460938 639.84375 357.71875 C 639.808594 357.277344 639.769531 356.84375 639.734375 356.34375 C 645.171875 355.484375 650.550781 354.625 656 353.761719 C 655.96875 353.34375 655.949219 353.007812 655.914062 352.570312 C 658.007812 352.027344 659.984375 354.316406 662.167969 352.8125 C 661.210938 352.207031 660.296875 351.632812 659.371094 351.042969 C 661.136719 349.226562 668.675781 344.539062 671.03125 343.796875 C 671.371094 344.527344 671.710938 345.273438 672.128906 346.195312 C 677.5 344.203125 682.804688 342.238281 688.332031 340.1875 C 687.792969 338.71875 687.210938 337.148438 686.609375 335.523438 Z M 596.710938 358.203125 C 597.023438 357.957031 597.316406 357.675781 597.65625 357.472656 C 598.730469 356.832031 599.804688 356.171875 600.921875 355.609375 C 609.046875 351.507812 617.746094 349.035156 626.460938 346.613281 C 629.359375 345.808594 632.246094 344.976562 635.128906 344.117188 C 637.101562 343.527344 639.050781 342.875 641.003906 342.25 C 641.039062 342.351562 641.078125 342.460938 641.109375 342.566406 C 636.769531 344.527344 632.433594 346.480469 628.09375 348.4375 C 635.910156 346.800781 643.636719 344.871094 651.375 342.96875 C 656.441406 341.726562 661.511719 340.484375 666.597656 339.328125 C 667.578125 339.105469 668.652344 339.265625 669.683594 339.246094 C 645.46875 346.140625 621.378906 353.136719 596.710938 358.203125 Z M 546.480469 347.609375 C 546.175781 354.640625 541.496094 358.277344 536.054688 361.523438 C 533.648438 359.203125 531.210938 356.855469 528.664062 354.402344 C 534.34375 351.1875 540.292969 349.078125 546.480469 347.609375 Z M 533.765625 362.976562 C 528.4375 365.628906 523.3125 367.929688 517.183594 367.398438 C 519.828125 362.804688 523.078125 359.097656 526.855469 355.683594 C 529.167969 358.121094 531.355469 360.433594 533.765625 362.976562 Z M 621.84375 335.804688 C 621.875 335.941406 621.898438 336.082031 621.933594 336.222656 C 606.210938 339.882812 590.753906 344.40625 575.898438 350.070312 C 576.550781 350.796875 577.402344 351.378906 577.722656 352.175781 C 579.152344 355.660156 580.4375 359.203125 581.75 362.738281 C 582.539062 364.867188 581.777344 366.703125 579.804688 367.597656 C 577.210938 368.769531 575.246094 368.308594 574.175781 366.074219 C 572.703125 362.992188 571.429688 359.820312 569.984375 356.726562 C 568.605469 353.78125 569.027344 352.625 572.042969 351.414062 C 573.101562 350.992188 574.15625 350.527344 575.15625 349.988281 C 576.382812 349.328125 577.460938 348.328125 578.746094 347.871094 C 590.960938 343.519531 603.3125 339.632812 615.988281 336.835938 C 617.921875 336.40625 619.890625 336.144531 621.84375 335.804688 Z M 617.859375 339.902344 C 617.789062 339.675781 617.722656 339.441406 617.652344 339.214844 C 619.464844 338.542969 621.253906 337.753906 623.113281 337.214844 C 628.371094 335.679688 633.621094 334.105469 638.941406 332.808594 C 648.453125 330.484375 658.003906 328.328125 667.546875 326.144531 C 668.867188 325.84375 670.246094 325.800781 671.59375 325.636719 C 671.628906 325.832031 671.664062 326.027344 671.695312 326.222656 C 653.746094 330.78125 635.800781 335.34375 617.859375 339.902344 Z M 565.832031 387.753906 C 564.464844 385.226562 564.386719 384.515625 565.207031 380.320312 C 565.761719 377.484375 565.109375 377.914062 568.527344 377.074219 C 568 380.269531 567.519531 383.417969 566.933594 386.550781 C 566.855469 386.957031 566.285156 387.273438 565.832031 387.753906 Z M 661.046875 332.964844 C 657.054688 336.324219 653.0625 339.675781 649.066406 343.035156 C 648.921875 342.859375 648.78125 342.691406 648.640625 342.515625 C 652.277344 338.726562 655.960938 334.996094 661.046875 332.964844 Z M 681.203125 340.023438 C 681.625 340.160156 681.925781 340.257812 682.230469 340.359375 C 679.644531 341.199219 677.234375 342.367188 674.566406 342.316406 C 677.417969 341.011719 680.269531 339.707031 683.125 338.402344 C 683.144531 338.445312 683.175781 338.492188 683.199219 338.539062 C 682.570312 339.011719 681.9375 339.480469 681.203125 340.023438 Z M 565.023438 377.929688 C 564.714844 379.742188 564.457031 381.253906 564.140625 383.070312 C 563.53125 381.421875 563.050781 380.125 562.574219 378.839844 C 563.371094 378.542969 564.023438 378.300781 565.023438 377.929688 Z M 559.078125 389.71875 C 558.96875 389.621094 558.867188 389.523438 558.757812 389.417969 C 559.773438 388.210938 560.789062 387.003906 561.863281 385.722656 C 563.179688 387.585938 560.601562 386.976562 560.648438 388.042969 C 561.410156 387.945312 562.125 387.847656 562.84375 387.75 C 562.871094 387.929688 562.898438 388.105469 562.925781 388.285156 C 561.648438 388.765625 560.363281 389.242188 559.078125 389.71875 Z M 599.980469 370.574219 C 603.316406 369.691406 606.550781 368.828125 610.09375 367.886719 C 606.652344 369.160156 603.519531 370.324219 600.324219 371.507812 C 600.164062 371.074219 600.03125 370.707031 599.980469 370.574219 Z M 567.160156 343.363281 C 567.109375 343.207031 567.058594 343.058594 567.007812 342.902344 C 567.3125 342.59375 567.5625 342.117188 567.921875 342.03125 C 568.300781 341.941406 568.777344 342.207031 569.210938 342.320312 C 569.003906 342.707031 568.882812 343.296875 568.566406 343.441406 C 568.183594 343.617188 567.632812 343.410156 567.160156 343.363281 Z M 697.835938 273.890625 C 698.90625 273.585938 699.972656 273.308594 701.019531 272.976562 C 702.742188 272.4375 704.308594 271.671875 704.925781 269.78125 C 705.671875 267.53125 704.4375 265.992188 702.148438 266.472656 C 699.84375 266.953125 697.539062 267.535156 695.316406 268.296875 C 690.523438 269.929688 685.710938 271.546875 681.042969 273.484375 C 678.34375 274.601562 676.503906 276.902344 675.253906 279.582031 C 675.082031 279.957031 674.933594 280.675781 675.097656 280.800781 C 675.429688 281.054688 676.011719 281.136719 676.453125 281.066406 C 677.269531 280.917969 678.066406 280.609375 679.226562 280.269531 C 678 282.605469 676.925781 284.671875 675.824219 286.722656 C 673.039062 291.898438 670.140625 297.015625 667.472656 302.253906 C 663.894531 309.277344 658.398438 314.445312 651.898438 318.609375 C 648.785156 320.601562 645.40625 322.179688 642.140625 323.9375 C 641.53125 324.265625 640.90625 324.5625 640.367188 325.09375 C 645.25 324.277344 650.128906 323.398438 655.019531 322.667969 C 664.433594 321.265625 673.84375 319.730469 683.296875 318.726562 C 686.167969 318.421875 688.140625 316.878906 690.503906 315.851562 C 692.707031 314.894531 694.894531 313.855469 697.160156 313.066406 C 698.261719 312.683594 698.644531 312.230469 698.613281 311.097656 C 698.335938 299.132812 698.09375 287.164062 697.84375 275.199219 C 697.828125 274.796875 697.832031 274.40625 697.835938 273.890625 Z M 678.6875 305.726562 C 680.441406 305.078125 682.148438 304.445312 683.992188 303.761719 C 682.011719 301.664062 680.121094 299.648438 678.230469 297.640625 C 678.253906 298.703125 678.582031 299.570312 678.898438 300.445312 C 679.59375 302.359375 679.59375 302.359375 678.589844 302.820312 C 677.777344 300.632812 676.96875 298.453125 676.160156 296.265625 C 678.054688 295.703125 678.050781 295.707031 679.300781 297.0625 C 681.035156 298.933594 682.808594 300.761719 684.503906 302.667969 C 685.636719 303.9375 685.234375 305.457031 685.238281 306.898438 C 685.117188 306.917969 684.996094 306.9375 684.875 306.960938 C 684.683594 306.363281 684.503906 305.769531 684.296875 305.128906 C 682.535156 305.679688 680.828125 306.207031 679.074219 306.753906 C 679.476562 307.84375 679.847656 308.84375 680.238281 309.894531 C 681.15625 309.652344 681.964844 309.429688 682.769531 309.21875 C 683.21875 310.421875 681.839844 311.230469 679.40625 311.257812 C 678.449219 308.679688 677.492188 306.101562 676.539062 303.523438 C 677.46875 303.125 677.46875 303.125 678.6875 305.726562 Z M 680.148438 288.90625 C 682.582031 288.214844 684.90625 287.546875 687.214844 286.886719 C 687.648438 288.054688 688.019531 289.054688 688.429688 290.164062 C 685.984375 290.878906 683.667969 291.566406 681.382812 292.238281 C 680.925781 291.007812 680.550781 289.996094 680.148438 288.90625 Z M 601.703125 329.679688 C 602.269531 327.792969 602.566406 327.597656 604.742188 327.6875 C 604.4375 329.210938 604.175781 330.730469 603.820312 332.222656 C 603.738281 332.578125 603.367188 333.03125 603.042969 333.125 C 602.34375 333.320312 601.585938 333.308594 600.625 333.40625 C 601.011719 332.0625 601.34375 330.867188 601.703125 329.679688 Z M 578.859375 357.886719 C 579.402344 359.347656 579.941406 360.804688 580.484375 362.265625 C 580.535156 362.410156 580.585938 362.546875 580.640625 362.6875 C 581.386719 364.738281 580.9375 365.910156 579.105469 366.726562 C 577.378906 367.488281 575.730469 366.996094 574.925781 365.273438 C 573.386719 361.957031 571.96875 358.570312 570.46875 355.226562 C 569.984375 354.152344 570.394531 353.46875 571.351562 353.054688 C 572.503906 352.554688 573.703125 352.183594 574.859375 351.691406 C 575.953125 351.226562 576.539062 351.59375 576.914062 352.667969 C 577.519531 354.425781 578.191406 356.15625 578.839844 357.898438 C 578.84375 357.890625 578.855469 357.886719 578.859375 357.886719 Z M 680.84375 289.203125 C 682.933594 288.609375 684.921875 288.046875 686.90625 287.480469 C 687.222656 288.332031 687.476562 289.015625 687.703125 289.625 C 685.722656 290.363281 683.820312 291.066406 681.808594 291.8125 C 681.449219 290.835938 681.175781 290.105469 680.84375 289.203125 Z M 680.84375 289.203125 "/></g></g></g><g clip-rule="nonzero" clip-path="url(#24f6770c8b)"><g clip-rule="nonzero" clip-path="url(#4bd8dbdaed)"><g clip-rule="nonzero" clip-path="url(#1c0ba2fda5)"><path style=" stroke:none;fill-rule:nonzero;fill:#ffffff;fill-opacity:1;" d="M 218.949219 439.167969 C 220.871094 436.183594 224.632812 435.164062 228.773438 436.515625 L 235.894531 438.71875 C 239.691406 439.726562 242.640625 443.527344 243.839844 449.09375 L 248.125 468.863281 C 248.84375 472.234375 248.042969 474.414062 247.246094 475.65625 C 246.539062 476.75 243.769531 480.148438 237.6875 477.882812 L 230.40625 475.335938 C 224.683594 473.21875 221.503906 469.441406 220.605469 463.761719 L 217.90625 444.445312 C 217.628906 442.492188 217.988281 440.664062 218.949219 439.167969 Z M 218.949219 439.167969 "/></g></g></g><g clip-rule="nonzero" clip-path="url(#d593e5a613)"><g clip-rule="nonzero" clip-path="url(#41aec316e7)"><g clip-rule="nonzero" clip-path="url(#9ca44d1f77)"><path style=" stroke:none;fill-rule:nonzero;fill:#ffffff;fill-opacity:1;" d="M 269.113281 433.359375 C 269.617188 432.574219 270.230469 431.882812 270.933594 431.300781 L 275.984375 426.34375 C 278.601562 423.9375 281.578125 423.03125 284.253906 423.773438 C 286.652344 424.4375 288.46875 426.332031 289.246094 428.980469 L 294.757812 447.601562 C 296.335938 453.273438 295.125 457.835938 290.707031 462.222656 L 285.472656 467.722656 C 281.980469 471.175781 278.9375 470.929688 277.421875 470.480469 C 275.894531 470.027344 273.183594 468.574219 272.164062 463.914062 L 267.878906 444.128906 C 267.222656 441.113281 266.902344 436.792969 269.113281 433.359375 Z M 269.113281 433.359375 "/></g></g></g><g clip-rule="nonzero" clip-path="url(#ccb91cea15)"><g clip-rule="nonzero" clip-path="url(#6ebae73678)"><g clip-rule="nonzero" clip-path="url(#a3076f1f12)"><path style=" stroke:none;fill-rule:nonzero;fill:#ffffff;fill-opacity:1;" d="M 307.496094 599.835938 L 281.191406 478.46875 C 278.5625 478.820312 276.398438 478.417969 275.175781 478.054688 C 272.605469 477.289062 266.40625 474.550781 264.449219 465.589844 L 260.164062 445.820312 C 259.710938 443.757812 259.515625 441.769531 259.511719 439.855469 L 249.777344 441.96875 C 250.53125 443.648438 251.144531 445.464844 251.5625 447.417969 L 255.859375 467.214844 C 257.140625 473.214844 255.496094 477.4375 253.894531 479.929688 C 252.246094 482.488281 249.40625 484.867188 245.679688 485.9375 L 272.035156 607.523438 Z M 307.496094 599.835938 "/></g></g></g><g clip-rule="nonzero" clip-path="url(#41580e3346)"><g clip-rule="nonzero" clip-path="url(#c777d1aed7)"><g clip-rule="nonzero" clip-path="url(#2185c5411b)"><path style=" stroke:none;fill-rule:nonzero;fill:#ffffff;fill-opacity:1;" d="M 304.027344 669.480469 C 306.703125 668.90625 309.019531 668.414062 310.011719 641.277344 C 310.207031 635.929688 310.640625 619.09375 309.007812 607.589844 L 273.867188 615.210938 C 277.144531 626.363281 284.503906 641.5 286.902344 646.289062 C 299.035156 670.5625 301.351562 670.0625 304.027344 669.480469 Z M 304.027344 669.480469 "/></g></g></g><g clip-rule="nonzero" clip-path="url(#6ae9a4a1dc)"><g clip-rule="nonzero" clip-path="url(#7bb1c7c997)"><g clip-rule="nonzero" clip-path="url(#82c917146d)"><path style=" stroke:none;fill-rule:nonzero;fill:#ffffff;fill-opacity:1;" d="M 591.859375 435.230469 C 593.175781 434.601562 594.710938 435.058594 595.871094 436.425781 L 597.886719 438.734375 C 598.996094 439.910156 599.207031 441.875 598.425781 444.082031 L 595.652344 451.929688 C 595.175781 453.265625 594.421875 453.855469 593.875 454.117188 C 593.390625 454.347656 591.6875 454.9375 590.050781 452.832031 L 588.050781 450.363281 C 586.507812 448.386719 586.210938 446.378906 587.121094 444.195312 L 590.351562 436.851562 C 590.675781 436.109375 591.199219 435.546875 591.859375 435.230469 Z M 591.859375 435.230469 "/></g></g></g><g clip-rule="nonzero" clip-path="url(#79145e3af9)"><g clip-rule="nonzero" clip-path="url(#beaeb46c9d)"><g clip-rule="nonzero" clip-path="url(#1dfe958763)"><path style=" stroke:none;fill-rule:nonzero;fill:#ffffff;fill-opacity:1;" d="M 610.671875 444.039062 C 611.015625 443.875 611.382812 443.761719 611.753906 443.710938 L 614.589844 443.070312 C 616.027344 442.792969 617.265625 443.117188 618.042969 443.957031 C 618.738281 444.707031 618.964844 445.761719 618.664062 446.855469 L 616.566406 454.566406 C 615.894531 456.890625 614.484375 458.226562 611.992188 458.808594 L 608.96875 459.601562 C 607 460.054688 605.988281 459.3125 605.554688 458.828125 C 605.121094 458.339844 604.484375 457.242188 605.132812 455.390625 L 607.910156 447.539062 C 608.332031 446.34375 609.15625 444.761719 610.671875 444.039062 Z M 610.671875 444.039062 "/></g></g></g><g clip-rule="nonzero" clip-path="url(#62f147e750)"><g clip-rule="nonzero" clip-path="url(#377babc477)"><g clip-rule="nonzero" clip-path="url(#e113a4edbc)"><path style=" stroke:none;fill-rule:nonzero;fill:#ffffff;fill-opacity:1;" d="M 588.125 510.601562 L 605.148438 462.4375 C 604.152344 461.992188 603.484375 461.382812 603.132812 460.992188 C 602.398438 460.167969 600.820312 457.871094 602.070312 454.3125 L 604.847656 446.464844 C 605.132812 445.648438 605.492188 444.910156 605.90625 444.238281 L 602.042969 442.875 C 601.941406 443.625 601.765625 444.394531 601.488281 445.167969 L 598.714844 453.023438 C 597.867188 455.398438 596.378906 456.523438 595.277344 457.046875 C 594.148438 457.589844 592.640625 457.804688 591.105469 457.375 L 574.054688 505.625 Z M 588.125 510.601562 "/></g></g></g><g clip-rule="nonzero" clip-path="url(#e981b22b8c)"><g clip-rule="nonzero" clip-path="url(#9dba791c11)"><g clip-rule="nonzero" clip-path="url(#2289292167)"><path style=" stroke:none;fill-rule:nonzero;fill:#ffffff;fill-opacity:1;" d="M 571.859375 534.222656 C 572.921875 534.601562 573.835938 534.929688 580.050781 525.648438 C 581.273438 523.816406 585.0625 518.019531 586.976562 513.640625 L 573.03125 508.710938 C 571.769531 513.324219 571.074219 520.214844 570.878906 522.40625 C 569.878906 533.523438 570.796875 533.851562 571.859375 534.222656 Z M 571.859375 534.222656 "/></g></g></g></g></svg>
