<svg xmlns="http://www.w3.org/2000/svg" xmlns:xlink="http://www.w3.org/1999/xlink" width="16" zoomAndPan="magnify" viewBox="0 0 810 809.999993" height="16" preserveAspectRatio="xMidYMid meet" version="1.2"><defs><clipPath id="a733de3f72"><path d="M 493.414062 216.296875 L 708.664062 216.296875 L 708.664062 304 L 493.414062 304 Z M 493.414062 216.296875 "/></clipPath><clipPath id="b65b5222a7"><path d="M 13 173 L 612 173 L 612 332 L 13 332 Z M 13 173 "/></clipPath><clipPath id="ba3d42500a"><path d="M 0 182.933594 L 600.308594 111.875 L 621.644531 292.113281 L 21.335938 363.175781 Z M 0 182.933594 "/></clipPath><clipPath id="5a137a4ba1"><path d="M 0 182.933594 L 600.308594 111.875 L 621.644531 292.113281 L 21.335938 363.175781 Z M 0 182.933594 "/></clipPath><clipPath id="21d16ec16f"><path d="M 0 182.933594 L 600.308594 111.875 L 621.644531 292.113281 L 21.335938 363.175781 Z M 0 182.933594 "/></clipPath><clipPath id="719177a93b"><path d="M 472 266 L 735 266 L 735 403 L 472 403 Z M 472 266 "/></clipPath><clipPath id="87454ff83f"><path d="M 456.730469 356.429688 L 716.921875 259.953125 L 745.863281 338.011719 L 485.671875 434.484375 Z M 456.730469 356.429688 "/></clipPath><clipPath id="07eb653c5a"><path d="M 716.777344 260.007812 L 456.585938 356.480469 L 485.527344 434.539062 L 745.71875 338.066406 Z M 716.777344 260.007812 "/></clipPath><clipPath id="0197f06458"><path d="M 716.777344 260.007812 L 456.585938 356.480469 L 485.527344 434.539062 L 745.71875 338.066406 Z M 716.777344 260.007812 "/></clipPath><clipPath id="94d4faadfb"><path d="M 217 435 L 249 435 L 249 479 L 217 479 Z M 217 435 "/></clipPath><clipPath id="0c57eea0db"><path d="M 413.679688 506.253906 L 305.289062 674.632812 L 136.910156 566.242188 L 245.296875 397.863281 Z M 413.679688 506.253906 "/></clipPath><clipPath id="58a5a94be6"><path d="M 413.679688 506.253906 L 305.289062 674.632812 L 136.910156 566.242188 L 245.296875 397.863281 Z M 413.679688 506.253906 "/></clipPath><clipPath id="65915dff80"><path d="M 413.679688 506.253906 L 305.289062 674.632812 L 136.910156 566.242188 L 245.296875 397.863281 Z M 413.679688 506.253906 "/></clipPath><clipPath id="5afa87b0f7"><path d="M 267 423 L 296 423 L 296 471 L 267 471 Z M 267 423 "/></clipPath><clipPath id="54db5b51e2"><path d="M 413.679688 506.253906 L 305.289062 674.632812 L 136.910156 566.242188 L 245.296875 397.863281 Z M 413.679688 506.253906 "/></clipPath><clipPath id="ed7e2cbbec"><path d="M 413.679688 506.253906 L 305.289062 674.632812 L 136.910156 566.242188 L 245.296875 397.863281 Z M 413.679688 506.253906 "/></clipPath><clipPath id="807e7456f0"><path d="M 413.679688 506.253906 L 305.289062 674.632812 L 136.910156 566.242188 L 245.296875 397.863281 Z M 413.679688 506.253906 "/></clipPath><clipPath id="ab45c553fb"><path d="M 245 439 L 308 439 L 308 608 L 245 608 Z M 245 439 "/></clipPath><clipPath id="5823646dc8"><path d="M 413.679688 506.253906 L 305.289062 674.632812 L 136.910156 566.242188 L 245.296875 397.863281 Z M 413.679688 506.253906 "/></clipPath><clipPath id="d5d1f06029"><path d="M 413.679688 506.253906 L 305.289062 674.632812 L 136.910156 566.242188 L 245.296875 397.863281 Z M 413.679688 506.253906 "/></clipPath><clipPath id="550fcb348b"><path d="M 413.679688 506.253906 L 305.289062 674.632812 L 136.910156 566.242188 L 245.296875 397.863281 Z M 413.679688 506.253906 "/></clipPath><clipPath id="78e58e093f"><path d="M 273 607 L 311 607 L 311 670 L 273 670 Z M 273 607 "/></clipPath><clipPath id="89e2c82dd7"><path d="M 413.679688 506.253906 L 305.289062 674.632812 L 136.910156 566.242188 L 245.296875 397.863281 Z M 413.679688 506.253906 "/></clipPath><clipPath id="fd059d136b"><path d="M 413.679688 506.253906 L 305.289062 674.632812 L 136.910156 566.242188 L 245.296875 397.863281 Z M 413.679688 506.253906 "/></clipPath><clipPath id="26d2f5df3b"><path d="M 413.679688 506.253906 L 305.289062 674.632812 L 136.910156 566.242188 L 245.296875 397.863281 Z M 413.679688 506.253906 "/></clipPath><clipPath id="d8ea100af0"><path d="M 586 434 L 599 434 L 599 455 L 586 455 Z M 586 434 "/></clipPath><clipPath id="3d26087be5"><path d="M 645.511719 500.792969 L 571.070312 536.355469 L 535.507812 461.914062 L 609.953125 426.351562 Z M 645.511719 500.792969 "/></clipPath><clipPath id="1776970fcc"><path d="M 645.511719 500.792969 L 571.070312 536.355469 L 535.507812 461.914062 L 609.953125 426.351562 Z M 645.511719 500.792969 "/></clipPath><clipPath id="91f17c0440"><path d="M 645.511719 500.792969 L 571.070312 536.355469 L 535.507812 461.914062 L 609.953125 426.351562 Z M 645.511719 500.792969 "/></clipPath><clipPath id="f9fc1066f0"><path d="M 604 442 L 619 442 L 619 460 L 604 460 Z M 604 442 "/></clipPath><clipPath id="3a6123625f"><path d="M 645.511719 500.792969 L 571.070312 536.355469 L 535.507812 461.914062 L 609.953125 426.351562 Z M 645.511719 500.792969 "/></clipPath><clipPath id="978a1d122b"><path d="M 645.511719 500.792969 L 571.070312 536.355469 L 535.507812 461.914062 L 609.953125 426.351562 Z M 645.511719 500.792969 "/></clipPath><clipPath id="6eed9adab1"><path d="M 645.511719 500.792969 L 571.070312 536.355469 L 535.507812 461.914062 L 609.953125 426.351562 Z M 645.511719 500.792969 "/></clipPath><clipPath id="1ebf08990a"><path d="M 573 442 L 606 442 L 606 511 L 573 511 Z M 573 442 "/></clipPath><clipPath id="c7eefb3937"><path d="M 645.511719 500.792969 L 571.070312 536.355469 L 535.507812 461.914062 L 609.953125 426.351562 Z M 645.511719 500.792969 "/></clipPath><clipPath id="93addf37f0"><path d="M 645.511719 500.792969 L 571.070312 536.355469 L 535.507812 461.914062 L 609.953125 426.351562 Z M 645.511719 500.792969 "/></clipPath><clipPath id="3ad564774c"><path d="M 645.511719 500.792969 L 571.070312 536.355469 L 535.507812 461.914062 L 609.953125 426.351562 Z M 645.511719 500.792969 "/></clipPath><clipPath id="fe5873bc46"><path d="M 570 508 L 587 508 L 587 535 L 570 535 Z M 570 508 "/></clipPath><clipPath id="cc9d342757"><path d="M 645.511719 500.792969 L 571.070312 536.355469 L 535.507812 461.914062 L 609.953125 426.351562 Z M 645.511719 500.792969 "/></clipPath><clipPath id="cd3456130a"><path d="M 645.511719 500.792969 L 571.070312 536.355469 L 535.507812 461.914062 L 609.953125 426.351562 Z M 645.511719 500.792969 "/></clipPath><clipPath id="e3cb48be54"><path d="M 645.511719 500.792969 L 571.070312 536.355469 L 535.507812 461.914062 L 609.953125 426.351562 Z M 645.511719 500.792969 "/></clipPath></defs><g id="321013a9ea"><g clip-rule="nonzero" clip-path="url(#a733de3f72)"><path style=" stroke:none;fill-rule:nonzero;fill:#ffffff;fill-opacity:1;" d="M 509.851562 271.375 C 509.957031 271.417969 510.066406 271.445312 510.175781 271.464844 C 519.210938 273.949219 532.96875 276.371094 553.570312 277.34375 L 555.0625 278.601562 C 555.421875 278.902344 555.835938 279.042969 556.300781 279.023438 L 561.730469 278.769531 L 572.703125 283.054688 C 572.882812 283.125 573.066406 283.164062 573.257812 283.171875 L 606.113281 284.78125 C 605.285156 285.609375 604.578125 286.53125 603.992188 287.546875 C 603.722656 288.019531 603.59375 288.523438 603.601562 289.066406 C 603.613281 289.609375 603.757812 290.109375 604.042969 290.570312 C 605.882812 293.761719 613.945312 296.28125 622.609375 296.414062 L 623.328125 296.414062 C 628.582031 296.453125 633.824219 296.210938 639.054688 295.691406 C 640.601562 297.105469 644.589844 299.226562 654.605469 299.226562 C 655.933594 299.226562 657.367188 299.1875 658.902344 299.113281 L 666.164062 299.113281 C 667.765625 299.695312 669.421875 299.992188 671.132812 299.996094 L 690.148438 299.996094 L 693.191406 303.035156 C 693.535156 303.382812 693.949219 303.554688 694.4375 303.558594 L 695.320312 303.558594 C 695.589844 303.5625 695.84375 303.511719 696.089844 303.398438 C 696.332031 303.289062 696.539062 303.128906 696.710938 302.925781 C 696.882812 302.71875 697.003906 302.488281 697.066406 302.226562 C 697.132812 301.96875 697.140625 301.707031 697.089844 301.445312 L 696.53125 298.660156 C 696.925781 298.308594 697.125 297.871094 697.125 297.34375 L 697.125 294.691406 C 697.125 294.175781 696.9375 293.742188 696.558594 293.390625 L 697.089844 290.925781 C 697.097656 290.820312 697.097656 290.710938 697.089844 290.605469 L 697.972656 290.464844 C 698.351562 290.402344 698.679688 290.234375 698.949219 289.960938 C 699.21875 289.6875 699.382812 289.359375 699.4375 288.980469 C 699.496094 288.597656 699.433594 288.238281 699.253906 287.898438 C 699.078125 287.554688 698.8125 287.300781 698.46875 287.132812 L 671.28125 273.753906 L 696.125 280.554688 C 696.386719 280.613281 696.648438 280.613281 696.914062 280.554688 L 706.992188 278.722656 C 707.375 278.65625 707.703125 278.476562 707.96875 278.191406 C 708.238281 277.90625 708.394531 277.570312 708.4375 277.179688 C 708.480469 276.792969 708.40625 276.429688 708.207031 276.089844 C 708.011719 275.753906 707.730469 275.507812 707.371094 275.355469 L 681.730469 264.402344 L 694.019531 240.210938 C 694.085938 240.082031 694.136719 239.941406 694.167969 239.800781 C 694.203125 239.65625 694.214844 239.511719 694.210938 239.363281 C 694.207031 239.21875 694.183594 239.074219 694.144531 238.933594 C 694.105469 238.792969 694.050781 238.65625 693.976562 238.53125 C 693.902344 238.402344 693.816406 238.285156 693.714844 238.179688 C 693.609375 238.074219 693.496094 237.984375 693.371094 237.90625 C 693.246094 237.832031 693.113281 237.769531 692.976562 237.726562 C 692.835938 237.683594 692.691406 237.65625 692.542969 237.648438 L 682.597656 237.097656 C 682.121094 237.070312 681.703125 237.210938 681.34375 237.523438 L 672.386719 245.257812 L 672.332031 245.3125 L 672.261719 245.367188 L 660.832031 255.234375 L 655.183594 254.347656 C 654.75 254.285156 654.332031 254.164062 653.933594 253.984375 C 653.535156 253.804688 653.167969 253.570312 652.835938 253.285156 C 652.503906 253 652.21875 252.675781 651.980469 252.308594 C 651.742188 251.941406 651.558594 251.550781 651.433594 251.128906 L 641.882812 218.558594 C 641.78125 218.210938 641.589844 217.921875 641.308594 217.691406 C 641.03125 217.460938 640.707031 217.328125 640.347656 217.292969 L 630.558594 216.410156 C 630.351562 216.390625 630.144531 216.40625 629.941406 216.460938 C 629.742188 216.515625 629.554688 216.601562 629.382812 216.722656 C 629.210938 216.839844 629.066406 216.988281 628.945312 217.160156 C 628.824219 217.328125 628.738281 217.515625 628.683594 217.71875 L 620.1875 250.015625 L 589.058594 241.503906 C 588.90625 241.460938 588.75 241.441406 588.589844 241.441406 L 581.515625 241.441406 C 581.296875 241.4375 581.085938 241.476562 580.878906 241.554688 C 580.675781 241.632812 580.492188 241.746094 580.328125 241.890625 C 580.164062 242.035156 580.03125 242.207031 579.933594 242.402344 C 579.832031 242.597656 579.773438 242.804688 579.75 243.023438 L 579.058594 249.636719 L 566.882812 245.824219 L 566.742188 245.824219 L 561.359375 244.621094 C 559.289062 243.738281 541.113281 236.816406 525.789062 251.078125 C 524.023438 251.449219 517.832031 252.765625 511.28125 254.613281 C 504.546875 256.558594 497.410156 259.097656 494.261719 261.835938 C 494.078125 261.996094 493.933594 262.1875 493.828125 262.410156 C 493.722656 262.632812 493.667969 262.863281 493.660156 263.109375 C 493.648438 263.351562 493.691406 263.589844 493.78125 263.816406 C 493.871094 264.042969 494 264.246094 494.175781 264.417969 C 494.421875 264.667969 497.992188 268.070312 509.851562 271.375 Z M 621.167969 292.835938 C 613.53125 292.460938 608.234375 290.183594 607.21875 288.996094 C 607.839844 287.933594 608.65625 287.046875 609.660156 286.335938 C 610.664062 285.625 611.773438 285.152344 612.984375 284.921875 C 613.195312 284.894531 613.394531 284.832031 613.582031 284.734375 C 614.332031 284.621094 615.066406 284.460938 615.792969 284.257812 C 616.484375 284.0625 617.316406 283.84375 618.269531 283.605469 C 618.378906 283.800781 618.519531 283.972656 618.695312 284.117188 C 618.695312 284.117188 622.070312 286.945312 621.167969 292.835938 Z M 639.109375 292.117188 C 634.328125 292.621094 629.53125 292.878906 624.722656 292.886719 C 625.007812 291.105469 624.933594 289.335938 624.507812 287.582031 C 624.078125 285.828125 623.328125 284.226562 622.257812 282.773438 C 627.28125 281.820312 632.351562 281.425781 637.464844 281.589844 C 642.578125 281.753906 647.609375 282.46875 652.566406 283.738281 C 652.65625 283.757812 652.746094 283.773438 652.839844 283.78125 L 654.210938 284.167969 L 654.414062 284.167969 L 668.109375 287.652344 C 663.953125 288.042969 658.808594 288.394531 653.554688 288.394531 C 643.839844 288.449219 640.363281 290.578125 639.117188 292.117188 Z M 662.386719 294.027344 L 662.238281 294.144531 C 661.765625 294.496094 661.53125 294.96875 661.53125 295.558594 L 658.769531 295.558594 C 648.929688 296.070312 644.464844 294.753906 642.566406 293.789062 C 643.742188 293.0625 646.648438 291.96875 653.527344 291.96875 C 661.589844 291.902344 669.609375 291.28125 677.585938 290.109375 L 678.46875 290.332031 L 677.710938 291.09375 L 671.140625 291.09375 C 669.5625 291.097656 668.027344 291.351562 666.53125 291.855469 C 665.035156 292.355469 663.65625 293.082031 662.394531 294.027344 Z M 693.058594 295.796875 C 693.121094 295.875 693.191406 295.949219 693.269531 296.015625 C 693.195312 296.082031 693.128906 296.152344 693.066406 296.230469 C 692.753906 296.609375 692.625 297.046875 692.675781 297.539062 L 692.128906 296.988281 C 691.785156 296.644531 691.371094 296.46875 690.882812 296.46875 L 671.132812 296.46875 C 669.621094 296.46875 668.171875 296.175781 666.78125 295.582031 C 668.171875 294.992188 669.621094 294.699219 671.132812 294.699219 L 678.433594 294.699219 C 678.921875 294.699219 679.335938 294.523438 679.679688 294.179688 L 682.449219 291.410156 L 685.878906 292.292969 C 686.019531 292.332031 686.164062 292.347656 686.3125 292.347656 L 686.59375 292.347656 L 693.386719 291.25 L 692.714844 294.371094 C 692.621094 294.890625 692.742188 295.355469 693.066406 295.769531 Z M 558.253906 247.195312 C 556.800781 249.578125 554.800781 251.34375 552.261719 252.5 C 546.832031 255.109375 539.140625 254.957031 529.929688 252.101562 C 541.324219 242.898438 553.683594 245.675781 558.253906 247.195312 Z M 515.507812 257.117188 C 519.609375 256.019531 523.464844 255.136719 526.117188 254.585938 C 532.449219 256.832031 538.125 257.957031 543.101562 257.957031 C 546.898438 258.035156 550.515625 257.269531 553.957031 255.664062 C 555.617188 254.886719 557.113281 253.867188 558.441406 252.601562 C 559.769531 251.339844 560.867188 249.902344 561.730469 248.285156 L 565.949219 249.230469 L 578.820312 253.253906 L 579.078125 253.597656 C 579.320312 253.914062 579.589844 254.207031 579.882812 254.480469 C 580.414062 254.949219 580.984375 255.367188 581.597656 255.726562 C 582.71875 256.375 583.894531 256.90625 585.125 257.320312 C 587.511719 258.089844 589.953125 258.617188 592.445312 258.910156 C 597.292969 259.457031 602.15625 259.636719 607.03125 259.449219 C 609.457031 259.359375 611.878906 259.238281 614.28125 259 L 621.460938 258.238281 C 623.839844 257.976562 626.21875 257.933594 628.605469 258.105469 C 630.996094 258.328125 633.351562 258.738281 635.679688 259.335938 C 633.363281 258.589844 631.007812 258.039062 628.605469 257.671875 C 626.199219 257.347656 623.78125 257.238281 621.355469 257.355469 L 614.148438 257.671875 C 611.761719 257.761719 609.367188 257.742188 606.988281 257.671875 C 602.238281 257.558594 597.523438 257.09375 592.84375 256.277344 C 590.5625 255.867188 588.34375 255.242188 586.183594 254.402344 C 585.191406 253.996094 584.25 253.492188 583.355469 252.898438 C 583.003906 252.65625 582.675781 252.386719 582.367188 252.09375 L 583.109375 244.96875 L 588.367188 244.96875 L 620.195312 253.667969 C 620.351562 253.710938 620.507812 253.730469 620.664062 253.730469 L 621.550781 253.730469 C 621.949219 253.730469 622.308594 253.605469 622.628906 253.359375 C 622.945312 253.117188 623.152344 252.800781 623.257812 252.414062 L 623.484375 251.527344 L 631.742188 220.140625 L 638.816406 220.785156 L 648.011719 252.207031 C 648.230469 252.949219 648.546875 253.648438 648.964844 254.296875 C 649.382812 254.949219 649.882812 255.53125 650.464844 256.039062 C 651.046875 256.546875 651.6875 256.964844 652.390625 257.289062 C 653.09375 257.617188 653.824219 257.839844 654.589844 257.957031 L 657.472656 258.390625 L 649.515625 266.195312 L 649.417969 266.292969 C 649.324219 266.386719 649.261719 266.492188 649.222656 266.617188 C 649.183594 266.742188 649.175781 266.867188 649.199219 266.992188 C 649.222656 267.121094 649.273438 267.234375 649.351562 267.339844 C 649.429688 267.441406 649.53125 267.519531 649.648438 267.574219 C 650.214844 267.820312 650.804688 267.996094 651.414062 268.097656 C 651.964844 268.203125 652.519531 268.28125 653.078125 268.328125 C 654.175781 268.414062 655.269531 268.414062 656.367188 268.328125 C 657.445312 268.242188 658.519531 268.105469 659.585938 267.910156 L 661.167969 267.582031 L 662.722656 267.195312 L 661.132812 267.371094 L 659.539062 267.488281 C 658.484375 267.542969 657.425781 267.542969 656.367188 267.488281 C 655.324219 267.433594 654.292969 267.296875 653.273438 267.078125 C 652.773438 266.972656 652.285156 266.835938 651.804688 266.671875 L 661.722656 259.085938 L 661.902344 258.9375 L 674.480469 248.078125 L 674.535156 248.019531 L 674.605469 247.972656 L 683.023438 240.707031 L 689.546875 241.070312 L 677.628906 264.523438 C 677.519531 264.742188 677.453125 264.976562 677.441406 265.21875 C 677.425781 265.464844 677.460938 265.703125 677.542969 265.933594 C 677.625 266.164062 677.753906 266.367188 677.921875 266.546875 C 678.089844 266.722656 678.289062 266.859375 678.515625 266.957031 L 700.511719 276.335938 L 696.621094 277.042969 L 670.8125 269.972656 C 670.476562 269.871094 670.140625 269.871094 669.804688 269.972656 L 665.382812 271.402344 C 665.042969 271.511719 664.757812 271.710938 664.535156 271.992188 C 664.3125 272.277344 664.1875 272.597656 664.160156 272.957031 C 664.136719 273.316406 664.210938 273.652344 664.390625 273.96875 C 664.570312 274.28125 664.820312 274.515625 665.144531 274.675781 L 691.882812 287.828125 L 686.363281 288.714844 L 682.917969 287.828125 C 682.585938 287.621094 682.226562 287.527344 681.839844 287.554688 L 678.070312 286.601562 L 655.253906 280.792969 L 655.074219 280.792969 L 653.6875 280.457031 C 653.609375 280.421875 653.53125 280.390625 653.449219 280.367188 C 652.183594 280.03125 650.9375 279.742188 649.699219 279.484375 L 631.71875 275.0625 C 629.78125 274.59375 627.816406 274.089844 625.820312 273.675781 C 623.820312 273.257812 621.832031 272.90625 619.824219 272.625 C 615.8125 272.046875 611.777344 271.726562 607.722656 271.660156 C 605.707031 271.660156 603.664062 271.660156 601.675781 271.746094 L 595.664062 271.941406 C 591.667969 272.058594 587.636719 272.242188 583.664062 272.289062 C 579.671875 272.242188 575.738281 271.734375 571.863281 270.765625 C 569.925781 270.296875 568.023438 269.660156 566.105469 269.078125 L 560.359375 267.308594 L 566.035156 269.289062 C 567.929688 269.933594 569.8125 270.644531 571.746094 271.191406 C 575.644531 272.308594 579.617188 272.960938 583.664062 273.144531 C 587.707031 273.25 591.691406 273.207031 595.707031 273.242188 L 601.71875 273.242188 C 603.734375 273.242188 605.699219 273.242188 607.6875 273.375 C 611.652344 273.582031 615.589844 274.039062 619.5 274.746094 C 621.449219 275.097656 623.386719 275.511719 625.308594 275.984375 C 627.226562 276.453125 629.125 277.015625 631.0625 277.566406 L 632.75 278.042969 C 626.675781 278.265625 620.707031 279.191406 614.847656 280.820312 C 613.234375 281.28125 611.589844 281.46875 609.914062 281.386719 L 573.71875 279.617188 L 562.660156 275.300781 C 562.425781 275.214844 562.183594 275.175781 561.933594 275.1875 L 556.832031 275.433594 L 555.433594 274.230469 C 555.128906 273.96875 554.769531 273.828125 554.367188 273.808594 C 536.496094 272.996094 523.898438 271.085938 515.128906 269.023438 C 516.207031 267.757812 516.9375 266.316406 517.320312 264.703125 C 517.496094 264.042969 517.585938 263.375 517.597656 262.695312 C 517.605469 262.011719 517.53125 261.339844 517.371094 260.679688 C 517.214844 260.019531 516.976562 259.386719 516.660156 258.78125 C 516.347656 258.179688 515.960938 257.625 515.507812 257.117188 Z M 511.53125 258.203125 C 512.582031 258.953125 514.652344 260.855469 513.871094 263.800781 C 513.042969 266.957031 511.316406 267.707031 510.644531 267.882812 C 506.394531 266.820312 502.339844 265.25 498.480469 263.179688 C 501.582031 261.429688 506.507812 259.707031 511.53125 258.203125 Z M 511.53125 258.203125 "/></g><g clip-rule="nonzero" clip-path="url(#b65b5222a7)"><g clip-rule="nonzero" clip-path="url(#ba3d42500a)"><g clip-rule="nonzero" clip-path="url(#5a137a4ba1)"><g clip-rule="nonzero" clip-path="url(#21d16ec16f)"><path style=" stroke:none;fill-rule:nonzero;fill:#000000;fill-opacity:1;" d="M 133.511719 299.628906 C 121.152344 299.566406 109.664062 298.503906 98.382812 295.492188 C 97.074219 295.136719 95.574219 295.25 94.207031 295.425781 C 84.925781 296.535156 75.671875 297.097656 66.496094 294.675781 C 64.714844 294.203125 62.695312 293.722656 61.40625 292.550781 C 58.863281 290.253906 56.171875 290.453125 53.179688 290.835938 C 41.117188 292.355469 29.027344 293.785156 16.953125 295.230469 C 16.003906 295.34375 15.042969 295.363281 13.710938 294.71875 C 14.335938 294.269531 14.898438 293.597656 15.597656 293.394531 C 24.839844 290.722656 34.089844 288.117188 43.339844 285.496094 C 47.4375 284.328125 51.542969 283.1875 55.636719 281.992188 C 56.140625 281.855469 56.699219 281.574219 57.011719 281.1875 C 62.804688 274.109375 71.160156 272.074219 79.421875 270.828125 C 89.785156 269.269531 100.359375 269.246094 110.765625 267.949219 C 116.429688 267.238281 122.011719 265.492188 127.523438 263.824219 C 158.6875 254.367188 189.804688 244.71875 220.972656 235.289062 C 246.503906 227.570312 272.070312 219.941406 297.683594 212.480469 C 322.871094 205.148438 348.035156 197.714844 373.386719 190.996094 C 392.625 185.894531 412.027344 181.324219 431.554688 177.539062 C 440.582031 175.789062 450.125 175.742188 459.355469 176.269531 C 471.253906 176.949219 481.761719 182.59375 492.023438 188.296875 C 495.558594 190.261719 498.664062 193.023438 502.257812 194.808594 C 504.558594 195.941406 507.417969 196.269531 510.054688 196.398438 C 532.828125 197.597656 555.519531 199.78125 577.046875 207.722656 C 586.707031 211.289062 596.253906 211.070312 606.046875 210.914062 C 607.140625 210.890625 608.242188 210.8125 609.324219 210.804688 C 610.074219 210.8125 610.820312 210.910156 611.628906 211.417969 C 605.410156 212.648438 599.140625 213.671875 592.996094 215.1875 C 589.023438 216.167969 584.957031 217.382812 581.390625 219.332031 C 562.992188 229.363281 543.503906 236.273438 523.074219 240.65625 C 521.363281 241.019531 519.667969 241.476562 517.535156 241.996094 C 517.863281 244.738281 518.1875 247.496094 518.523438 250.347656 C 516.035156 250.640625 513.988281 250.882812 511.605469 251.167969 C 511.3125 248.699219 511.023438 246.257812 510.671875 243.300781 C 499.925781 245.242188 489.546875 247.113281 478.878906 249.046875 C 478.988281 250.746094 479.085938 252.351562 479.191406 254.148438 C 477.726562 254.320312 476.382812 254.480469 474.90625 254.65625 C 474.578125 253.140625 474.273438 251.679688 473.921875 250.074219 C 469.976562 250.730469 466.238281 251.359375 462.082031 252.050781 C 462.558594 256.050781 463.011719 259.902344 463.496094 263.992188 C 458.871094 264.539062 454.664062 265.039062 450.011719 265.589844 C 449.597656 262.117188 449.179688 258.570312 448.710938 254.597656 C 445.242188 255.570312 441.890625 254.375 439.390625 257.882812 C 438.5 259.136719 435.300781 258.78125 433.128906 259.078125 C 428.003906 259.804688 425.574219 262.339844 424.585938 267.542969 C 424.105469 270.035156 424.738281 271.417969 427.148438 272.347656 C 430.582031 273.683594 433.886719 275.296875 437.796875 277.042969 C 434.292969 280.882812 429.695312 279.3125 426.101562 281.007812 C 425.808594 284.066406 426.828125 285.808594 430.101562 286.796875 C 436.230469 288.65625 439.929688 294.945312 439.15625 301.167969 C 438.324219 307.808594 432.726562 313.261719 426.289062 313.648438 C 419.71875 314.050781 413.617188 309.726562 411.898438 303.457031 C 410.199219 297.207031 413.011719 290.359375 418.515625 287.394531 C 419.179688 287.035156 419.84375 286.660156 420.558594 286.269531 C 420.40625 284.960938 420.253906 283.683594 420.074219 282.152344 C 418.015625 282.394531 416.105469 282.621094 413.390625 282.941406 C 414.339844 281.933594 414.765625 281.480469 415.363281 280.863281 C 411.464844 275.597656 407.601562 270.207031 403.511719 265.003906 C 402.773438 264.0625 400.941406 263.277344 399.773438 263.453125 C 390.574219 264.929688 381.4375 266.683594 372.273438 268.316406 C 366.710938 269.308594 364.136719 270.496094 359.203125 274.679688 C 371.691406 274.914062 383.867188 274.890625 395.640625 278.140625 C 395.777344 278.496094 395.910156 278.84375 396.046875 279.203125 C 394.832031 280.324219 393.722656 281.589844 392.390625 282.523438 C 382.382812 289.570312 371.265625 294.363281 359.792969 298.398438 C 344.953125 303.605469 329.5625 306.511719 314.097656 309.027344 C 307.410156 310.113281 300.632812 310.671875 294.261719 311.425781 C 289.953125 326.414062 283.796875 332.199219 273.25 331.871094 C 264.242188 331.585938 257.691406 325.015625 255.136719 313.597656 C 248.636719 312.574219 241.785156 312.835938 234.902344 309.367188 C 242.480469 302.222656 251.480469 298.964844 259.925781 294.660156 C 255.417969 295.191406 250.921875 295.726562 246.292969 296.273438 C 245.921875 295.378906 245.5625 294.5 245.136719 293.492188 C 233.734375 297.226562 222.445312 300.902344 211.015625 304.636719 C 210.660156 303.796875 210.367188 303.121094 209.996094 302.242188 C 205.398438 303.269531 203.832031 309.675781 198.101562 308.921875 C 199.359375 306.792969 200.5625 304.777344 201.777344 302.707031 C 196.539062 300.929688 177.257812 299.320312 171.949219 300.214844 C 172.023438 301.972656 172.101562 303.757812 172.203125 305.964844 C 159.808594 307.433594 147.5625 308.882812 134.800781 310.394531 C 134.386719 307.003906 133.957031 303.375 133.511719 299.628906 Z M 330.464844 254.371094 C 329.613281 254.203125 328.769531 253.945312 327.90625 253.886719 C 325.183594 253.710938 322.445312 253.5 319.71875 253.515625 C 299.878906 253.617188 280.550781 257.457031 261.230469 261.417969 C 254.808594 262.726562 248.378906 263.980469 241.929688 265.171875 C 237.523438 265.988281 233.097656 266.660156 228.675781 267.382812 C 228.71875 267.621094 228.746094 267.871094 228.789062 268.105469 C 239.15625 267.601562 249.511719 267.085938 259.878906 266.582031 C 243.082031 271.164062 226.179688 275.09375 209.273438 279.085938 C 198.207031 281.707031 187.140625 284.328125 176.121094 287.132812 C 173.996094 287.679688 172.074219 289.054688 170.050781 290.046875 C 223.878906 279.378906 277.574219 269.035156 330.464844 254.371094 Z M 417.414062 183.898438 C 424.984375 197.25 437.675781 199.667969 451.457031 200.566406 C 453.820312 193.664062 456.21875 186.691406 458.722656 179.394531 C 444.507812 178.789062 430.875 180.605469 417.414062 183.898438 Z M 457.335938 201.113281 C 470.316406 200.96875 482.542969 200.351562 493.902344 193.226562 C 484.214844 186.933594 474.226562 182.964844 463.511719 180.085938 C 461.441406 187.113281 459.492188 193.78125 457.335938 201.113281 Z M 259.460938 235.832031 C 259.535156 236.128906 259.625 236.425781 259.699219 236.738281 C 293.839844 228.226562 328.328125 221.65625 362.777344 217.902344 C 362.230469 219.957031 361.15625 221.933594 361.320312 223.800781 C 362.011719 231.988281 363.03125 240.148438 363.996094 248.316406 C 364.578125 253.238281 367.878906 256.042969 372.597656 255.820312 C 378.792969 255.515625 382.144531 252.667969 382 247.269531 C 381.800781 239.824219 381.125 232.398438 380.855469 224.953125 C 380.605469 217.863281 378.636719 216.035156 371.589844 216.683594 C 369.117188 216.910156 366.605469 217.058594 364.128906 217.003906 C 361.097656 216.933594 358.015625 216.070312 355.066406 216.457031 C 327.039062 220.136719 299.214844 224.863281 271.84375 232.023438 C 267.667969 233.105469 263.585938 234.550781 259.460938 235.832031 Z M 271.257812 239.839844 C 271.171875 239.328125 271.066406 238.804688 270.980469 238.292969 C 266.789062 238.789062 262.539062 239.039062 258.398438 239.835938 C 246.671875 242.082031 234.921875 244.234375 223.308594 247 C 202.542969 251.933594 181.875 257.230469 161.1875 262.476562 C 158.332031 263.203125 155.609375 264.488281 152.828125 265.511719 C 152.957031 265.925781 153.085938 266.335938 153.214844 266.75 C 192.566406 257.769531 231.917969 248.804688 271.257812 239.839844 Z M 419.71875 281.082031 C 419.859375 274.816406 419.3125 273.355469 413.550781 266.023438 C 409.664062 261.066406 411.355469 261.253906 403.890625 263.019531 C 408.082031 268.707031 412.144531 274.339844 416.390625 279.84375 C 416.941406 280.554688 418.367188 280.601562 419.71875 281.082031 Z M 180.570312 269.265625 C 191.648438 271.820312 202.726562 274.363281 213.816406 276.917969 C 213.921875 276.4375 214.023438 275.96875 214.128906 275.488281 C 203.3125 271.738281 192.457031 268.152344 180.570312 269.265625 Z M 148.46875 302.996094 C 147.789062 303.679688 147.296875 304.164062 146.808594 304.664062 C 152.660156 303.730469 158.5 303.601562 163.628906 300.851562 C 156.792969 301.152344 149.972656 301.453125 143.136719 301.753906 C 143.132812 301.859375 143.121094 301.984375 143.121094 302.089844 C 144.8125 302.386719 146.503906 302.667969 148.46875 302.996094 Z M 411.539062 261.207031 C 413.9375 264.414062 415.9375 267.09375 418.351562 270.3125 C 417.898438 266.5 417.546875 263.503906 417.195312 260.535156 C 415.347656 260.753906 413.84375 260.933594 411.539062 261.207031 Z M 434.777344 278.191406 C 434.890625 277.894531 434.988281 277.601562 435.097656 277.296875 C 431.933594 275.957031 428.765625 274.621094 425.402344 273.199219 C 424.703125 278.125 429.097656 274.378906 430.070312 276.5 C 428.496094 277.058594 427.003906 277.585938 425.515625 278.109375 C 425.640625 278.480469 425.765625 278.855469 425.890625 279.226562 C 428.84375 278.890625 431.8125 278.539062 434.777344 278.191406 Z M 336.40625 281.644531 C 329.054688 283.238281 321.921875 284.777344 314.117188 286.464844 C 322.050781 285.527344 329.289062 284.667969 336.660156 283.796875 C 336.542969 282.792969 336.441406 281.949219 336.40625 281.644531 Z M 373.066406 196.199219 C 373.011719 195.84375 372.957031 195.5 372.902344 195.148438 C 372.011719 194.851562 371.050781 194.175781 370.269531 194.363281 C 369.4375 194.566406 368.78125 195.554688 368.054688 196.203125 C 368.84375 196.75 369.660156 197.777344 370.417969 197.742188 C 371.335938 197.699219 372.199219 196.757812 373.066406 196.199219 Z M 50.53125 191.082031 C 48.152344 191.550781 45.808594 192.066406 43.449219 192.46875 C 39.570312 193.128906 35.769531 193.203125 32.691406 190.140625 C 29.015625 186.507812 29.878906 182.300781 34.800781 180.953125 C 39.746094 179.605469 44.796875 178.445312 49.871094 177.710938 C 60.792969 176.125 71.734375 174.480469 82.714844 173.609375 C 89.058594 173.101562 94.917969 175.738281 100 179.699219 C 100.707031 180.257812 101.710938 181.503906 101.515625 181.914062 C 101.121094 182.738281 100.070312 183.476562 99.144531 183.773438 C 97.414062 184.300781 95.566406 184.492188 92.976562 184.984375 C 97.671875 188.296875 101.804688 191.246094 105.984375 194.136719 C 116.527344 201.425781 127.226562 208.480469 137.609375 216 C 151.53125 226.089844 167.328125 230.667969 184.070312 232.296875 C 192.089844 233.074219 200.210938 232.78125 208.292969 232.949219 C 209.804688 232.984375 211.3125 232.941406 212.878906 233.4375 C 202.597656 236.699219 192.261719 239.835938 182.042969 243.28125 C 162.382812 249.902344 142.605469 256.273438 123.257812 263.714844 C 117.390625 265.972656 112.027344 264.9375 106.425781 265.292969 C 101.199219 265.617188 95.921875 265.773438 90.742188 266.492188 C 88.230469 266.84375 87.03125 266.34375 85.96875 264.113281 C 74.628906 240.597656 63.210938 217.117188 51.820312 193.628906 C 51.445312 192.832031 51.050781 192.078125 50.53125 191.082031 Z M 119.300781 233.890625 C 115.253906 234.371094 111.3125 234.835938 107.050781 235.339844 C 108.808594 229.296875 110.476562 223.507812 112.160156 217.730469 C 113.167969 219.816406 113.394531 221.824219 113.644531 223.84375 C 114.195312 228.246094 114.195312 228.246094 116.601562 228.148438 C 116.003906 223.09375 115.40625 218.054688 114.808594 213 C 110.570312 213.796875 110.585938 213.796875 109.507812 217.667969 C 108 223.027344 106.371094 228.34375 104.976562 233.726562 C 104.039062 237.316406 106.332031 239.867188 107.746094 242.671875 C 108.003906 242.585938 108.261719 242.503906 108.519531 242.433594 C 108.292969 241.082031 108.054688 239.742188 107.816406 238.300781 C 111.785156 237.617188 115.625 236.949219 119.566406 236.265625 C 119.867188 238.789062 120.140625 241.097656 120.425781 243.523438 C 118.40625 243.964844 116.621094 244.335938 114.847656 244.71875 C 115.164062 247.503906 118.648438 247.707031 123.394531 245.339844 C 122.691406 239.390625 121.984375 233.425781 121.28125 227.472656 C 119.082031 227.628906 119.082031 227.628906 119.300781 233.890625 Z M 99.761719 202.671875 C 94.355469 203.742188 89.179688 204.753906 84.046875 205.765625 C 84.367188 208.46875 84.640625 210.777344 84.941406 213.339844 C 90.394531 212.304688 95.574219 211.332031 100.671875 210.367188 C 100.339844 207.527344 100.0625 205.195312 99.761719 202.671875 Z M 292.460938 203.933594 C 289.488281 200.832031 288.714844 200.75 284.582031 203.085938 C 286.6875 205.742188 288.703125 208.433594 290.875 210.972656 C 291.386719 211.578125 292.558594 212.097656 293.277344 211.957031 C 294.832031 211.640625 296.289062 210.867188 298.246094 210.097656 C 296.164062 207.871094 294.335938 205.878906 292.460938 203.933594 Z M 364.789062 236.019531 C 365.1875 239.398438 365.585938 242.761719 365.984375 246.140625 C 366.023438 246.46875 366.0625 246.785156 366.101562 247.117188 C 366.6875 251.835938 368.722656 253.671875 373.09375 253.433594 C 377.195312 253.203125 379.910156 250.605469 379.753906 246.464844 C 379.449219 238.484375 378.839844 230.503906 378.429688 222.523438 C 378.300781 219.957031 376.828125 219.035156 374.558594 219.183594 C 371.824219 219.359375 369.125 219.824219 366.394531 220.015625 C 363.808594 220.199219 363.042969 221.496094 363.386719 223.957031 C 363.953125 227.96875 364.363281 232.003906 364.839844 236.027344 C 364.828125 236.015625 364.800781 236.019531 364.789062 236.019531 Z M 98.710938 203.933594 C 94.058594 204.859375 89.644531 205.746094 85.230469 206.613281 C 85.460938 208.582031 85.648438 210.164062 85.816406 211.574219 C 90.390625 211.035156 94.78125 210.515625 99.421875 209.964844 C 99.15625 207.710938 98.957031 206.019531 98.710938 203.933594 Z M 98.710938 203.933594 "/></g></g></g></g><g clip-rule="nonzero" clip-path="url(#719177a93b)"><g clip-rule="nonzero" clip-path="url(#87454ff83f)"><g clip-rule="nonzero" clip-path="url(#07eb653c5a)"><g clip-rule="nonzero" clip-path="url(#0197f06458)"><path style=" stroke:none;fill-rule:nonzero;fill:#000000;fill-opacity:1;" d="M 686.59375 335.566406 C 691.632812 332.957031 696.105469 330.121094 700.085938 326.535156 C 700.546875 326.117188 701.183594 325.847656 701.78125 325.632812 C 705.804688 324.148438 709.703125 322.441406 712.949219 319.535156 C 713.578125 318.972656 714.300781 318.351562 714.585938 317.605469 C 715.144531 316.136719 716.285156 315.652344 717.585938 315.183594 C 722.835938 313.285156 728.074219 311.339844 733.3125 309.40625 C 733.722656 309.253906 734.121094 309.058594 734.53125 308.519531 C 734.179688 308.464844 733.808594 308.3125 733.480469 308.375 C 729.144531 309.214844 724.820312 310.082031 720.492188 310.945312 C 718.574219 311.328125 716.660156 311.71875 714.734375 312.085938 C 714.5 312.136719 714.214844 312.136719 714.003906 312.046875 C 710.160156 310.367188 706.320312 311.28125 702.683594 312.5 C 698.121094 314.03125 693.796875 316.230469 689.269531 317.875 C 686.808594 318.769531 684.160156 319.226562 681.5625 319.695312 C 666.847656 322.347656 652.113281 324.914062 637.40625 327.578125 C 625.359375 329.765625 613.316406 331.992188 601.289062 334.300781 C 589.464844 336.574219 577.628906 338.796875 565.859375 341.351562 C 556.933594 343.292969 548.046875 345.480469 539.277344 348.019531 C 535.222656 349.191406 531.3125 351.167969 527.648438 353.3125 C 522.929688 356.074219 519.816406 360.578125 516.8125 365.050781 C 515.777344 366.59375 515.085938 368.371094 513.988281 369.847656 C 513.285156 370.792969 512.1875 371.523438 511.136719 372.128906 C 502.078125 377.378906 493.261719 383.011719 486.125 390.757812 C 482.921875 394.230469 478.972656 396.136719 474.9375 398.121094 C 474.484375 398.339844 474.019531 398.539062 473.578125 398.761719 C 473.269531 398.921875 472.988281 399.117188 472.761719 399.492188 C 475.558594 398.695312 478.335938 397.804688 481.164062 397.136719 C 482.992188 396.707031 484.910156 396.355469 486.773438 396.402344 C 496.390625 396.65625 505.796875 395.402344 515.0625 392.921875 C 515.835938 392.710938 516.625 392.542969 517.605469 392.308594 C 518.046875 393.5 518.488281 394.695312 518.945312 395.925781 C 520.027344 395.527344 520.914062 395.199219 521.945312 394.816406 C 521.550781 393.746094 521.160156 392.691406 520.683594 391.410156 C 525.480469 389.957031 530.113281 388.550781 534.878906 387.109375 C 535.1875 387.824219 535.484375 388.503906 535.816406 389.257812 C 536.449219 389.019531 537.035156 388.804688 537.675781 388.566406 C 537.492188 387.882812 537.3125 387.21875 537.117188 386.492188 C 538.867188 385.933594 540.527344 385.410156 542.371094 384.824219 C 543.011719 386.554688 543.628906 388.226562 544.289062 389.996094 C 546.292969 389.253906 548.117188 388.578125 550.132812 387.828125 C 549.574219 386.324219 549.003906 384.789062 548.367188 383.070312 C 549.988281 382.742188 551.109375 381.550781 552.863281 382.460938 C 553.488281 382.789062 554.722656 381.972656 555.671875 381.640625 C 557.917969 380.867188 559.441406 381.394531 560.929688 383.3125 C 561.648438 384.230469 561.679688 384.925781 560.890625 385.808594 C 559.765625 387.070312 558.75 388.421875 557.519531 389.953125 C 559.75 390.789062 561.300781 389.1875 563.125 389.128906 C 563.886719 390.316406 563.832031 391.238281 562.699219 392.328125 C 560.585938 394.367188 560.386719 397.710938 562.003906 400.085938 C 563.730469 402.625 567.15625 403.679688 569.871094 402.492188 C 572.640625 401.285156 574.230469 398.246094 573.621094 395.324219 C 573.011719 392.417969 570.429688 390.207031 567.5625 390.148438 C 567.214844 390.140625 566.863281 390.128906 566.488281 390.117188 C 566.28125 389.550781 566.074219 388.996094 565.828125 388.332031 C 566.71875 388.003906 567.546875 387.695312 568.726562 387.257812 C 568.125 387.046875 567.855469 386.949219 567.484375 386.824219 C 567.976562 383.859375 568.429688 380.851562 569.015625 377.871094 C 569.121094 377.332031 569.703125 376.625 570.21875 376.457031 C 574.285156 375.136719 578.386719 373.941406 582.472656 372.691406 C 584.953125 371.933594 586.253906 371.882812 589.144531 372.558594 C 584.089844 375.265625 579.109375 377.800781 574.976562 381.589844 C 574.996094 381.761719 575.011719 381.933594 575.03125 382.105469 C 575.761719 382.308594 576.480469 382.597656 577.21875 382.699219 C 582.78125 383.484375 588.328125 383.117188 593.859375 382.367188 C 601.011719 381.390625 607.910156 379.359375 614.753906 377.152344 C 617.714844 376.199219 620.601562 375.011719 623.363281 373.988281 C 628.253906 379.207031 631.980469 380.28125 636.222656 377.941406 C 639.84375 375.945312 641.148438 371.890625 639.808594 366.695312 C 642.25 364.917969 645.105469 363.59375 647.191406 360.738281 C 642.601562 359.40625 638.242188 359.957031 633.890625 359.964844 C 635.847656 359.238281 637.792969 358.515625 639.800781 357.773438 C 639.765625 357.332031 639.730469 356.894531 639.691406 356.394531 C 645.132812 355.535156 650.515625 354.679688 655.964844 353.8125 C 655.933594 353.394531 655.914062 353.058594 655.882812 352.621094 C 657.976562 352.082031 659.957031 354.367188 662.140625 352.863281 C 661.179688 352.257812 660.265625 351.6875 659.339844 351.09375 C 661.109375 349.273438 668.652344 344.585938 671.007812 343.84375 C 671.34375 344.574219 671.6875 345.320312 672.105469 346.242188 C 677.476562 344.25 682.785156 342.285156 688.316406 340.230469 C 687.777344 338.761719 687.195312 337.191406 686.59375 335.566406 Z M 596.648438 358.257812 C 596.957031 358.011719 597.25 357.730469 597.589844 357.523438 C 598.664062 356.886719 599.742188 356.226562 600.859375 355.664062 C 608.988281 351.558594 617.691406 349.085938 626.414062 346.664062 C 629.3125 345.855469 632.199219 345.023438 635.085938 344.164062 C 637.058594 343.574219 639.007812 342.921875 640.964844 342.292969 C 640.996094 342.398438 641.035156 342.507812 641.070312 342.613281 C 636.726562 344.574219 632.386719 346.527344 628.042969 348.488281 C 635.867188 346.847656 643.59375 344.917969 651.339844 343.015625 C 656.410156 341.773438 661.480469 340.53125 666.570312 339.371094 C 667.550781 339.148438 668.625 339.3125 669.660156 339.292969 C 645.429688 346.1875 621.324219 353.191406 596.648438 358.257812 Z M 546.386719 347.65625 C 546.082031 354.691406 541.398438 358.332031 535.953125 361.582031 C 533.546875 359.257812 531.109375 356.910156 528.5625 354.457031 C 534.246094 351.238281 540.195312 349.128906 546.386719 347.65625 Z M 533.667969 363.035156 C 528.332031 365.6875 523.207031 367.992188 517.074219 367.457031 C 519.71875 362.863281 522.972656 359.152344 526.75 355.738281 C 529.0625 358.175781 531.253906 360.488281 533.667969 363.035156 Z M 621.789062 335.84375 C 621.820312 335.984375 621.847656 336.121094 621.882812 336.265625 C 606.152344 339.925781 590.683594 344.453125 575.820312 350.121094 C 576.472656 350.847656 577.324219 351.429688 577.648438 352.226562 C 579.074219 355.710938 580.363281 359.257812 581.675781 362.796875 C 582.464844 364.925781 581.703125 366.761719 579.730469 367.65625 C 577.132812 368.828125 575.167969 368.367188 574.097656 366.132812 C 572.625 363.050781 571.351562 359.875 569.902344 356.78125 C 568.527344 353.832031 568.949219 352.675781 571.964844 351.464844 C 573.023438 351.042969 574.078125 350.578125 575.082031 350.039062 C 576.304688 349.375 577.382812 348.378906 578.667969 347.921875 C 590.890625 343.5625 603.25 339.675781 615.933594 336.878906 C 617.867188 336.449219 619.835938 336.1875 621.789062 335.84375 Z M 617.804688 339.949219 C 617.734375 339.722656 617.667969 339.484375 617.597656 339.257812 C 619.414062 338.585938 621.203125 337.796875 623.0625 337.257812 C 628.324219 335.722656 633.574219 334.148438 638.898438 332.847656 C 648.414062 330.523438 657.96875 328.363281 667.519531 326.179688 C 668.839844 325.882812 670.222656 325.835938 671.570312 325.675781 C 671.605469 325.871094 671.636719 326.066406 671.671875 326.261719 C 653.714844 330.820312 635.757812 335.386719 617.804688 339.949219 Z M 565.75 387.824219 C 564.382812 385.292969 564.300781 384.582031 565.125 380.386719 C 565.675781 377.546875 565.023438 377.976562 568.445312 377.140625 C 567.921875 380.335938 567.4375 383.484375 566.851562 386.621094 C 566.773438 387.027344 566.203125 387.34375 565.75 387.824219 Z M 661.015625 333.007812 C 657.023438 336.367188 653.027344 339.71875 649.027344 343.082031 C 648.886719 342.90625 648.746094 342.738281 648.601562 342.5625 C 652.242188 338.769531 655.925781 335.035156 661.015625 333.007812 Z M 681.183594 340.070312 C 681.605469 340.207031 681.910156 340.300781 682.210938 340.402344 C 679.625 341.246094 677.210938 342.414062 674.542969 342.363281 C 677.398438 341.058594 680.25 339.753906 683.105469 338.445312 C 683.128906 338.492188 683.160156 338.539062 683.179688 338.582031 C 682.550781 339.054688 681.917969 339.523438 681.183594 340.070312 Z M 564.941406 377.996094 C 564.628906 379.808594 564.371094 381.320312 564.058594 383.140625 C 563.445312 381.488281 562.964844 380.191406 562.488281 378.90625 C 563.289062 378.609375 563.941406 378.367188 564.941406 377.996094 Z M 558.992188 389.789062 C 558.882812 389.691406 558.78125 389.59375 558.671875 389.492188 C 559.6875 388.285156 560.703125 387.074219 561.78125 385.792969 C 563.09375 387.65625 560.515625 387.046875 560.5625 388.117188 C 561.324219 388.015625 562.042969 387.917969 562.757812 387.820312 C 562.785156 388 562.8125 388.175781 562.839844 388.355469 C 561.5625 388.835938 560.277344 389.3125 558.992188 389.789062 Z M 599.917969 370.636719 C 603.253906 369.75 606.488281 368.890625 610.035156 367.945312 C 606.59375 369.222656 603.457031 370.382812 600.261719 371.570312 C 600.101562 371.132812 599.964844 370.769531 599.917969 370.636719 Z M 567.078125 343.410156 C 567.027344 343.253906 566.976562 343.105469 566.925781 342.945312 C 567.230469 342.640625 567.480469 342.164062 567.839844 342.074219 C 568.222656 341.984375 568.695312 342.25 569.128906 342.363281 C 568.921875 342.753906 568.800781 343.34375 568.484375 343.488281 C 568.101562 343.660156 567.550781 343.457031 567.078125 343.410156 Z M 697.828125 273.898438 C 698.894531 273.59375 699.960938 273.3125 701.011719 272.984375 C 702.734375 272.441406 704.300781 271.679688 704.921875 269.785156 C 705.664062 267.535156 704.429688 265.996094 702.140625 266.476562 C 699.835938 266.957031 697.53125 267.539062 695.300781 268.300781 C 690.507812 269.9375 685.691406 271.554688 681.023438 273.492188 C 678.324219 274.609375 676.480469 276.910156 675.230469 279.589844 C 675.058594 279.96875 674.910156 280.6875 675.074219 280.8125 C 675.40625 281.066406 675.992188 281.148438 676.433594 281.078125 C 677.25 280.929688 678.042969 280.621094 679.207031 280.28125 C 677.976562 282.617188 676.90625 284.683594 675.800781 286.738281 C 673.015625 291.917969 670.117188 297.035156 667.445312 302.277344 C 663.863281 309.304688 658.363281 314.476562 651.863281 318.644531 C 648.746094 320.636719 645.367188 322.214844 642.101562 323.972656 C 641.488281 324.304688 640.863281 324.601562 640.328125 325.128906 C 645.210938 324.3125 650.089844 323.433594 654.988281 322.703125 C 664.40625 321.300781 673.820312 319.765625 683.28125 318.757812 C 686.152344 318.453125 688.125 316.910156 690.488281 315.882812 C 692.695312 314.925781 694.882812 313.886719 697.152344 313.097656 C 698.25 312.714844 698.632812 312.261719 698.605469 311.128906 C 698.324219 299.152344 698.082031 287.179688 697.832031 275.210938 C 697.816406 274.804688 697.820312 274.414062 697.828125 273.898438 Z M 678.667969 305.753906 C 680.421875 305.101562 682.128906 304.46875 683.976562 303.785156 C 681.992188 301.6875 680.101562 299.671875 678.207031 297.664062 C 678.230469 298.726562 678.558594 299.59375 678.878906 300.46875 C 679.574219 302.382812 679.574219 302.382812 678.570312 302.84375 C 677.757812 300.65625 676.949219 298.472656 676.136719 296.285156 C 678.035156 295.726562 678.03125 295.726562 679.28125 297.082031 C 681.015625 298.957031 682.792969 300.785156 684.484375 302.691406 C 685.621094 303.960938 685.214844 305.484375 685.222656 306.921875 C 685.101562 306.941406 684.976562 306.960938 684.855469 306.988281 C 684.667969 306.390625 684.484375 305.792969 684.28125 305.152344 C 682.515625 305.703125 680.808594 306.234375 679.054688 306.78125 C 679.457031 307.871094 679.828125 308.871094 680.21875 309.921875 C 681.136719 309.679688 681.945312 309.457031 682.75 309.246094 C 683.203125 310.449219 681.820312 311.261719 679.386719 311.285156 C 678.429688 308.707031 677.472656 306.125 676.515625 303.546875 C 677.449219 303.152344 677.449219 303.152344 678.667969 305.753906 Z M 680.128906 288.921875 C 682.5625 288.230469 684.886719 287.5625 687.195312 286.898438 C 687.632812 288.070312 688.003906 289.070312 688.414062 290.179688 C 685.96875 290.898438 683.648438 291.582031 681.363281 292.253906 C 680.90625 291.027344 680.53125 290.015625 680.128906 288.921875 Z M 601.636719 329.71875 C 602.207031 327.832031 602.503906 327.636719 604.683594 327.726562 C 604.375 329.25 604.113281 330.769531 603.757812 332.261719 C 603.675781 332.617188 603.304688 333.074219 602.980469 333.167969 C 602.28125 333.363281 601.523438 333.351562 600.5625 333.445312 C 600.949219 332.101562 601.277344 330.90625 601.636719 329.71875 Z M 578.785156 357.941406 C 579.328125 359.402344 579.867188 360.859375 580.410156 362.324219 C 580.460938 362.464844 580.511719 362.601562 580.566406 362.746094 C 581.3125 364.796875 580.863281 365.96875 579.027344 366.785156 C 577.304688 367.550781 575.652344 367.058594 574.851562 365.332031 C 573.304688 362.011719 571.886719 358.625 570.386719 355.28125 C 569.90625 354.207031 570.3125 353.519531 571.273438 353.105469 C 572.425781 352.609375 573.625 352.234375 574.78125 351.742188 C 575.878906 351.277344 576.460938 351.644531 576.835938 352.722656 C 577.441406 354.480469 578.117188 356.210938 578.761719 357.953125 C 578.765625 357.945312 578.777344 357.941406 578.785156 357.941406 Z M 680.824219 289.21875 C 682.917969 288.625 684.90625 288.0625 686.890625 287.496094 C 687.207031 288.347656 687.460938 289.03125 687.6875 289.644531 C 685.703125 290.378906 683.800781 291.082031 681.789062 291.828125 C 681.429688 290.851562 681.15625 290.121094 680.824219 289.21875 Z M 680.824219 289.21875 "/></g></g></g></g><g clip-rule="nonzero" clip-path="url(#94d4faadfb)"><g clip-rule="nonzero" clip-path="url(#0c57eea0db)"><g clip-rule="nonzero" clip-path="url(#58a5a94be6)"><g clip-rule="nonzero" clip-path="url(#65915dff80)"><path style=" stroke:none;fill-rule:nonzero;fill:#000000;fill-opacity:1;" d="M 218.949219 439.167969 C 220.871094 436.183594 224.632812 435.164062 228.773438 436.515625 L 235.894531 438.71875 C 239.691406 439.726562 242.640625 443.527344 243.839844 449.09375 L 248.125 468.863281 C 248.84375 472.234375 248.042969 474.414062 247.246094 475.65625 C 246.539062 476.75 243.769531 480.148438 237.6875 477.882812 L 230.40625 475.335938 C 224.683594 473.21875 221.503906 469.441406 220.605469 463.761719 L 217.90625 444.445312 C 217.628906 442.492188 217.988281 440.664062 218.949219 439.167969 Z M 218.949219 439.167969 "/></g></g></g></g><g clip-rule="nonzero" clip-path="url(#5afa87b0f7)"><g clip-rule="nonzero" clip-path="url(#54db5b51e2)"><g clip-rule="nonzero" clip-path="url(#ed7e2cbbec)"><g clip-rule="nonzero" clip-path="url(#807e7456f0)"><path style=" stroke:none;fill-rule:nonzero;fill:#000000;fill-opacity:1;" d="M 269.113281 433.359375 C 269.617188 432.574219 270.230469 431.882812 270.933594 431.300781 L 275.984375 426.34375 C 278.601562 423.9375 281.578125 423.03125 284.253906 423.773438 C 286.652344 424.4375 288.46875 426.332031 289.246094 428.980469 L 294.757812 447.601562 C 296.335938 453.273438 295.125 457.835938 290.707031 462.222656 L 285.472656 467.722656 C 281.980469 471.175781 278.9375 470.929688 277.421875 470.480469 C 275.894531 470.027344 273.183594 468.574219 272.164062 463.914062 L 267.878906 444.128906 C 267.222656 441.113281 266.902344 436.792969 269.113281 433.359375 Z M 269.113281 433.359375 "/></g></g></g></g><g clip-rule="nonzero" clip-path="url(#ab45c553fb)"><g clip-rule="nonzero" clip-path="url(#5823646dc8)"><g clip-rule="nonzero" clip-path="url(#d5d1f06029)"><g clip-rule="nonzero" clip-path="url(#550fcb348b)"><path style=" stroke:none;fill-rule:nonzero;fill:#000000;fill-opacity:1;" d="M 307.496094 599.835938 L 281.191406 478.46875 C 278.5625 478.820312 276.398438 478.417969 275.175781 478.054688 C 272.605469 477.289062 266.40625 474.550781 264.449219 465.589844 L 260.164062 445.820312 C 259.710938 443.757812 259.515625 441.769531 259.511719 439.855469 L 249.777344 441.96875 C 250.53125 443.648438 251.144531 445.464844 251.5625 447.417969 L 255.859375 467.214844 C 257.140625 473.214844 255.496094 477.4375 253.894531 479.929688 C 252.246094 482.488281 249.40625 484.867188 245.679688 485.9375 L 272.035156 607.523438 Z M 307.496094 599.835938 "/></g></g></g></g><g clip-rule="nonzero" clip-path="url(#78e58e093f)"><g clip-rule="nonzero" clip-path="url(#89e2c82dd7)"><g clip-rule="nonzero" clip-path="url(#fd059d136b)"><g clip-rule="nonzero" clip-path="url(#26d2f5df3b)"><path style=" stroke:none;fill-rule:nonzero;fill:#000000;fill-opacity:1;" d="M 304.027344 669.480469 C 306.703125 668.90625 309.019531 668.414062 310.011719 641.277344 C 310.207031 635.929688 310.640625 619.09375 309.007812 607.589844 L 273.867188 615.210938 C 277.144531 626.363281 284.503906 641.5 286.902344 646.289062 C 299.035156 670.5625 301.351562 670.0625 304.027344 669.480469 Z M 304.027344 669.480469 "/></g></g></g></g><g clip-rule="nonzero" clip-path="url(#d8ea100af0)"><g clip-rule="nonzero" clip-path="url(#3d26087be5)"><g clip-rule="nonzero" clip-path="url(#1776970fcc)"><g clip-rule="nonzero" clip-path="url(#91f17c0440)"><path style=" stroke:none;fill-rule:nonzero;fill:#000000;fill-opacity:1;" d="M 591.773438 435.128906 C 593.09375 434.496094 594.632812 434.953125 595.792969 436.324219 L 597.8125 438.636719 C 598.921875 439.8125 599.132812 441.785156 598.351562 443.996094 L 595.574219 451.851562 C 595.097656 453.191406 594.34375 453.78125 593.796875 454.042969 C 593.3125 454.273438 591.605469 454.867188 589.964844 452.753906 L 587.960938 450.285156 C 586.414062 448.304688 586.117188 446.292969 587.03125 444.109375 L 590.265625 436.753906 C 590.589844 436.007812 591.113281 435.445312 591.773438 435.128906 Z M 591.773438 435.128906 "/></g></g></g></g><g clip-rule="nonzero" clip-path="url(#f9fc1066f0)"><g clip-rule="nonzero" clip-path="url(#3a6123625f)"><g clip-rule="nonzero" clip-path="url(#978a1d122b)"><g clip-rule="nonzero" clip-path="url(#6eed9adab1)"><path style=" stroke:none;fill-rule:nonzero;fill:#000000;fill-opacity:1;" d="M 610.617188 443.949219 C 610.960938 443.785156 611.328125 443.675781 611.699219 443.621094 L 614.542969 442.980469 C 615.980469 442.699219 617.222656 443.027344 618 443.867188 C 618.695312 444.617188 618.921875 445.675781 618.621094 446.773438 L 616.523438 454.496094 C 615.847656 456.824219 614.4375 458.160156 611.9375 458.742188 L 608.910156 459.535156 C 606.941406 459.992188 605.925781 459.246094 605.492188 458.761719 C 605.054688 458.273438 604.421875 457.175781 605.070312 455.320312 L 607.851562 447.457031 C 608.273438 446.257812 609.097656 444.675781 610.617188 443.949219 Z M 610.617188 443.949219 "/></g></g></g></g><g clip-rule="nonzero" clip-path="url(#1ebf08990a)"><g clip-rule="nonzero" clip-path="url(#c7eefb3937)"><g clip-rule="nonzero" clip-path="url(#93addf37f0)"><g clip-rule="nonzero" clip-path="url(#3ad564774c)"><path style=" stroke:none;fill-rule:nonzero;fill:#000000;fill-opacity:1;" d="M 588.035156 510.617188 L 605.085938 462.375 C 604.089844 461.929688 603.417969 461.320312 603.066406 460.929688 C 602.332031 460.105469 600.75 457.804688 602.003906 454.238281 L 604.78125 446.382812 C 605.070312 445.558594 605.429688 444.820312 605.84375 444.148438 L 601.972656 442.785156 C 601.875 443.535156 601.695312 444.304688 601.421875 445.078125 L 598.640625 452.949219 C 597.792969 455.328125 596.300781 456.453125 595.199219 456.980469 C 594.066406 457.519531 592.558594 457.738281 591.019531 457.308594 L 573.941406 505.632812 Z M 588.035156 510.617188 "/></g></g></g></g><g clip-rule="nonzero" clip-path="url(#fe5873bc46)"><g clip-rule="nonzero" clip-path="url(#cc9d342757)"><g clip-rule="nonzero" clip-path="url(#cd3456130a)"><g clip-rule="nonzero" clip-path="url(#e3cb48be54)"><path style=" stroke:none;fill-rule:nonzero;fill:#000000;fill-opacity:1;" d="M 571.746094 534.277344 C 572.808594 534.65625 573.726562 534.984375 579.945312 525.6875 C 581.171875 523.855469 584.96875 518.046875 586.886719 513.660156 L 572.917969 508.726562 C 571.652344 513.34375 570.957031 520.242188 570.761719 522.441406 C 569.757812 533.578125 570.679688 533.902344 571.746094 534.277344 Z M 571.746094 534.277344 "/></g></g></g></g></g></svg>
