<svg xmlns="http://www.w3.org/2000/svg" xmlns:xlink="http://www.w3.org/1999/xlink" width="40" zoomAndPan="magnify" viewBox="0 0 120 119.999999" height="40" preserveAspectRatio="xMidYMid meet" version="1.2">
  <defs>
    <clipPath id="fbe6b9dae9">
      <path d="M 23 10 L 91 10 L 91 103 L 23 103 Z M 23 10 "/>
    </clipPath>
    <clipPath id="46436f2ddb">
      <path d="M 94.347656 13.175781 L 88.304688 105.976562 L 21.695312 101.640625 L 27.738281 8.835938 Z M 94.347656 13.175781 "/>
    </clipPath>
    <clipPath id="61780fc81c">
      <path d="M 94.347656 13.175781 L 88.304688 105.976562 L 21.695312 101.640625 L 27.738281 8.835938 Z M 94.347656 13.175781 "/>
    </clipPath>
  </defs>
  <g id="06b06cf7da">
    <!-- Les traits existants restent inchangés -->
    <path
      style="fill:none;stroke-width:3;stroke-linecap:butt;stroke-linejoin:miter;stroke:#000000;stroke-opacity:1;stroke-miterlimit:4;"
      d="M 0.00198614 1.497855 L 6.591713 1.49951 "
      transform="matrix(0.0140383,-0.749869,0.749869,0.0140383,33.923653,64.695306)"
    />
    <path
      style="fill:none;stroke-width:3;stroke-linecap:butt;stroke-linejoin:miter;stroke:#000000;stroke-opacity:1;stroke-miterlimit:4;"
      d="M -0.00239697 1.498978 L 6.592538 1.500536 "
      transform="matrix(0.0140383,-0.749869,0.749869,0.0140383,77.723653,64.188097)"
    />
    <path
      style="fill:none;stroke-width:3;stroke-linecap:butt;stroke-linejoin:miter;stroke:#000000;stroke-opacity:1;stroke-miterlimit:4;"
      d="M -0.000893393 1.501041 L 6.593944 1.497391 "
      transform="matrix(0.0140383,-0.749869,0.749869,0.0140383,49.073648,37.54857)"
    />
    <path
      style="fill:none;stroke-width:3;stroke-linecap:butt;stroke-linejoin:miter;stroke:#000000;stroke-opacity:1;stroke-miterlimit:4;"
      d="M 0.00226041 1.499941 L 6.591988 1.501596 "
      transform="matrix(0.0140383,-0.749869,0.749869,0.0140383,62.273647,37.527513)"
    />

    <!-- Tracé principal rouge avec contour noir -->
    <g clip-rule="nonzero" clip-path="url(#fbe6b9dae9)">
      <g clip-rule="nonzero" clip-path="url(#46436f2ddb)">
        <g clip-rule="nonzero" clip-path="url(#61780fc81c)">
          <path
            style="stroke:#000000;stroke-width:2;fill-rule:nonzero;fill:#a81e1e;fill-opacity:1;"
            d="M 61.148438 34.019531 C 61.148438 34.019531 60.917969 15.035156 56.902344 10.734375 C 56.902344 10.734375 53.132812 12.273438 52.453125 33.980469 L 47.308594 38.9375 L 46.429688 52.402344 L 23.816406 72.890625 L 23.707031 78.648438 L 27.84375 81.90625 L 43.789062 86.5625 L 35.53125 94.25 L 35.609375 100.285156 L 43.570312 102.792969 L 51.324219 95.59375 L 51.429688 89.921875 L 53.917969 92.800781 L 56.230469 90.253906 L 56.261719 95.417969 L 57.105469 96.128906 L 57.78125 95.4375 L 58.101562 90.507812 L 60.324219 92.617188 L 62.527344 90.53125 L 62.609375 95.359375 L 70.789062 102.496094 L 78.5625 99.882812 L 78.632812 93.964844 L 70.136719 86.363281 L 86.289062 80.996094 L 90.125 77.652344 L 90.25 72.082031 L 67.421875 51.988281 L 66.042969 38.585938 Z M 61.148438 34.019531 "
          />
        </g>
      </g>
    </g>
  </g>
</svg>
